<?xml version="1.0" encoding="UTF-8"?>
<!DOCTYPE svg PUBLIC "-//W3C//DTD SVG 1.1//EN" "http://www.w3.org/Graphics/SVG/1.1/DTD/svg11.dtd">
<!-- Creator: CorelDRAW -->
<svg xmlns="http://www.w3.org/2000/svg" xml:space="preserve" width="210mm" height="297mm" version="1.1" style="shape-rendering:geometricPrecision; text-rendering:geometricPrecision; image-rendering:optimizeQuality; fill-rule:evenodd; clip-rule:evenodd"
viewBox="0 0 21000 29700"
 xmlns:xlink="http://www.w3.org/1999/xlink"
 xmlns:xodm="http://www.corel.com/coreldraw/odm/2003">
 <defs>
  <style type="text/css">
   <![CDATA[
    .fil3 {fill:url(#id0)}
    .fil1 {fill:url(#id1)}
    .fil4 {fill:url(#id2)}
    .fil2 {fill:url(#id3)}
    .fil0 {fill:url(#id4)}
   ]]>
  </style>
  <linearGradient id="id0" gradientUnits="userSpaceOnUse" x1="16157.57" y1="16904.52" x2="16183.94" y2="16878.46">
   <stop offset="0" style="stop-opacity:1; stop-color:#E59939"/>
   <stop offset="0.25098" style="stop-opacity:1; stop-color:#F2CF6A"/>
   <stop offset="0.529412" style="stop-opacity:1; stop-color:#E6A33D"/>
   <stop offset="0.831373" style="stop-opacity:1; stop-color:#D98A39"/>
   <stop offset="1" style="stop-opacity:1; stop-color:#F2CF6A"/>
  </linearGradient>
  <linearGradient id="id1" gradientUnits="userSpaceOnUse" xlink:href="#id0" x1="16419.31" y1="15709.55" x2="16500.91" y2="15628.89">
  </linearGradient>
  <linearGradient id="id2" gradientUnits="userSpaceOnUse" xlink:href="#id0" x1="9618.5" y1="17050.33" x2="14696.36" y2="12030.94">
  </linearGradient>
  <linearGradient id="id3" gradientUnits="userSpaceOnUse" xlink:href="#id0" x1="5993.08" y1="19339.14" x2="15215.44" y2="10223.59">
  </linearGradient>
  <linearGradient id="id4" gradientUnits="userSpaceOnUse" xlink:href="#id0" x1="11539.8" y1="21229.01" x2="11596.92" y2="21171.93">
  </linearGradient>
 </defs>
 <g id="Camada_x0020_1">
  <metadata id="CorelCorpID_0Corel-Layer"/>
  <g id="_2908623277760">
   <polygon class="fil0" points="11514.7,21205.44 11596.29,21205.44 11613.24,21192.41 "/>
   <polygon class="fil1" points="16470.78,15671.7 16475.18,15605.31 16462,15617.72 16445.05,15676.05 16440.03,15731.89 "/>
   <path class="fil2" d="M16313.24 12894.6l-11.3 -21.1 6.9 23.58 4.4 -2.48zm53.35 -262.45l-3.77 -27.92 -4.39 0 8.16 27.92zm69.67 -190.48l-8.79 -42.81 4.4 47.16 4.39 -4.35zm-95.41 -47.15l-32.01 -59.56 -15.69 -21.72 15.69 21.72 32.01 59.56zm-118.63 34.12l-6.9 4.35 6.9 -4.35zm-80.34 49.64l4.4 -16.75 -17.58 -35.37 13.18 52.12zm190.19 -197.3l13.18 6.82 -16.95 -38.46 -13.18 -35.99 13.18 35.99 3.77 31.64 -3.77 4.96 3.77 -4.96zm56.49 -119.13l-6.28 -11.16 1.88 13.03 4.4 -1.87zm-428.07 147.05l0 -31.64 -4.4 -8.07 4.4 16.75 0 22.96zm32.64 -320.15l-6.91 -30.4 -13.18 -8.07 5.02 12.41 15.07 26.06zm-166.97 -55.84l-4.39 -15.51 -4.39 4.96 8.78 10.55zm-224.7 -390.88l-4.4 -15.51 -16.94 -21.1 21.34 36.61zm-164.45 -23.58l-18.83 -21.71 14.44 21.71 4.39 0zm259.85 -465.95l-8.78 -26.06 -1.89 2.48 10.67 23.58zm-276.8 -68.87l23.85 11.17 -23.85 -11.17 -32.64 -25.44 32.64 38.47 0 -13.03zm-88.5 -12.41l-4.39 -17.37 -15.7 -4.34 20.09 21.71zm-343.96 -17.37l-30.76 -27.3 17.58 21.1 13.18 6.2zm202.73 -565.84l-42.68 -32.89 15.07 21.72 27.61 11.17zm-432.46 125.33l-23.22 -19.24 -4.4 -3.72 4.4 3.72 6.27 8.07 16.95 11.17zm-328.27 -22.96l-6.28 -11.17 -11.3 -5.58 17.58 16.75zm85.99 -346.21l-42.68 -38.47 42.68 38.47zm-73.44 -479.6l-30.13 -27.3 30.13 27.3zm-224.7 117.88l-6.28 -12.41 10.67 -24.19 -10.67 24.19 6.28 12.41zm-198.98 164.42l-51.47 -14.89 -30.75 -8.07 -21.34 -10.54 -10.67 -6.83 -45.82 -21.09 56.49 27.92 21.34 10.54 82.22 22.96zm177.63 -402.05l30.13 22.34 -1.88 14.27 1.88 -14.27 -4.39 -4.34 2.51 -2.49 -28.25 -15.51zm-480.16 488.29l-13.18 -6.82 13.18 6.82zm-173.24 -838.22l-25.74 -6.82 8.79 6.82 16.95 0zm-168.22 288.51l-56.49 -17.37 54.61 21.71 1.88 -4.34zm-432.46 -485.81l-139.34 -41.57 139.34 41.57zm-17.58 55.84l-22.59 -8.68 -0.63 4.96 23.22 3.72zm-84.73 94.93l0.63 -5.58 -14.44 -5.59 0 4.35 13.81 6.82zm-6.91 120.99l-84.1 -25.44 -23.86 -13.03 -31.38 -4.34 -111.72 -19.24 48.33 11.17 63.39 8.07 55.24 17.37 84.1 25.44zm-215.29 613l-61.51 -9.93 10.04 4.34 24.48 8.69 26.99 -3.1zm-225.96 -37.23l-82.22 -21.72 -77.83 -27.92 77.83 27.92 70.3 17.38 11.92 4.34zm-20.08 29.16l-11.93 0 11.93 0zm-10.67 -544.75l0.62 -8.69 -13.18 0 12.56 8.69zm64.02 -431.83l14.43 2.48 20.72 -2.48 36.4 6.83 -36.4 -6.83 -35.15 0zm-251.07 485.81l-23.85 -11.17 -28.25 4.34 -24.48 -1.86 -51.47 -6.82 -40.17 -1.86 -60.88 -4.35 -82.23 -4.34 -89.12 -8.07 -26.37 -7.44 -35.15 1.86 -26.99 -1.86 -27.61 -1.24 -48.33 1.24 -220.32 0 -195.83 11.17 -12.55 6.2 -38.29 8.69 -87.25 2.48 -40.17 8.69 -75.95 5.58 -75.32 11.17 -13.81 0 -11.92 3.72 -47.7 8.69 -192.7 32.26 -59 11.17 -59.63 9.92 -126.16 26.06 -87.25 25.44 -26.36 6.83 -75.95 29.78 -75.95 27.3 -3.13 0 -23.85 8.68 -23.23 4.35 -47.07 15.51 35.77 -8.69 34.53 -11.17 26.98 -8.68 60.26 -14.27 59.63 -19.86 381.62 -91.2 540.43 -79.42 82.22 -6.2 80.97 -6.83 158.8 -6.2 160.69 -3.73 161.94 0 41.42 5.59 23.23 6.82 64.02 4.35 52.09 0 77.84 6.2 37.03 4.34 13.81 2.49 1.25 -2.49 23.23 0 42.05 3.73 24.48 3.1zm-692.32 335.04l-8.16 -4.35 8.16 13.03 0 -8.68zm-129.3 -28.54l-50.21 -1.24 -35.78 3.72 85.99 -2.48zm-193.95 -91.21l-23.85 6.83 -25.74 3.1 23.85 -3.1 0.63 0 25.11 -6.83zm-470.75 68.25l-12.56 4.34 0 1.87 12.56 -6.21zm-457.58 70.11l-22.59 -1.86 21.97 10.55 -38.92 32.26 38.92 -32.26 15.69 -6.21 -15.07 -2.48zm-274.29 -266.79l22.6 -6.82 -35.78 6.82 13.18 0zm-231.61 -822.09l-55.23 8.07 41.42 0 13.81 -8.07zm80.34 385.92l-53.35 4.34 1.88 2.48 51.47 -6.82zm-136.83 -256.24l-14.44 4.34 15.7 2.48 -1.26 -6.82zm141.23 -171.25l5.65 3.11 21.34 5.58 3.13 2.48 15.07 -4.34 -18.2 1.86 -21.34 -5.58 10.04 -4.35 -15.69 1.24zm91.64 212.2l0 0 29.5 -13.03 -29.5 13.03zm33.89 6.2l30.13 4.34 1.88 6.83 -1.88 -6.83 -30.13 -4.34zm117.38 290.37l13.8 -1.24 15.07 -8.69 -28.87 9.93zm60.88 -351.79l39.54 -11.17 -11.92 -4.35 -14.44 0 -13.18 15.52zm80.34 -56.46l29.5 -6.21 10.04 -8.69 -39.54 14.9zm101.68 -201.03l91.02 -10.55 -91.02 10.55zm156.92 404.53l81.6 -13.03 -52.1 2.48 -29.5 7.45 0 3.1zm16.32 -235.15l16.32 0 12.55 -1.86 -28.87 1.86zm205.25 583.84l23.85 -6.82 -10.04 1.86 -13.81 4.96zm1.88 -128.43l50.22 -4.97 -40.18 -6.2 -10.04 11.17zm-11.3 -106.72l37.04 1.86 57.74 -4.34 -94.78 2.48zm282.46 -379.09l29.5 -12.41 -29.5 12.41zm79.08 698.62l38.92 -1.86 -38.92 1.86zm85.37 -527.38l10.67 2.49 -10.67 -2.49zm-33.9 -147.04l30.13 4.34 28.24 6.21 -28.24 -6.21 -13.18 -4.34 -16.95 0zm144.99 373.51l15.07 1.86 0 -1.86 -15.07 0zm-70.92 -279.2l55.86 -8.69 57.12 1.86 -40.8 -1.86 -16.32 0 -55.86 8.69zm281.82 46.53l60.26 -13.65 -44.57 0 -15.69 13.65zm122.4 134.64l10.67 2.48 30.12 -11.17 -40.79 8.69zm68.41 207.84l6.91 3.73 1.25 -3.73 -8.16 0zm141.86 1.24l15.06 -1.24 -20.09 -11.16 5.03 12.4zm353.37 -324.49l23.86 8.07 -9.42 -3.72 -14.44 -4.35zm47.08 375.99l13.81 1.86 14.44 0 -28.25 -1.86zm-2460.47 329.46l-24.48 3.72 -5.02 6.2 -13.18 13.65 13.18 -13.65 29.5 -9.92zm-134.32 -327.6l23.22 -1.86 -55.23 1.86 32.01 0zm-188.3 -456.64l-103.57 25.43 -13.18 0 -15.69 10.55 -24.48 8.69 -12.55 6.82 12.55 -6.82 24.48 -8.69 28.87 -10.55 103.57 -25.43zm-33.27 223.98l-30.75 11.16 5.02 9.93 25.73 -21.09zm88.5 611.13l-20.08 14.89 13.18 -3.72 6.9 -11.17zm-151.89 -47.15l-8.79 3.1 -4.39 1.24 4.39 -1.24 9.41 0 -0.62 -3.1zm38.91 179.93l-40.8 8.68 5.03 9.93 35.77 -18.61zm-65.9 45.29l-42.68 27.3 13.18 -1.86 29.5 -25.44zm-331.41 -519.93l-13.81 6.82 0.63 1.87 13.18 -8.69zm158.17 370.4l-72.81 34.13 18.2 5.58 54.61 -39.71zm192.07 482.71l-11.93 3.72 11.93 0 0 -3.72zm-665.33 -1020.01l-11.93 8.69 15.07 -4.35 -3.14 -4.34zm320.11 709.79l-14.44 25.43 9.42 0 4.39 4.35 -2.51 -4.35 -1.88 0 5.02 -25.43zm-268.64 -8.69l-13.19 -4.34 -11.92 11.17 16.32 -2.49 8.79 -4.34zm-146.25 459.13l-35.78 13.65 13.81 6.2 21.97 -19.85zm-312.58 -392.12l17.57 -8.69 -17.57 8.69 -46.45 27.3 15.69 -4.35 30.76 -22.95zm477.66 814.02l-9.42 8.07 -38.29 24.19 -26.99 20.48 74.7 -52.74zm-359.03 -369.78l55.23 -55.22 -10.04 5.58 -39.54 30.4 -5.65 19.24zm-244.79 -491.4l13.81 -8.68 6.27 -8.69 -20.08 17.37zm278.05 561.51l-19.45 21.71 -38.92 23.58 32.64 -16.75 6.28 -6.83 19.45 -21.71zm-217.17 -209.09l-33.27 25.43 13.19 -4.34 20.08 -21.09zm-392.92 -431.83l25.73 -19.24 -13.81 8.69 -11.92 10.55zm-45.19 -64.53l-15.7 4.35 -8.15 8.68 23.85 -13.03zm-75.95 13.03l-11.93 13.03 13.18 -8.69 -1.25 -4.34zm-75.32 96.79l-48.33 40.33 27.61 -17.37 20.72 -22.96zm-131.19 -122.23l11.93 -10.54 94.15 -70.74 -82.22 59.57 -11.93 11.17 -87.25 83.13 75.32 -72.59zm-1.88 327.6l-10.04 12.41 12.55 -11.17 -2.51 -1.24zm-77.83 -45.3l-52.72 55.22 11.29 -9.92 45.82 -41.57 -4.39 -3.73zm692.95 931.91l-19.46 12.41 3.77 4.34 15.69 -16.75zm101.68 153.87l-110.47 115.4 110.47 -115.4zm-933.97 -1180.08l24.48 -19.86 -26.99 17.38 2.51 2.48zm-167.59 413.21l-12.55 9.93 12.55 -9.93zm579.97 636.58l-9.42 8.68 9.42 -8.68zm-59.63 102.99l-9.42 3.1 -8.78 26.68 6.9 -6.82 11.3 -22.96zm-133.07 42.19l79.09 -64.52 -86.62 75.07 7.53 -10.55zm-762.62 -652.08l53.98 -51.5 -13.81 8.68 -40.17 42.82zm0 -125.95l13.81 -10.55 -2.51 -1.86 -11.3 12.41zm276.81 201.02l11.29 -11.17 -3.76 -1.24 -7.53 12.41zm-230.36 141.46l-15.69 18.61 -7.53 8.69 -32.01 34.12 -113.61 100.52 113.61 -100.52 26.99 -22.95 5.02 -11.17 7.53 -8.69 15.69 -18.61zm1113.49 1080.19l-56.49 62.67 15.69 -15.51 40.8 -47.16zm-890.04 -698l3.14 2.48 6.9 -15.51 -10.04 13.03zm-212.78 -142.7l-25.73 11.79 -9.42 13.65 35.15 -25.44zm129.3 159.46l25.11 -29.79 30.75 -51.49 -55.86 81.28zm568.67 480.84l-11.3 26.06 11.3 -26.06zm250.44 222.74l-16.32 38.47 -36.4 47.15 13.18 -15.51 23.22 -31.64 16.32 -38.47zm152.53 168.76l-3.77 9.93 5.65 -8.07 -1.88 -1.86zm-1322.51 -959.21l8.79 -5.58 10.04 -27.3 -18.83 32.88zm266.14 108.58l1.88 0 -1.88 0zm-672.87 -521.79l25.11 -21.1 -14.44 8.07 -10.67 13.03zm302.54 124.09l47.7 -74.46 1.26 -4.34 77.83 -89.96 -79.09 94.3 -47.7 74.46zm498.37 683.73l-18.83 19.23 11.93 -8.69 6.9 -10.54zm-489.58 -335.66l6.27 -14.9 -6.27 14.9 -7.53 13.64 -3.77 11.79 11.3 -25.43zm1325.01 1052.27l-16.95 22.95 -19.46 27.3 19.46 -27.3 16.95 -22.95zm-935.86 -592.53l-38.91 51.5 -8.16 12.41 47.07 -63.91zm-451.29 -205.36l13.81 -19.24 -13.81 19.24zm623.9 478.98l-12.55 4.34 -8.79 13.03 21.34 -17.37zm332.67 228.94l-7.53 6.21 2.51 2.48 5.02 -8.69zm-733.75 -602.45l15.69 -2.48 8.79 -27.3 -24.48 29.78zm-861.79 -334.42l-26.36 39.09 26.99 -23.58 -0.63 -15.51zm277.43 410.74l-50.21 124.71 38.91 -71.36 16.32 -50.87 -5.02 -2.48zm420.54 258.72l-18.2 21.72 10.04 -10.55 8.16 -11.17zm-252.95 -136.5l-11.3 11.17 -3.14 14.27 14.44 -25.44zm1293.63 782.38l-10.05 8.07 -15.69 38.47 25.74 -46.54zm-163.83 -37.22l-28.87 22.33 -23.85 22.96 0 2.48 -4.39 4.34 -10.05 12.41 -6.27 10.55 6.27 -10.55 10.05 -12.41 4.39 -6.82 15.69 -12.41 8.16 -10.55 28.87 -22.33zm-658.42 -271.14l1.88 -8.06 -57.12 53.36 0.63 13.02 54.61 -58.32zm342.08 327.6l-8.79 10.54 2.51 2.49 6.28 -13.03zm-652.15 -502.56l8.16 -4.35 -3.14 -4.34 -5.02 8.69zm669.1 341.86l20.08 -1.86 6.91 -25.44 -26.99 27.3zm-1308.7 -716.61l21.97 -41.57 -15.69 25.44 -6.28 16.13zm1067.67 829.53l-4.39 8.69 13.18 -3.72 -8.79 -4.97zm-260.48 -93.06l-2.51 9.92 2.51 -9.92zm-406.73 -160.7l15.69 -22.95 -6.28 -5.59 -9.41 28.54zm-150.64 -107.34l-9.42 11.17 -6.9 42.81 16.32 -53.98zm-177.64 6.21l-4.39 15.51 6.28 -15.51 -1.89 0zm841.71 441.13l-31.38 65.77 31.38 -65.77zm387.9 273.62l0 13.03 6.28 -11.17 -6.28 -1.86zm275.55 123.47l-12.55 43.43 12.55 -43.43zm-1352 -451.06l-21.97 34.12 -0.63 0 -8.16 11.17 8.16 -11.17 0.63 0 16.32 -21.09 5.65 -13.03zm898.19 408.87l1.26 14.89 -1.26 -14.89zm-1146.12 -470.3l11.29 -8.68 -1.25 -18 -10.04 26.68zm-569.93 -169.38l-9.41 13.03 9.41 -13.03zm1815.85 754.46l0.63 -10.55 -3.14 10.55 2.51 0 0 2.48 -5.02 32.26 5.02 -32.26 5.02 -11.17 -5.02 8.69zm-2038.67 -758.8l-8.79 15.51 -41.43 104.23 41.43 -104.23 8.79 -15.51zm1876.73 853.73l-11.92 32.88 11.92 -32.88zm-2248.94 -924.46l6.28 -16.13 -8.79 14.27 2.51 1.86zm1311.2 635.33l-23.85 65.77 11.3 -11.79 13.81 -38.47 -1.26 -15.51zm792.75 312.08l-6.28 6.83 6.91 17.37 -0.63 -24.2zm-536.66 -135.25l-0.62 15.51 0.62 -15.51zm523.48 216.53l-10.67 21.1 6.9 -12.41 3.77 -8.69zm-380.37 -74.45l-10.04 48.39 6.9 -22.95 3.14 -25.44zm528.5 171.24l-16.95 29.78 2.51 0 14.44 -29.78zm-1065.78 -289.12l-25.11 68.24 9.41 2.49 15.7 -70.73zm-437.49 -24.2l5.02 -31.64 -3.76 17.37 -1.26 14.27zm1592.4 490.15l-10.67 23.57 2.51 0 8.16 -23.57zm-206.5 -22.96l3.13 -8.68 0 -13.03 -6.9 35.98 2.51 -8.68 1.26 -5.59zm-1212.04 -266.17l-4.39 28.54 1.26 14.89 3.13 -43.43zm188.31 112.3l-1.89 52.74 9.42 -52.74 -7.53 0zm1054.48 305.26l0 9.93 2.51 -8.69 -2.51 -1.24zm-2001.01 -470.3l4.39 -17.37 0 -13.03 -4.39 30.4zm189.55 45.3l-15.69 95.54 18.21 -59.56 -2.52 -35.98zm-537.91 -361.72l4.39 -15.51 0.63 -1.86 51.47 -183.66 5.02 -34.12 -15.69 53.98 -13.18 50.87 -28.25 114.79 -4.39 15.51zm718.06 -10.55l5.65 49.02 -5.65 -49.02zm616.37 268.65l31.38 -93.06 -0.63 -15.52 -30.75 108.58zm692.95 669.46l-7.53 45.29 -1.89 1.86 -11.3 21.1 13.19 -22.96 10.67 -45.29 -3.14 0zm24.48 4.34l-1.89 12.41 1.89 47.16 7.53 -9.93 -7.53 -49.64zm-1205.76 -155.73l-15.69 42.81 10.04 -15.51 5.65 -27.3zm780.2 241.35l-5.65 11.17 8.78 14.27 -3.13 -25.44zm-1703.5 -262.44l-7.53 50.25 6.9 -17.37 0.63 -32.88zm1479.42 315.18l-9.42 39.09 25.11 -34.12 -15.69 -4.97zm777.68 112.3l-5.65 21.1 -16.32 67.63 0 11.16 0 -11.16 16.32 -67.63 3.77 -11.17 1.88 -9.93zm-1008.67 -32.88l-0.62 38.47 5.65 -22.96 -5.03 -15.51zm-1360.79 -202.27l6.91 -19.85 -6.91 19.85zm2218.19 268.04l-5.65 37.22 6.28 0 1.26 -49.01 -1.89 11.79zm-713.66 -117.27l-3.14 42.81 -0.62 28.54 3.76 0 -3.14 -28.54 3.14 -42.81zm191.44 161.32l-1.88 27.3 12.55 -26.06 -10.67 -1.24zm94.78 11.79l-5.02 15.51 0 -1.86 -3.77 35.98 0 78.8 0 -78.8 3.77 -34.12 5.02 -15.51zm-1068.3 -85l1.89 -14.9 -3.14 -1.86 1.25 16.76zm1217.68 290.98l-5.64 14.27 0 11.17 5.64 -25.44zm-107.33 44.68l4.4 21.09 20.08 -21.09 -24.48 0zm445.02 186.13l0 42.81 -3.76 22.96 4.39 -11.17 -0.63 -11.79 0 -42.81zm-82.22 183.03l0.62 36.61 8.79 -25.44 -8.16 -11.17 -1.25 0zm-85.99 55.84l0 14.89 0 -14.89zm-1142.36 49.01l0 30.41 5.02 -15.52 -5.02 -14.89zm1297.39 14.89l-4.39 8.69 15.06 19.23 9.42 51.5 5.64 -47.15 -25.73 -32.27zm-882.5 58.33l1.25 6.82 -1.25 -6.82 -2.52 -21.72 0 28.54 2.52 -6.82zm-3.14 157.59l0.62 10.55 -0.62 -10.55zm1011.8 8.68l-5.65 10.55 8.16 32.27 -2.51 -42.82zm-780.19 149.53l9.41 68.87 -9.41 -68.87zm33.26 81.28l2.51 24.2 5.65 -38.47 -8.16 14.27zm345.85 -22.96l-8.79 14.89 6.91 0 1.88 -14.89zm-455.06 31.65l-7.53 -55.22 1.88 16.75 5.65 38.47zm-38.92 166.9l3.14 11.16 1.89 1.86 20.08 79.42 -1.88 -13.65 -18.2 -65.77 -5.03 -13.02zm873.72 -106.72l0.63 8.06 2.51 0 -3.14 -8.06zm-249.18 89.34l7.53 11.17 -4.4 -11.17 -3.13 0zm-977.29 279.82l6.91 43.43 1.25 -45.29 -8.16 1.86zm32.64 24.2l8.79 27.92 -4.39 -27.92 -4.4 0zm1539.68 -245.7l11.92 145.19 0 3.72 1.89 25.44 14.43 28.54 -16.32 -57.7 -6.27 -70.73 -2.51 -34.13 -3.14 -40.33zm-1294.26 472.16l-3.14 16.75 5.02 11.17 -1.88 -27.92zm320.11 12.41l0.63 15.51 12.55 20.48 -13.18 -35.99zm316.98 -59.56l8.16 47.15 3.76 -10.55 -9.41 -36.6 -2.51 0zm188.3 -192.34l-5.02 -21.71 -2.51 2.48 7.53 19.23zm-1777.57 547.23l-43.93 -142.7 -43.31 -143.94 3.14 15.51 21.97 70.11 20.71 72.59 28.24 92.45 13.18 35.98 127.42 384.68 -56.49 -172.49 -18.2 -49.63 -16.32 -53.36 -36.41 -109.2zm2100.19 -343.72l6.9 9.92 -6.9 -9.92zm-5.02 -34.13l18.2 39.71 -18.2 -39.71zm-1609.98 511.87l70.93 201.02 -70.93 -201.02zm750.7 -58.94l-5.65 14.27 18.2 21.71 -12.55 -35.98zm-920.79 286.64l-32.02 -73.83 11.93 31.02 20.09 42.81zm799.65 -883.51l-5.02 -11.17 2.51 11.17 2.51 0zm962.22 577.01l6.9 21.72 2.51 -15.51 -9.41 -6.21zm-2193.08 849.39l14.43 25.44 1.26 1.86 -1.26 -1.86 -11.3 -25.44 -3.13 0zm10.67 86.86l7.53 15.51 3.14 0 -10.67 -15.51zm858.02 -303.4l9.42 15.51 -6.28 -15.51 -3.14 0zm638.97 -239.49l2.51 13.03 6.28 -1.86 -8.79 -11.17zm38.29 71.35l13.18 38.47 1.88 -13.65 -15.06 -24.82zm1057.62 -415.07l1.26 6.2 4.39 14.27 -4.39 -14.27 -1.26 -6.2zm-941.5 427.48l21.34 62.05 -5.02 -41.57 -16.32 -20.48zm-393.55 219.64l-4.4 32.88 5.03 14.27 -0.63 -47.15zm469.5 -50.88l6.9 11.17 -4.39 -13.65 -2.51 2.48zm478.28 -28.54l20.09 31.02 -6.28 -11.16 -10.67 -19.86 -3.14 0zm222.2 -55.22l6.27 22.34 3.14 -3.1 -9.41 -19.24zm-686.68 491.39l8.79 13.65 -4.39 -13.65 -4.4 0zm91.02 -45.91l13.81 22.96 -13.19 -22.96 -0.62 0zm251.69 -75.69l20.72 31.64 -11.3 -20.47 -9.42 -11.17zm332.67 -163.8l35.78 58.94 8.78 13.65 -44.56 -72.59zm-1063.9 730.88l17.57 20.48 -13.81 -24.82 -3.76 4.34zm525.36 -224.6l8.16 11.17 -5.65 -13.03 -2.51 1.86zm39.54 52.74l3.77 13.65 10.67 13.03 -7.54 -13.03 -6.9 -13.65zm365.3 -219.64l0 15.51 12.56 21.1 0 -13.03 -12.56 -23.58zm-10.04 21.1l1.88 15.51 15.07 20.47 -16.95 -35.98zm813.46 -454.79l3.14 10.55 3.14 -2.48 -6.28 -8.07zm-2552.73 1171.4l-10.05 -15.51 10.05 15.51zm703.61 98.65l19.46 27.3 1.26 -1.86 -20.72 -25.44zm1672.75 -899.02l16.94 45.29 5.65 6.83 -22.59 -52.12zm-776.43 614.24l-14.44 -21.72 -9.41 -12.41 15.06 25.44 8.79 8.69zm499.62 -318.29l5.03 6.2 -3.77 -8.68 -1.26 2.48zm-1441.13 1083.29l16.32 28.54 14.44 9.93 -30.76 -38.47zm1854.77 -1239.64l5.02 8.68 -1.88 -13.03 -3.14 4.35zm-218.43 220.26l0 14.89 52.1 66.38 -32.01 -42.81 -20.09 -38.46zm303.79 -75.08l10.04 17.37 14.44 18.62 -24.48 -35.99zm-608.21 421.9l-27.62 -31.02 13.81 22.34 13.81 8.68zm-1255.97 943.7l-6.9 -11.79 6.9 11.79zm1278.57 -1042.35l-11.93 -8.68 10.04 10.54 1.89 -1.86zm223.45 262.45l6.9 8.69 12.55 8.68 -19.45 -17.37zm414.89 -303.4l6.27 8.69 5.65 -4.34 -11.92 -4.35zm-253.58 260.59l-8.79 -8.69 -2.51 0 11.3 8.69zm601.93 -474.64l8.16 11.17 2.51 -4.34 -10.67 -6.83zm-917.65 872.34l64.65 70.11 -34.52 -41.57 -30.13 -28.54zm207.13 -72.59l39.54 21.1 -39.54 -21.1zm-80.34 196.68l11.92 6.83 -8.78 -8.69 -3.14 1.86zm-628.93 666.98l9.42 15.51 -9.42 -15.51zm25.74 0l47.7 35.98 3.77 0 33.89 30.41 -11.3 -8.69 -22.59 -21.72 -51.47 -35.98zm55.23 -13.03l11.3 13.03 11.93 6.82 13.8 8.69 -37.03 -28.54zm1414.14 -1409.03l29.5 35.37 18.21 9.93 -47.71 -45.3zm111.1 -80.03l23.85 21.09 18.83 8.69 -42.68 -29.78zm-229.73 317.66l-10.67 -4.34 8.16 8.69 2.51 -4.35zm-175.12 117.27l-3.76 -3.73 -3.14 -4.96 1.26 4.96 3.13 8.69 2.51 -4.96zm-1520.84 1268.18l-64.65 -55.84 -20.09 -4.34 84.74 60.18zm316.34 -523.65l-68.41 -62.05 -46.45 -40.32 114.86 102.37zm159.43 818.36l75.95 66.39 52.1 40.33 13.81 6.82 -141.86 -113.54zm320.74 -320.77l13.81 8.69 -11.3 -11.17 -2.51 2.48zm1267.27 -1466.1l22.6 25.43 16.94 11.17 -39.54 -36.6zm-1185.04 1492.16l12.55 10.55 1.88 -2.48 -14.43 -8.07zm718.05 -890.95l45.82 59.56 -45.82 -59.56zm-2.51 119.74l43.94 25.44 -18.2 -13.03 -25.74 -12.41zm-180.77 416.32l10.05 8.06 12.55 8.69 -9.42 -12.41 -13.18 -4.34zm317.6 -403.91l10.05 6.2 71.55 51.5 116.75 72.59 25.1 14.89 22.6 8.69 -47.7 -23.58 -62.14 -40.33 -21.34 -13.02 -33.27 -19.24 -81.6 -57.7zm472.01 -472.78l13.18 21.72 -1.25 -19.24 -11.93 -2.48zm-276.8 464.09l10.04 8.69 -7.53 -11.17 -2.51 2.48zm52.72 231.43l-45.82 -26.06 6.28 10.55 39.54 15.51zm25.11 3.72l20.09 19.24 9.41 4.34 4.39 -3.1 -33.89 -20.48zm43.31 -62.04l6.9 1.86 7.54 -1.86 -7.54 1.86 -6.9 -1.86zm-223.45 74.45l-32.64 -22.96 9.42 10.55 23.22 12.41zm595.03 -516.83l51.47 40.33 -42.68 -55.22 -8.79 14.89zm-126.79 295.33l-9.41 -6.82 -1.89 4.34 11.3 2.48zm-851.12 1513.26l43.94 22.96 -10.67 -11.17 -33.27 -11.79zm1260.36 -1759.57l14.44 9.92 21.97 11.17 9.41 4.34 -9.41 -4.34 -36.41 -21.09zm-339.57 649.6l-10.67 -4.34 10.67 4.34zm-709.89 1530.63l33.26 15.52 13.19 5.58 -46.45 -21.1zm767.01 -1372.42l33.27 21.72 16.94 -4.34 -50.21 -17.38zm345.22 -606.79l2.51 15.51 32.01 12.41 -34.52 -27.92zm-527.24 1118.04l-23.85 -11.17 23.85 13.03 47.7 34.12 -47.7 -34.12 0 -1.86zm59 -45.29l12.55 4.34 -11.92 -8.69 -0.63 4.35zm19.46 -9.93l24.47 5.58 14.44 8.69 64.65 17.37 70.3 -4.34 -57.75 -8.69 -12.55 13.03 -79.09 -26.06 -24.47 -5.58zm612.6 -1062.82l5.65 6.83 1.88 -4.97 -7.53 -1.86zm-204.62 572.67l33.27 17.37 -10.67 -8.68 -22.6 -8.69zm150.64 -286.65l10.04 6.83 -3.76 8.69 -1.26 0 6.91 17.37 20.08 9.93 -25.73 -27.3 3.76 -8.69 3.77 -6.83 -12.55 -3.72 -1.26 3.72zm-495.23 1028.08l-12.55 0 12.55 0zm-133.69 250.66l-15.07 -3.1 14.44 5.58 0.63 -2.48zm473.26 -508.77l11.93 6.83 35.77 8.07 15.69 4.34 -13.18 -6.83 -2.51 2.49 -47.7 -14.9zm373.46 -617.34l30.76 18.62 -5.65 -17.38 -25.11 -1.24zm-69.04 260.59l-8.16 -4.96 -1.25 0 9.41 4.96zm-336.43 1198.7l16.32 1.86 -16.32 -1.86zm380.99 -726.54l6.91 23.57 -6.91 -23.57zm-389.78 1164.57l-11.92 0 11.92 0 52.1 14.89 -50.22 -14.89 -1.88 0zm703.62 -1935.78l32.01 16.75 32.01 10.55 -64.02 -27.3zm-317.6 1209.86l114.86 21.1 -82.85 -25.44 -32.01 4.34zm276.8 -709.79l24.48 8.69 38.29 0 -62.77 -8.69zm46.45 22.96l-15.07 8.69 36.41 4.34 -21.34 -13.03zm-359.66 696.76l-11.29 -8.69 -14.44 0 25.73 8.69zm146.25 626.03l48.33 4.96 -11.3 -23.58 -37.03 18.62zm101.06 -16.14l17.57 0 -15.06 -6.82 -2.51 6.82zm487.07 -877.3l173.86 23.57 -118.63 -21.09 -55.23 -2.48zm488.95 -621.69l21.97 0 -21.97 0zm-635.2 1825.35l-16.95 0 16.95 4.34 0 -4.34zm779.57 -2053.67l11.92 0 -11.92 -4.34 0 4.34zm95.4 87.48l21.97 2.48 0 -4.34 -21.97 1.86zm-61.51 1943.23l16.32 0 1.26 -4.96 32.64 -3.73 28.24 -2.48 -11.92 -4.34 -16.32 6.82 -32.64 3.73 -17.58 2.48 0 2.48zm128.67 -1304.17l13.19 1.86 -13.19 -8.69 0 6.83zm-11.92 727.16l16.95 -4.34 -16.95 4.34zm51.47 -71.35l13.18 2.48 -13.18 -3.72 0 1.24zm16.32 235.15l28.87 -8.07 -28.87 8.07zm113.61 -1224.76l-2.51 -14.89 3.13 0 13.81 -9.93 3.77 0 8.79 -4.34 -6.91 4.34 -6.28 0 0.63 0 -16.94 9.93 2.51 14.89zm42.05 -410.73l54.61 -1.86 -54.61 1.86zm14.44 305.88l8.16 4.34 0 -4.34 -8.16 0 -14.44 6.82 14.44 -6.82zm28.24 126.57l-45.82 -4.35 -0.63 4.35 36.41 1.86 10.04 -1.86zm134.95 451.06l20.71 -1.86 20.09 -2.49 -20.09 2.49 -20.71 1.86zm75.32 917.01l-45.19 0 45.19 0zm32.01 -1409.02l23.23 -5.59 6.27 -4.34 8.16 -4.34 -8.16 4.34 -5.02 0 0 4.34 -24.48 5.59zm64.65 492.01l26.36 4.34 23.23 0 18.2 -3.1 -18.2 3.1 -23.23 0 -26.36 -4.34zm10.67 -451.06l50.22 -2.49 -25.11 -11.16 -25.11 9.3 0 4.35zm148.76 1534.97l-45.82 1.86 32.01 -1.86 13.81 0zm107.33 -83.76l30.76 0 0 -1.86 -30.76 1.86zm-101.05 -1526.29l10.04 2.48 13.18 0 -23.22 -2.48zm146.87 156.35l74.07 -14.89 -61.51 10.55 -12.56 4.34zm103.57 142.71l13.18 0 0 -3.73 -13.18 3.73zm-12.56 -446.72l11.93 0 22.6 -6.21 10.04 -8.68 -44.57 14.89zm207.76 1156.5l30.76 -1.86 -1.26 -4.96 -29.5 6.82zm-142.48 -1087.63l13.18 -2.49 68.42 -19.23 3.77 -1.86 44.56 -4.34 -44.56 4.34 -85.37 23.58zm315.72 869.86l-83.48 23.57 83.48 -23.57zm-119.26 -718.48l50.84 -21.09 55.87 -8.69 48.96 -8.68 -104.83 17.37 -42.05 9.93 -8.79 11.16zm-36.4 -277.95l10.67 -3.73 0 -4.34 -10.67 8.07zm50.21 143.94l-11.92 9.93 12.55 -3.73 -0.63 -6.2zm104.82 -147.67l65.28 -23.57 1.26 0 11.29 -6.83 -11.29 4.34 -66.54 26.06zm338.94 1167.06l-27.61 8.06 29.5 -1.24 -1.89 -6.82zm-249.18 568.32l-50.21 8.69 50.21 -8.69zm377.23 -337.52l75.32 -21.71 15.69 -5.59 -91.01 27.3zm-298.77 -1340.16l48.96 -8.68 11.29 -6.83 -60.25 15.51zm478.28 1549.25l15.07 -4.34 -0.63 -5.59 -14.44 9.93zm-141.22 -559.64l11.92 -8.69 -11.92 4.35 0 4.34zm197.09 400.19l45.82 -11.17 -31.39 0 -14.43 11.17zm-455.69 -1697.54l11.92 -2.48 -1.88 -4.34 -10.04 6.82zm284.96 354.9l15.06 6.2 9.42 -6.2 -24.48 0zm59 -17.37l13.18 0 13.81 -3.73 -26.99 3.73zm77.2 137.11l-5.64 0 15.06 0 -1.26 -2.48 -8.16 2.48zm79.72 129.68l69.67 -31.65 -13.18 3.73 -56.49 27.92zm378.48 928.18l-34.52 8.06 16.95 0 17.57 -8.06zm-328.9 -1569.1l4.4 -4.35 4.39 0 0 -4.34 -8.79 8.69zm271.16 570.81l10.04 -4.35 37.66 -19.23 23.22 -15.51 -23.22 13.65 0 1.86 -47.7 23.58zm109.84 94.3l43.31 -24.19 28.24 -12.41 -28.24 12.41 -8.79 4.34 -34.52 19.85zm-70.93 -299.05l10.05 -8.69 2.51 0 -2.51 0 -10.05 8.69zm27.62 -19.85l12.55 -17.38 13.19 -25.44 -13.19 2.49 -12.55 40.33zm-289.98 -668.84l20.08 -8.07 -2.51 -3.1 -17.57 11.17zm132.44 -27.92l18.83 -8.69 -10.05 2.48 -8.78 6.21zm274.29 521.17l13.18 3.1 0 -8.68 -13.18 5.58zm570.55 1124.86l104.19 -53.98 -84.1 40.95 -20.09 13.03zm-341.45 -771.21l-8.79 5.59 2.51 4.34 6.28 -9.93zm-393.55 -746.39l17.57 -13.03 -21.97 2.48 4.4 10.55zm17.57 -42.81l32.64 -10.55 -4.39 -8.69 -28.25 19.24zm-147.5 -367.92l8.79 0 21.97 19.85 -21.97 -19.85 2.51 -2.49 -2.51 -3.72 -8.79 6.21zm596.92 1033.03l-45.2 27.3 10.67 -4.34 34.53 -22.96 25.73 -19.85 -25.73 19.85zm-436.86 -904.6l28.87 -14.89 -11.3 0 -17.57 14.89zm93.52 102.37l1.88 4.34 4.4 -31.64 -4.4 10.55 -1.88 16.75zm-56.49 -145.18l10.67 1.86 16.95 -20.48 -27.62 18.62zm456.32 749.49l-10.67 8.69 4.39 5.58 0 22.96 10.67 4.34 0 -4.34 -10.67 0 0 -22.96 6.28 -14.27zm-294.38 -405.15l-16.95 13.03 12.55 0 4.4 -13.03zm895.06 1322.79l8.78 -6.21 13.18 -9.3 -13.18 6.82 0 2.48 -8.78 6.21zm-138.09 -352.41l12.55 -9.31 11.3 -11.79 -23.85 21.1zm129.93 132.77l38.91 -25.44 -17.57 1.24 -21.34 24.2zm-661.57 -1158.37l47.08 -34.12 8.78 -11.17 -57.74 42.81 1.88 2.48zm202.74 189.86l-8.79 8.06 13.18 -3.72 -4.39 -4.34zm26.36 93.69l-8.79 4.34 0 4.34 12.56 -4.34 -3.77 -4.34zm315.09 508.76l-25.73 11.17 13.18 0 12.55 -11.17zm-680.39 -1262.6l10.67 -8.69 -4.4 -2.48 -6.27 11.17zm88.5 -4.35l21.34 -6.82 -8.79 -13.03 -8.79 8.69 -3.76 11.16zm1011.8 1709.95l8.79 -9.31 45.82 -31.64 18.83 -17.38 -13.18 11.17 -5.65 6.21 -6.9 4.34 -38.92 27.3 -8.79 9.31zm-281.19 -434.31l13.18 -4.35 8.79 -13.03 -21.97 17.38zm-317.6 -561.51l32.01 1.25 -8.79 -9.93 -23.22 8.68zm897.56 745.16l12.56 -5.59 11.3 -13.03 -23.86 18.62zm12.56 -495.74l8.79 -10.54 -8.79 10.54zm56.49 -109.2l81.6 -83.13 8.78 -13.03 -90.38 96.16zm-255.46 -341.24l4.39 0 47.7 -45.29 -52.09 45.29zm-466.99 -535.44l34.52 -29.16 -34.52 14.89 0 14.27zm376.6 310.22l12.56 -8.07 -4.4 -1.86 -8.16 9.93zm657.17 632.85l8.16 -9.93 -8.16 5.59 0 4.34zm-345.84 -427.48l11.29 -8.69 -16.31 6.83 5.02 1.86zm163.82 139.6l91.01 -101.14 37.03 -42.81 -37.03 42.81 -4.39 4.35 -30.13 29.78 -56.49 67.01zm-268.02 -387.78l8.79 -8.07 4.39 -14.89 -13.18 22.96zm302.54 639.68l-30.13 31.64 11.3 -9.93 18.83 -21.71zm50.21 57.08l-28.24 15.51 -8.79 10.55 37.03 -26.06zm178.89 -681.87l9.42 -10.55 -13.19 6.83 3.77 3.72zm401.08 351.17l10.04 -13.65 8.79 -9.93 -10.67 8.07 -8.16 15.51zm36.41 -47.15l12.55 -8.07 -4.39 -4.34 -8.16 12.41zm-173.24 -199.17l15.69 -18.61 77.83 -94.93 -75.95 90.59 -1.88 4.34 -15.69 18.61zm-161.94 -163.79l4.39 -15.51 21.97 -34.13 0 -1.86 25.74 -29.78 -25.74 29.78 -21.97 35.99 0 1.86 -4.39 13.65zm-352.75 -402.05l8.79 -8.69 -13.18 6.21 4.39 2.48zm-224.71 -258.72l32.64 -21.72 23.23 -25.44 -64.65 38.47 8.78 8.69zm-86.61 -214.06l4.39 -4.34 -4.39 4.34zm817.22 660.15l4.4 2.49 4.39 -6.21 4.39 -6.82 -13.18 10.54zm224.71 126.57l-16.95 21.1 8.79 8.69 11.3 -10.55 -3.14 -19.24zm193.32 -112.92l27.62 -34.12 -8.79 -4.96 -18.83 39.08zm-1006.15 -884.75l8.78 -11.17 -13.18 8.69 4.4 2.48zm160.05 -31.02l4.39 -10.55 -4.39 8.69 0 1.86zm795.89 511.25l13.18 -13.03 -4.4 0 -8.78 13.03zm-372.21 -452.93l6.9 -13.03 -2.51 0 -4.39 13.03zm-151.27 -184.27l13.18 -21.1 -8.79 -4.34 -4.39 25.44zm-165.7 -153.87l10.04 -8.07 -10.04 8.07zm645.87 276.1l60.25 -85 26.37 -60.19 25.73 -63.9 -34.52 70.11 -77.83 138.98zm-281.2 -288.51l0 0 -4.39 -13.03 0 -4.34 4.39 -9.93 -4.39 9.93 0 2.48 4.39 14.89zm843.59 307.74l-1.88 4.34 -28.87 57.71 30.75 -62.05 54.61 -83.14 -28.87 35.99 -25.74 47.15zm-328.9 -183.65l34.52 -30.4 -34.52 30.4zm389.16 168.14l-8.79 13.65 0 14.89 8.79 -28.54zm-839.2 -411.97l11.3 -10.55 -11.3 -2.48 0 13.03zm864.93 233.28l8.79 -15.51 0 -12.41 -8.79 27.92zm207.76 -182.41l4.39 -14.27 -8.78 13.03 4.39 1.24zm60.88 -22.95l4.4 -15.52 -6.28 13.03 1.88 2.49zm-463.22 -675.05l4.4 -13.03 0 -19.85 8.79 -57.7 2.51 -1.86 1.88 -6.83 2.51 -20.47 -2.51 20.47 -4.39 8.69 -8.79 57.7 -4.4 32.88zm397.95 -126.57l4.39 -10.55 -4.39 -2.48 0 13.03zm-181.4 -248.17l4.39 -8.69 -4.39 8.69zm-56.49 -296.58l-1.88 -13.03 -1.89 13.03 3.77 0zm116.75 -624.16l4.39 -24.2 -4.39 11.17 0 13.03zm65.27 -35.37l8.16 28.54 -10.04 -83.76 1.88 55.22zm-11839.75 -2918.56l10.67 -32.89 -10.67 32.89zm-180.76 -165.04l9.41 -31.64 -9.41 31.64zm529.75 -931.91l21.97 -27.3 1.88 1.24 8.79 -9.92 -10.67 8.68 -21.97 27.3zm2599.81 -1716.14l16.95 1.86 -0.63 2.48 15.69 -9.31 -15.06 6.83 -16.95 -1.86zm8791.15 5268.18l-38.91 -475.88 -55.86 -310.22 -47.71 -218.4 -13.18 -57.08 -21.34 -63.9 -17.57 -62.67 -18.83 -68.25 -24.48 -58.32 -60.26 -185.51 2.51 0 -2.51 0 -4.39 -9.93 -8.79 -14.27 -1.88 41.57 23.85 100.51 25.73 112.92 21.34 89.97 21.97 93.68 16.95 81.28 -5.65 15.51 -4.39 95.55 6.27 49.64 0 117.26 -26.36 143.94 -8.79 -34.12 -25.73 -88.1 -30.13 -130.3 -15.06 -70.73 -19.46 -72.59 -129.93 -459.13 -38.91 -105.47 -47.71 -102.37 -13.18 -34.13 -12.55 -37.23 -26.36 -70.11 -60.26 -127.81 -172.61 -333.8 -43.94 -63.9 -42.68 -49.02 -43.31 -72.59 -70.92 -85.62 -151.27 -199.16 -37.66 -55.22 -52.1 -65.77 -60.26 -64.52 -25.73 -32.27 -8.79 -6.2 -15.06 -19.24 -97.29 -111.68 -10.67 -8.06 -2.51 2.48 -55.86 -62.66 -75.33 -85.63 -77.83 -57.7 -67.78 -58.94 -30.13 -39.71 -30.13 -35.98 -17.58 -19.24 26.37 32.27 -67.16 -47.16 -73.44 -59.56 -21.34 -17.37 -24.48 -22.96 -69.05 -58.32 -16.94 -14.27 -389.79 -271.75 -12.55 -4.35 -52.1 -34.12 -47.7 -35.99 -86.62 -45.29 -82.22 -51.5 -42.68 -27.3 -43.31 -24.19 -64.65 -34.13 -131.81 -59.56 -33.27 -10.55 -94.78 -50.87 -47.7 -21.72 -53.35 -23.58 -2.51 3.73 -21.97 -9.93 -21.34 -6.83 -17.58 -13.03 -320.11 -115.4 -108.59 -15.51 -62.76 -16.13 -96.67 -25.44 -97.91 -26.06 -24.48 -2.48 28.24 30.4 -0.62 0 -379.12 -74.45 -47.7 -6.83 0 1.25 -53.35 -9.93 -54.61 -8.69 -62.14 -4.34 -65.28 -5.59 -64.02 -8.68 -62.77 -4.34 -423.05 -13.65 -364.05 22.33 -80.96 5.59 -51.47 2.48 -51.47 6.2 -92.27 15.51 -80.97 16.75 -80.97 14.9 -72.18 13.02 -65.91 14.27 -129.92 34.75 -75.95 21.72 -61.51 22.95 -67.17 19.86 -134.32 40.32 -330.78 126.58 -324.5 150.76 -421.8 252.52 -64.65 42.81 -20.08 11.17 -14.44 16.75 -107.96 103 66.53 0 -154.4 120.98 -169.48 153.87 -65.27 49.02 -52.1 58.32 -32.01 34.12 -31.38 44.06 1.88 3.1 50.21 -38.47 42.68 -34.74 8.16 -5.59 9.42 -2.48 21.34 -10.55 29.5 -16.75 1.25 1.24 -10.04 21.72 -22.59 27.3 -4.4 8.68 2.51 2.48 -40.8 32.27 -41.42 22.95 -177 117.27 -13.81 17.37 -25.11 30.4 -24.48 27.3 -43.94 55.84 -43.31 58.32 -20.08 29.16 -22.6 27.92 -43.93 44.68 -35.15 53.97 -28.25 49.02 -40.17 55.84 -24.48 35.99 -42.05 70.11 -54.61 89.96 -17.58 30.4 -92.26 175.59 -57.12 111.06 -25.11 51.49 -21.34 48.4 -131.18 325.11 -92.9 277.96 -79.71 322.01 -15.69 69.49 -2.51 27.3 -1.89 29.78 -7.53 62.66 -10.67 63.91 -11.3 63.91 -5.02 51.49 -10.04 47.16 -45.19 382.19 -50.22 404.53 -40.8 172.48 -1.25 29.78 -6.28 0 -40.8 98.65 -49.58 59.57 -59 36.6 -57.75 49.02 -11.3 55.84 11.3 82.52 18.2 71.35 8.16 36.6 3.14 37.23 -6.28 -18.61 -3.13 -12.41 0 8.06 3.13 4.35 6.28 18.61 5.02 0 97.92 323.25 117.37 315.19 50.22 101.13 52.72 107.95 35.15 65.77 27.62 64.53 190.81 344.34 88.5 140.84 185.79 261.21 25.11 34.13 255.46 324.49 60.89 68.87 67.16 55.22 49.58 49.01 35.78 29.78 33.89 31.65 62.77 69.48 38.92 42.82 43.31 38.46 45.19 35.37 43.93 34.74 35.78 21.1 34.52 22.95 64.65 52.12 49.59 37.85 91.64 62.04 94.15 68.87 50.84 75.08 -53.98 3.1 -19.46 -11.79 -6.9 -6.83 -0.63 1.87 7.53 4.96 19.46 11.79 -5.02 7.44 -6.28 12.41 -1.88 58.32 43.31 50.26 65.28 60.8 79.08 42.81 75.33 33.51 47.07 22.33 46.45 27.3 23.22 14.27 25.74 15.51 50.84 23.58 108.58 40.33 355.27 112.92 11.92 0 29.5 11.17 30.76 11.17 28.24 13.03 101.69 34.12 200.22 38.47 89.76 12.41 97.92 19.23 79.71 11.17 38.92 3.1 39.54 4.96 75.32 6.21 73.44 2.48 381.62 19.23 494.61 -41.57 31.38 -5.58 -1.26 -4.34 186.42 -34.13 80.97 -21.71 10.67 0 279.94 -70.73 20.72 -3.73 27.61 -11.16 61.52 -16.76 38.28 -10.54 39.55 0 37.03 -13.65 74.69 -27.3 26.99 -5.59 28.87 -8.68 21.97 0 96.04 -13.03 -54.61 17.37 -27.62 5.58 11.3 0 16.32 -5.58 54.61 -17.37 43.31 -15.51 43.93 -14.27 84.74 -36.61 111.1 -57.7 53.35 -25.44 50.21 -28.54 94.78 -49.01 144.36 -83.14 13.19 -13.03 419.28 -286.03 74.06 -38.46 60.26 -23.58 6.91 14.89 -2.52 9.93 8.79 -8.07 -6.27 -1.86 -6.91 -14.89 4.39 -4.34 43.31 1.86 34.53 -19.24 38.91 -23.57 56.49 -27.3 85.99 -30.4 26.36 -12.41 47.08 35.98 74.06 -15.51 16.95 -8.06 8.79 -8.69 60.88 -47.15 8.16 38.46 -21.34 40.95 -60.88 75.08 -60.26 68.86 -26.36 35.99 -69.04 68.25 -44.57 53.98 -119.26 115.4 -73.43 65.77 -95.41 95.55 -86.62 92.44 -21.34 11.17 3.77 31.64 43.31 68.25 112.35 -31.64 52.1 -34.75 47.7 -35.98 94.78 -78.8 34.52 -25.44 33.27 -28.54 75.32 -59.56 89.13 -92.45 53.35 -64.52 69.67 -72.59 8.16 -3.11 47.7 -71.35 56.49 -50.87 16.95 -17.38 20.08 -12.4 10.05 -6.83 4.39 -6.2 8.79 -8.69 112.35 -98.03 37.66 -34.12 34.52 -37.23 66.54 -61.42 16.94 -14.28 43.31 -41.56 77.83 -70.11 67.79 -89.35 57.75 -92.44 60.88 -89.97 73.44 -102.37 77.83 -89.97 177 -124.09 13.19 -5.58 67.16 -83.76 23.85 -26.06 21.34 -27.3 52.09 -66.38 77.84 -85.63 43.31 4.35 15.06 -8.69 19.46 8.69 11.3 21.09 83.48 37.23 30.12 16.75 -8.16 21.72 2.51 1.24 45.2 37.22 53.98 12.41 38.91 -12.41 6.28 3.73 6.9 -12.41 62.14 -38.47 34.52 42.81 0 29.78 13.19 59.56 -13.19 97.41 17.58 52.74 -1.88 44.05 -12.56 22.96 48.96 -41.57 59 -96.79 44.57 -98.03 30.75 -62.04 8.16 -47.78 91.01 -192.33 11.3 19.85 18.83 -94.31 -8.16 10.55 8.16 -37.85 0 10.55 8.79 -42.81 8.79 -47.15 16.94 -76.94 13.19 -35.99 13.18 -96.78 4.39 -78.18 38.92 -179.93 38.91 -83.76 8.16 -38.47 30.76 -138.35 8.16 -132.78 -3.77 -43.43 -8.79 0 -6.27 26.68 -2.51 0 4.39 -26.68 -4.39 0 0 -11.79 -1.89 -2.48 1.89 -26.06 8.78 -38.47 0 -39.71 4.4 -35.36 13.18 -93.07 8.16 -35.36 8.79 -75.7 6.9 -79.41 1.88 -73.22 -4.39 -70.11 0 -27.92 4.39 -38.46 6.91 -25.44 1.88 -38.47 8.16 -13.03 8.79 -55.84 13.18 -35.98 25.73 -25.44 2.51 -13.03 6.28 -12.41 60.26 -49.64 30.75 0 73.44 173.73 19.46 41.57 19.46 56.46 15.06 24.82 6.28 43.43 0 40.33 26.36 166.9 3.76 85.62 13.19 55.22 17.57 47.15 8.16 55.84 11.3 -13.03 19.46 145.18 8.16 169.39 -4.4 51.49 -8.16 63.91 -8.79 128.43 -17.57 115.4 -27.62 122.85 -6.9 35.36 -8.16 34.13 -19.46 86.86 -23.85 49.64 -27.62 96.17 -7.53 42.81 3.14 0 1.25 14.89 0 1.86 59 -9.93 23.23 67.01 4.39 83.76 0 58.32 -5.65 14.89 14.44 -11.17 17.57 -40.33 0 -15.51 3.77 -14.27 4.39 -60.18 8.79 -9.93 2.51 -17.37 -4.39 -2.48 -2.51 0 13.18 -42.81 16.95 -57.08 35.15 -152.01 21.34 -27.92 -25.74 160.07 -4.39 45.3 -17.58 97.41 -32.01 117.88 1.88 51.5 -21.34 85.62 0 16.75 -8.78 10.55 -23.23 103.61 1.26 16.13 -48.96 113.54 -20.09 83.76 -34.52 85 -10.67 11.17 -16.94 42.19 -86.62 195.44 -67.16 149.53 -52.1 106.71 -38.92 81.28 -34.52 72.59 -52.09 72.6 -56.5 91.82 -55.86 85.62 -52.09 76.94 -48.96 76.93 -28.88 53.36 -4.39 35.99 -291.24 335.04 -93.52 118.5 -125.54 134.64 -64.65 89.96 -99.8 112.92 -23.22 19.86 -73.44 70.11 -69.04 68.25 -67.79 66.38 -34.52 31.65 -32.01 32.88 -69.05 61.42 -67.78 63.91 -142.49 122.23 -94.77 81.27 -39.55 27.3 -42.68 17.38 -8.79 11.16 2.51 4.35 -15.69 8.68 4.4 1.24 -6.28 22.96 -25.73 17.37 -50.22 35.37 -194.58 138.36 -142.48 89.34 -166.33 89.97 -97.29 51.49 -60.88 36.61 -52.1 24.82 -86.62 39.08 -25.73 17.38 -23.23 29.78 -24.48 14.89 -25.73 23.58 -43.31 19.23 -13.18 8.06 -40.17 24.2 -30.76 9.93 -45.82 23.58 -5.65 2.48 -6.9 2.48 -86.62 40.33 -519.08 207.85 -109.84 34.12 -90.39 29.78 -90.38 34.13 -155.67 44.67 -100.42 25.44 -101.06 24.19 -127.42 31.65 -30.12 11.16 -48.96 3.11 30.75 -9.93 80.97 -23.58 14.44 -4.34 15.69 -3.72 28.87 -11.17 55.87 -19.85 69.67 -14.9 -18.2 -3.72 -16.32 1.24 -45.2 17.38 -94.15 17.99 -94.77 25.44 -77.84 11.78 0 3.11 -15.06 8.06 -78.46 17.38 -32.01 25.43 -82.85 0 -84.74 8.69 -84.11 8.69 -85.99 9.92 -98.54 15.51 -112.35 11.17 -135.58 10.55 -89.13 25.44 -65.28 4.34 -64.65 -6.2 -33.89 -8.69 -180.14 21.1 -45.82 -1.87 -113.61 -4.34 -50.22 -6.2 -35.77 0 17.57 1.86 -34.52 10.55 -31.38 -1.87 0 4.35 -14.44 -4.35 -35.78 -4.34 -29.5 0 -49.58 -6.2 -51.47 1.86 -65.91 4.34 -377.86 -29.78 -1.88 6.82 -278.06 -45.29 -17.57 -4.34 -50.84 -6.21 -80.97 -15.51 -80.97 -12.41 -149.39 -30.4 -102.94 -22.95 -92.26 -19.24 -64.03 -24.19 -118 -35.99 -61.51 -18.61 -61.51 -18 -45.82 -14.89 -58.37 -21.09 -59.63 -21.72 -121.14 -39.71 -82.23 -34.12 -82.22 -41.57 -79.72 -34.12 -39.54 -8.07 -45.19 -13.03 -104.82 -45.29 -3.14 4.96 -8.16 -2.48 -6.91 0 -47.07 -25.44 -159.43 -73.21 -81.6 -35.37 -77.83 -42.81 -60.25 -24.19 -121.77 -61.43 -131.19 -79.41 -60.25 -29.79 -55.24 -35.98 -82.22 -60.81 -79.09 -37.84 -85.36 -55.22 -220.94 -156.97 -470.75 -367.31 -52.73 -38.46 -130.55 -117.89 -121.15 -114.78 -121.14 -117.88 -109.84 -108.58 -261.11 -293.47 -337.69 -436.17 -124.27 -185.52 -60.89 -91.82 -60.25 -94.31 -72.81 -138.36 -66.54 -101.13 -49.58 -91.21 -44.57 -75.69 -70.3 -138.98 -65.9 -140.22 -26.36 -45.29 -38.92 -62.67 -33.27 -78.79 -66.53 -151.39 -62.77 -152.01 -26.99 -81.28 -34.52 -63.9 -69.67 -165.04 -48.96 -172.48 -49.58 -160.08 -43.94 -220.88 -23.85 -95.54 -25.11 -94.31 -26.99 -173.11 -13.18 -145.8 -23.22 -145.18 -3.77 -155.73 8.16 -126.58 0.63 -88.1 17.57 -70.11 -1.88 -136.5 33.89 -519.31 54.61 -583.83 16.32 -162.56 9.41 -147.05 6.28 -50.87 16.32 -119.75 18.2 -113.54 39.55 -232.66 35.77 -139.6 46.45 -145.19 52.73 -187.99 43.93 -151.39 26.99 -79.42 33.9 -83.14 30.75 -75.07 38.29 -85.62 35.78 -79.42 27.62 -27.3 6.9 -13.03 21.97 -68.25 21.34 -30.4 60.26 -112.3 30.12 -53.98 33.27 -53.35 65.28 -104.86 70.92 -108.58 72.81 -96.79 68.42 -81.27 54.61 -29.79 -2.51 40.33 40.17 -40.33 29.5 19.86 -13.18 52.74 8.16 -15.51 8.78 -14.27 12.56 -14.9 12.55 -12.4 109.84 -143.95 116.75 -170.62 72.18 -98.65 35.78 -31.64 71.55 -77.56 3.14 4.97 13.81 -15.52 -11.3 58.33 -24.48 48.39 -26.99 55.84 -69.67 119.75 -27.61 98.03 5.64 4.34 -30.12 79.42 -18.83 66.38 -59.63 136.5 -72.18 149.53 -33.27 64.52 -29.5 66.39 -47.7 121.61 -11.3 32.26 2.51 1.86 -5.02 15.51 -1.89 16.76 1.26 22.95 -28.25 147.05 31.39 -3.1 -6.91 14.27 -1.25 17.37 -30.13 89.96 -16.95 49.64 -15.69 25.44 -15.69 29.78 -37.03 35.98 3.76 0 33.27 -35.98 31.38 -55.22 -10.67 44.05 -6.28 14.89 -3.76 6.82 -5.65 8.07 5.65 -8.07 3.76 -6.82 -9.41 32.26 -3.14 14.27 42.06 0 35.77 -37.22 59.63 -146.43 68.42 -142.7 47.7 -85.62 22.6 -55.22 28.24 -53.36 54.61 -102.37 110.47 -197.92 55.23 -95.55 30.76 -55.22 203.99 -286.65 59 -53.35 18.83 -29.79 80.35 -96.16 80.34 -87.49 160.05 -147.66 18.21 -6.21 64.02 -58.32 59 -47.15 57.12 -38.47 62.14 -44.05 102.93 -49.64 170.1 -119.74 161.94 -149.53 82.23 -70.11 40.8 -38.47 39.54 -34.12 70.3 -58.32 112.98 -85.62 108.59 -83.14 73.43 -57.7 74.07 -55.84 152.52 -102.38 18.21 -4.34 27.61 -18.61 103.57 -69.49 58.37 -20.48 12.56 20.48 132.43 -50.26 70.3 -2.48 12.56 -4.34 31.38 46.53 -93.52 111.68 1.88 88.1 64.02 -38.47 25.11 -15.51 62.14 -40.33 11.92 -11.16 60.89 -35.99 162.56 -93.69 83.49 -47.15 82.85 -47.15c197.09,-105.48 399.82,-194.82 627.67,-284.79l295.63 -104.23 29.5 -13.03 512.81 -126.57 59 -9.93 111.72 -19.85 112.36 -16.75 112.35 -14.9 110.47 -9.3 65.28 -6.21 147.5 4.35 29.5 19.85 96.04 14.27 121.76 6.21 101.69 11.16 132.43 16.76 118.01 32.88 103.56 37.23 74.7 6.82 72.8 7.45 141.86 16.75 106.7 14.27 69.05 26.06 111.09 36.6 96.67 17.38 95.4 18.61 191.44 42.81 27.62 19.85 25.73 8.07 -2.51 8.69 15.69 1.86 70.3 21.09 38.29 19.24 65.28 39.08 136.83 35.99 140.6 38.47 1.25 -1.86 25.11 0c214.04,49.01 404.85,112.92 616.37,208.46l127.42 58.33 95.41 36.6 94.77 44.67 289.99 145.19 121.14 72.59 129.3 75.69 301.28 195.44 69.04 47.78 62.14 47.15 125.54 99.89 69.04 62.67 69.05 52.73 21.96 19.24 121.14 116.02 58.38 57.7 58.37 59.57 -4.39 4.34 121.14 140.84 25.73 68.87 8.79 14.89 13.18 26.06 64.65 95.55 82.23 96.78 16.94 25.44 112.98 142.71 38.92 81.27 62.77 89.97 1.88 15.51 13.18 20.47 8.79 13.65 3.76 -2.48 78.46 111.06 71.56 109.2 14.43 22.95 13.18 28.55 4.4 12.4 91.01 150.15 42.68 75.7 39.55 75.69 237.26 549.71 0 63.91 39.54 108.58 37.03 112.92 40.17 150.14 26.36 130.3 25.74 117.88 4.39 89.97 -25.73 -49.64 -38.92 -132.77 -40.8 -129.68 -11.29 -39.71 -34.53 -93.06 -36.4 -93.69 -54.61 -42.81 -8.79 20.47 7.54 109.2 18.83 68.25 155.66 541.65 12.55 57.08 11.3 55.84 23.85 106.72 16.95 53.97 30.13 170.63 15.69 83.14 10.67 85.62 12.55 187.99 -3.76 79.42 6.9 88.72 1.26 52.12 4.39 51.5 -4.39 89.96 -16.95 78.8 -8.79 14.89 -21.34 27.92 0 12.41 -30.76 -89.97z"/>
   <polygon class="fil3" points="16163.85,16908.87 16172.01,16900.18 16176.4,16872.88 16168.25,16883.43 "/>
   <path class="fil4" d="M10136.96 14621.91c0,-425.62 0,-850.63 0,-1273.77 252.32,0 504.02,0 760.11,0l5.02 -37.22 0 -527.38 11.92 -491.39c16.95,-229.57 66.54,-451.07 172.61,-658.29 149.39,-302.16 397.95,-496.36 716.18,-604.94l463.22 -89.34 354 -13.03c308.82,-2.48 620.14,-2.48 931.47,-2.48l34.52 34.12c0,404.53 0,805.96 0,1209.87l-34.52 34.12c-226.59,0 -453.81,0 -679.77,4.35l-194.58 27.92 -226.59 262.44 -12.55 329.46 -3.77 490.15 2.51 31.64c386.65,0 768.9,0 1156.17,0 -45.82,423.14 -89.13,848.15 -136.83,1273.77l-34.52 0c-315.72,0 -634.58,0 -954.69,0l-32.64 31.64c0,1208.01 0,2415.39 0,3623.39l0 40.95c-512.18,0 -1019.96,0 -1532.14,0l0 -45.29c0,-1198.7 0,-2399.87 0,-3602.29l-52.73 -45.92c-224.07,-2.48 -451.29,-2.48 -677.88,-2.48l-34.52 0z"/>
  </g>
 </g>
</svg>
