<?xml version="1.0" encoding="UTF-8"?>
<!DOCTYPE svg PUBLIC "-//W3C//DTD SVG 1.1//EN" "http://www.w3.org/Graphics/SVG/1.1/DTD/svg11.dtd">
<!-- Creator: CorelDRAW -->
<svg xmlns="http://www.w3.org/2000/svg" xml:space="preserve" width="210mm" height="297mm" version="1.1" style="shape-rendering:geometricPrecision; text-rendering:geometricPrecision; image-rendering:optimizeQuality; fill-rule:evenodd; clip-rule:evenodd"
viewBox="0 0 21000 29700"
 xmlns:xlink="http://www.w3.org/1999/xlink"
 xmlns:xodm="http://www.corel.com/coreldraw/odm/2003">
 <defs>
  <style type="text/css">
   <![CDATA[
    .fil1 {fill:url(#id0)}
    .fil3 {fill:url(#id1)}
    .fil5 {fill:url(#id2)}
    .fil4 {fill:url(#id3)}
    .fil0 {fill:url(#id4)}
    .fil2 {fill:url(#id5)}
   ]]>
  </style>
  <linearGradient id="id0" gradientUnits="userSpaceOnUse" x1="16419.39" y1="15709.54" x2="16499.73" y2="15630.74">
   <stop offset="0" style="stop-opacity:1; stop-color:#E59939"/>
   <stop offset="0.25098" style="stop-opacity:1; stop-color:#F2CF6A"/>
   <stop offset="0.529412" style="stop-opacity:1; stop-color:#E6A33D"/>
   <stop offset="0.831373" style="stop-opacity:1; stop-color:#D98A39"/>
   <stop offset="1" style="stop-opacity:1; stop-color:#F2CF6A"/>
  </linearGradient>
  <linearGradient id="id1" gradientUnits="userSpaceOnUse" xlink:href="#id0" x1="16157.66" y1="16906.99" x2="16184.65" y2="16880.32">
  </linearGradient>
  <linearGradient id="id2" gradientUnits="userSpaceOnUse" xlink:href="#id0" x1="13601.28" y1="15410.49" x2="14970.17" y2="14057.3">
  </linearGradient>
  <linearGradient id="id3" gradientUnits="userSpaceOnUse" xlink:href="#id0" x1="8832.47" y1="16494.4" x2="11971.3" y2="13243.28">
  </linearGradient>
  <linearGradient id="id4" gradientUnits="userSpaceOnUse" xlink:href="#id0" x1="11539.49" y1="21229" x2="11597.23" y2="21171.3">
  </linearGradient>
  <linearGradient id="id5" gradientUnits="userSpaceOnUse" xlink:href="#id0" x1="5991.78" y1="19337.27" x2="15213.69" y2="10221.1">
  </linearGradient>
 </defs>
 <g id="Camada_x0020_1">
  <metadata id="CorelCorpID_0Corel-Layer"/>
  <g id="_2909019764544">
   <polygon class="fil0" points="11515.01,21205.43 11597.23,21205.43 11614.18,21192.4 "/>
   <polygon class="fil1" points="16471.48,15671.69 16473.36,15605.3 16463.32,15617.71 16443.24,15676.04 16441.98,15731.88 "/>
   <path class="fil2" d="M16312.69 12894.59l-8.79 -21.1 4.4 23.58 4.39 -2.48zm55.23 -262.45l-6.9 -27.92 -2.51 0 9.41 27.92zm69.04 -190.48l-9.41 -42.81 4.39 47.16 5.02 -4.35zm-97.91 -47.15l-30.75 -59.56 -16.32 -21.72 16.32 21.72 30.75 59.56zm-117.37 34.12l-6.9 4.35 6.9 -4.35zm-78.45 49.64l2.51 -16.75 -17.58 -35.37 15.07 52.12zm190.17 -197.3l11.93 6.82 -18.83 -38.46 -13.18 -35.99 13.18 35.99 6.9 31.64 -6.9 4.96 6.9 -4.96zm55.23 -119.13l-6.9 -11.16 3.14 13.03 3.76 -1.87zm-427.42 147.05l-0.63 -22.96 0 -8.68 -6.27 -8.07 6.27 16.75 0.63 22.96zm31.38 -320.15l-5.02 -30.4 -15.69 -8.07 7.53 12.41 13.18 26.06zm-167.58 -55.84l-4.39 -15.51 -5.65 4.96 10.04 10.55zm-225.32 -390.88l-1.88 -15.51 -18.83 -21.1 20.71 36.61zm-163.19 -23.58l-19.45 -21.71 16.94 21.71 2.51 0zm260.47 -465.95l-8.16 -26.06 -3.13 2.48 11.29 23.58zm-278.67 -68.87l25.11 11.17 -25.11 -11.17 -31.38 -25.44 33.26 38.47 -1.88 -13.03zm-87.24 -12.41l-4.39 -17.37 -13.81 -4.34 18.2 21.71zm-343.32 -17.37l-29.5 -27.3 16.32 21.1 13.18 6.2zm202.1 -565.84l-43.93 -32.89 16.31 21.72 27.62 11.17zm-430.56 125.33l-25.11 -19.24 -4.39 -3.72 4.39 3.72 5.03 8.07 20.08 11.17zm-331.39 -22.96l-5.03 -11.17 -9.41 -5.58 14.44 16.75zm88.49 -346.21l-42.68 -38.47 42.68 38.47zm-72.8 -479.6l-30.13 -27.3 30.13 27.3zm-227.84 117.88l-5.02 -12.41 10.67 -24.19 -10.67 24.19 5.02 12.41zm-197.08 164.42l-52.09 -14.89 -28.87 -8.07 -23.85 -10.54 -10.04 -6.83 -47.08 -21.09 57.12 27.92 23.85 10.54 80.96 22.96zm176.37 -402.05l29.5 22.34 -0.63 14.27 0.63 -14.27 -3.14 -4.34 2.51 -2.49 -28.87 -15.51zm-478.89 488.29l-13.18 -6.82 13.18 6.82zm-173.85 -838.22l-26.99 -6.82 10.67 6.82 16.32 0zm-168.84 288.51l-55.23 -17.37 53.35 21.71 1.88 -4.34zm-434.33 -485.81l-137.45 -41.57 137.45 41.57zm-16.32 55.84l-19.45 -8.68 -3.14 4.96 22.59 3.72zm-82.84 94.93l0 -5.58 -13.18 -5.59 0 4.35 13.18 6.82zm-8.16 120.99l-83.48 -25.44 -24.48 -13.03 -30.75 -4.34 -111.72 -19.24 48.33 11.17 63.39 8.07 55.23 17.37 83.48 25.44zm-215.28 613l-60.88 -9.93 10.67 4.34 23.85 8.69 26.36 -3.1zm-225.33 -37.23l-82.22 -21.72 -77.82 -27.92 77.82 27.92 69.67 17.38 12.55 4.34zm-19.45 29.16l-12.56 0 12.56 0zm-11.93 -544.75l0.63 -8.69 -12.55 0 11.92 8.69zm64.02 -431.83l13.81 2.48 21.97 -2.48 37.03 6.83 -37.03 -6.83 -35.78 0zm-251.06 485.81l-21.96 -11.17 -29.5 4.34 -24.48 -1.86 -51.47 -6.82 -40.16 -1.86 -61.51 -4.35 -82.22 -4.34 -89.13 -8.07 -25.73 -7.44 -35.15 1.86 -26.99 -1.86 -26.99 -1.24 -48.95 1.24 -220.93 0 -195.2 11.17 -13.18 6.2 -38.29 8.69 -87.24 2.48 -41.42 8.69 -73.44 5.58 -75.94 11.17 -13.18 0 -13.18 3.72 -48.96 8.69 -191.43 32.26 -57.11 11.17 -61.51 9.92 -124.9 26.06 -88.5 25.44 -25.73 6.83 -75.32 29.78 -77.2 27.3 -1.88 0 -24.48 8.68 -22.59 4.35 -49.59 15.51 37.03 -8.69 35.15 -11.17 26.36 -8.68 60.88 -14.27 59.63 -19.86 380.35 -91.2 541.65 -79.42 82.22 -6.2 80.97 -6.83 160.05 -6.2 159.42 -3.73 161.3 0 40.17 5.59 25.11 6.82 64.01 4.35 51.47 0 77.83 6.2 38.28 4.34 13.18 2.49 0.63 -2.49 23.23 0 42.67 3.73 23.85 3.1zm-691.65 335.04l-8.79 -4.35 8.79 13.03 0 -8.68zm-128.67 -28.54l-52.09 -1.24 -34.52 3.72 86.61 -2.48zm-194.57 -91.21l-24.48 6.83 -24.47 3.1 22.59 -3.1 1.26 0 25.1 -6.83zm-470.73 68.25l-13.18 4.34 1.26 1.87 11.92 -6.21zm-456.92 70.11l-23.22 -1.86 21.96 10.55 -38.91 32.26 38.91 -32.26 15.07 -6.21 -13.81 -2.48zm-274.91 -266.79l22.6 -6.82 -36.41 6.82 13.81 0zm-231.6 -822.09l-54.6 8.07 40.8 0 13.8 -8.07zm80.34 385.92l-52.72 4.34 0.63 2.48 52.09 -6.82zm-136.82 -256.24l-14.44 4.34 16.32 2.48 -1.88 -6.82zm141.21 -171.25l4.4 3.11 22.59 5.58 3.14 2.48 15.69 -4.34 -18.83 1.86 -22.59 -5.58 11.92 -4.35 -16.32 1.24zm91.01 212.2l0 0 30.13 -13.03 -30.13 13.03zm34.52 6.2l30.13 4.34 2.51 6.83 -2.51 -6.83 -30.13 -4.34zm117.37 290.37l15.07 -1.24 13.8 -8.69 -28.87 9.93zm60.88 -351.79l39.54 -11.17 -11.29 -4.35 -16.32 0 -11.93 15.52zm80.34 -56.46l30.13 -6.21 9.41 -8.69 -39.54 14.9zm102.93 -201.03l89.76 -10.55 -89.76 10.55zm156.29 404.53l81.59 -13.03 -52.09 2.48 -29.5 7.45 0 3.1zm15.69 -235.15l16.32 0 11.92 -1.86 -28.24 1.86zm205.24 583.84l24.47 -6.82 -10.67 1.86 -13.8 4.96zm2.51 -128.43l48.95 -4.97 -38.91 -6.2 -10.04 11.17zm-11.3 -106.72l37.66 1.86 57.11 -4.34 -94.77 2.48zm281.81 -379.09l30.13 -12.41 -30.13 12.41zm79.71 698.62l37.03 -1.86 -37.03 1.86zm84.73 -527.38l10.04 2.49 -10.04 -2.49zm-33.89 -147.04l30.12 4.34 28.88 6.21 -28.88 -6.21 -13.8 -4.34 -16.32 0zm145.61 373.51l14.44 1.86 0 -1.86 -14.44 0zm-70.92 -279.2l55.23 -8.69 57.74 1.86 -41.42 -1.86 -16.32 0 -55.23 8.69zm281.81 46.53l59.62 -13.65 -45.19 0 -14.43 13.65zm121.76 134.64l10.67 2.48 30.13 -11.17 -40.8 8.69zm69.04 207.84l6.28 3.73 0.62 -3.73 -6.9 0zm141.85 1.24l13.8 -1.24 -19.45 -11.16 5.65 12.4zm352.1 -324.49l25.11 8.07 -10.04 -3.72 -15.07 -4.35zm47.7 375.99l13.81 1.86 14.44 0 -28.25 -1.86zm-2460.97 329.46l-23.85 3.72 -6.28 6.2 -12.55 13.65 12.55 -13.65 30.13 -9.92zm-133.69 -327.6l23.85 -1.86 -55.23 1.86 31.38 0zm-187.66 -456.64l-104.82 25.43 -13.18 0 -15.06 10.55 -24.48 8.69 -13.81 6.82 13.81 -6.82 24.48 -8.69 28.24 -10.55 104.82 -25.43zm-33.9 223.98l-30.12 11.16 4.39 9.93 25.73 -21.09zm89.75 611.13l-20.71 14.89 13.18 -3.72 7.53 -11.17zm-153.77 -47.15l-8.78 3.1 -4.4 1.24 4.4 -1.24 10.04 0 -1.26 -3.1zm38.92 179.93l-39.54 8.68 3.13 9.93 36.41 -18.61zm-65.91 45.29l-42.05 27.3 13.18 -1.86 28.87 -25.44zm-330.76 -519.93l-13.81 6.82 0.63 1.87 13.18 -8.69zm158.16 370.4l-72.8 34.13 18.2 5.58 54.6 -39.71zm192.06 482.71l-12.55 3.72 12.55 0 0 -3.72zm-664.67 -1020.01l-11.92 8.69 13.8 -4.35 -1.88 -4.34zm319.47 709.79l-14.44 25.43 9.42 0 4.39 4.35 -1.88 -4.35 -2.51 0 5.02 -25.43zm-269.26 -8.69l-13.81 -4.34 -10.04 11.17 15.69 -2.49 8.16 -4.34zm-146.24 459.13l-35.15 13.65 14.44 6.2 20.71 -19.85zm-311.94 -392.12l17.58 -8.69 -17.58 8.69 -46.44 27.3 15.06 -4.35 31.38 -22.95zm478.27 814.02l-10.05 8.07 -37.65 24.19 -26.37 20.48 74.07 -52.74zm-357.76 -369.78l53.35 -55.22 -10.67 5.58 -39.54 30.4 -3.14 19.24zm-246.66 -491.4l13.81 -8.68 5.65 -8.69 -19.46 17.37zm277.42 561.51l-18.21 21.71 -38.91 23.58 33.27 -16.75 5.64 -6.83 18.21 -21.71zm-217.17 -209.09l-32.63 25.43 13.18 -4.34 19.45 -21.09zm-392.27 -431.83l25.73 -19.24 -13.81 8.69 -11.92 10.55zm-45.19 -64.53l-15.69 4.35 -8.79 8.68 24.48 -13.03zm-75.95 13.03l-11.29 13.03 12.55 -8.69 -1.26 -4.34zm-77.2 96.79l-45.81 40.33 26.98 -17.37 18.83 -22.96zm-128.66 -122.23l11.29 -10.54 94.15 -70.74 -82.22 59.57 -11.93 11.17 -87.87 83.13 76.58 -72.59zm-2.51 327.6l-10.05 12.41 13.18 -11.17 -3.13 -1.24zm-77.83 -45.3l-54.61 55.22 13.81 -9.92 44.56 -41.57 -3.76 -3.73zm692.29 931.91l-18.83 12.41 4.39 4.34 14.44 -16.75zm102.3 153.87l-110.46 115.4 110.46 -115.4zm-933.93 -1180.08l25.11 -19.86 -26.36 17.38 1.25 2.48zm-168.2 413.21l-11.93 9.93 11.93 -9.93zm580.56 636.58l-9.41 8.68 9.41 -8.68zm-59.62 102.99l-9.42 3.1 -8.78 26.68 6.9 -6.82 11.3 -22.96zm-132.44 42.19l77.83 -64.52 -87.87 75.07 10.04 -10.55zm-763.83 -652.08l55.23 -51.5 -12.55 8.68 -42.68 42.82zm0 -125.95l15.06 -10.55 -3.77 -1.86 -11.29 12.41zm276.79 201.02l11.29 -11.17 -3.13 -1.24 -8.16 12.41zm-229.72 141.46l-15.06 18.61 -7.54 8.69 -32 34.12 -114.24 100.52 114.24 -100.52 26.98 -22.95 5.02 -11.17 7.54 -8.69 15.06 -18.61zm1112.81 1080.19l-55.86 62.67 15.06 -15.51 40.8 -47.16zm-888.74 -698l2.51 2.48 6.9 -15.51 -9.41 13.03zm-212.77 -142.7l-25.11 11.79 -10.67 13.65 35.78 -25.44zm128.66 159.46l25.11 -29.79 30.13 -51.49 -55.24 81.28zm566.76 480.84l-10.04 26.06 10.04 -26.06zm250.43 222.74l-14.43 38.47 -34.53 47.15 12.56 -15.51 21.97 -31.64 14.43 -38.47zm154.4 168.76l-4.39 9.93 5.65 -8.07 -1.26 -1.86zm-1323.06 -959.21l8.78 -5.58 9.42 -27.3 -18.2 32.88zm266.74 108.58l2.51 0 -2.51 0zm-672.83 -521.79l25.11 -21.1 -13.81 8.07 -11.3 13.03zm302.52 124.09l47.08 -74.46 2.51 -2.48 76.57 -91.82 -79.08 94.3 -47.08 74.46zm498.35 683.73l-18.83 19.23 11.93 -8.69 6.9 -10.54zm-489.56 -335.66l6.91 -14.9 -6.91 14.9 -8.16 13.64 -3.76 11.79 11.92 -25.43zm1325.58 1052.27l-16.95 22.95 -18.83 27.3 18.83 -27.3 16.95 -22.95zm-936.44 -592.53l-38.29 51.5 -9.41 12.41 47.7 -63.91zm-451.27 -205.36l13.8 -19.24 -13.8 19.24zm623.24 478.98l-11.92 4.34 -8.79 13.03 20.71 -17.37zm333.28 228.94l-8.16 6.21 3.76 2.48 4.4 -8.69zm-732.46 -602.45l14.44 -2.48 8.79 -27.3 -23.23 29.78zm-863.63 -334.42l-25.73 39.09 26.99 -23.58 -1.26 -15.51zm276.79 410.74l-48.33 124.71 38.91 -71.36 16.32 -50.87 -6.9 -2.48zm422.4 258.72l-19.46 21.72 11.3 -10.55 8.16 -11.17zm-253.57 -136.5l-10.67 11.17 -3.13 14.27 13.8 -25.44zm1292.94 782.38l-9.41 8.07 -15.69 38.47 25.1 -46.54zm-163.18 -37.22l-27.62 22.33 -25.11 22.96 0 2.48 -4.39 4.34 -9.41 12.41 -5.65 10.55 5.65 -10.55 9.41 -12.41 4.39 -6.82 16.32 -12.41 8.79 -10.55 27.62 -22.33zm-658.4 -271.14l2.51 -8.06 -57.74 53.36 1.88 13.02 53.35 -58.32zm341.44 327.6l-8.16 10.54 2.51 2.49 5.65 -13.03zm-652.12 -502.56l10.67 -4.35 -5.02 -4.34 -5.65 8.69zm669.69 341.86l20.71 -1.86 5.03 -25.44 -25.74 27.3zm-1308 -716.61l20.71 -41.57 -15.06 25.44 -5.65 16.13zm1066.36 829.53l-3.77 8.69 12.56 -3.72 -8.79 -4.97zm-259.84 -93.06l-1.89 9.92 1.89 -9.92zm-406.71 -160.7l16.32 -22.95 -7.54 -5.59 -8.78 28.54zm-150.64 -107.34l-9.41 11.17 -6.28 42.81 15.69 -53.98zm-178.25 6.21l-4.39 15.51 6.28 -15.51 -1.89 0zm842.92 441.13l-31.38 65.77 31.38 -65.77zm387.89 273.62l0 13.03 5.64 -11.17 -5.64 -1.86zm274.27 123.47l-11.92 43.43 11.92 -43.43zm-1351.93 -451.06l-20.71 34.12 -1.89 0 -6.9 11.17 6.9 -11.17 1.89 0 15.69 -21.09 5.02 -13.03zm898.15 408.87l1.26 14.89 -1.26 -14.89zm-1145.44 -470.3l11.3 -8.68 -0.63 -18 -10.67 26.68zm-569.9 -169.38l-10.67 13.03 10.67 -13.03zm1816.39 754.46l0 -10.55 -2.51 10.55 2.51 0 0 2.48 -6.28 32.26 6.28 -32.26 5.02 -11.17 -5.02 8.69zm-2038.57 -758.8l-9.42 15.51 -42.68 104.23 42.68 -104.23 9.42 -15.51zm1874.13 853.73l-10.67 32.88 10.67 -32.88zm-2246.95 -924.46l6.27 -16.13 -10.04 14.27 3.77 1.86zm1311.14 635.33l-24.48 65.77 11.3 -11.79 13.81 -38.47 -0.63 -15.51zm792.08 312.08l-5.65 6.83 6.9 17.37 -1.25 -24.2zm-536.01 -135.25l-0.62 15.51 0.62 -15.51zm523.46 216.53l-10.67 21.1 7.53 -12.41 3.14 -8.69zm-381.61 -74.45l-8.79 48.39 8.16 -22.95 0.63 -25.44zm530.36 171.24l-16.95 29.78 1.88 0 15.07 -29.78zm-1066.36 -289.12l-25.11 68.24 10.04 2.49 15.07 -70.73zm-436.84 -24.2l3.77 -31.64 -3.14 17.37 -0.63 14.27zm1591.07 490.15l-9.42 23.57 1.89 0 7.53 -23.57zm-205.87 -22.96l2.51 -8.68 0 -13.03 -6.9 35.98 2.51 -8.68 1.88 -5.59zm-1212.6 -266.17l-4.39 28.54 2.51 14.89 1.88 -43.43zm189.55 112.3l-2.51 52.74 10.04 -52.74 -7.53 0zm1054.43 305.26l0 9.93 1.89 -8.69 -1.89 -1.24zm-2001.54 -470.3l4.39 -17.37 0 -13.03 -4.39 30.4zm190.17 45.3l-16.31 95.54 18.2 -59.56 -1.89 -35.98zm-538.51 -361.72l4.39 -15.51 0.63 -1.86 50.21 -183.66 6.28 -34.12 -15.69 53.98 -13.18 50.87 -28.25 114.79 -4.39 15.51zm719.27 -10.55l5.65 49.02 -5.65 -49.02zm615.09 268.65l31.38 -93.06 -1.25 -15.52 -30.13 108.58zm692.92 669.46l-6.28 45.29 -3.14 1.86 -10.04 21.1 13.18 -22.96 9.41 -45.29 -3.13 0zm25.1 4.34l-2.51 12.41 2.51 47.16 7.53 -9.93 -7.53 -49.64zm-1206.95 -155.73l-13.81 42.81 10.04 -15.51 3.77 -27.3zm780.16 241.35l-5.02 11.17 8.78 14.27 -3.76 -25.44zm-1702.79 -262.44l-6.91 50.25 6.28 -17.37 0.63 -32.88zm1479.35 315.18l-10.05 39.09 25.11 -34.12 -15.06 -4.97zm777.01 112.3l-5.02 21.1 -16.31 67.63 -0.63 11.16 0.63 -11.16 16.31 -67.63 3.77 -11.17 1.25 -9.93zm-1007.99 -32.88l-3.13 38.47 8.16 -22.96 -5.03 -15.51zm-1360.72 -202.27l6.91 -19.85 -6.91 19.85zm2217.45 268.04l-5.02 37.22 6.28 0 1.25 -49.01 -2.51 11.79zm-713.62 -117.27l-1.26 42.81 -1.25 28.54 2.51 0 -1.26 -28.54 1.26 -42.81zm192.05 161.32l-2.51 27.3 13.18 -26.06 -10.67 -1.24zm94.15 11.79l-5.02 15.51 0 -1.86 -2.51 35.98 0 78.8 0 -78.8 2.51 -34.12 5.02 -15.51zm-1067.61 -85l1.25 -14.9 -3.14 -1.86 1.89 16.76zm1217.62 290.98l-4.4 14.27 -1.88 11.17 6.28 -25.44zm-105.45 44.68l2.51 21.09 20.09 -21.09 -22.6 0zm442.49 186.13l0 42.81 -3.14 22.96 4.39 -11.17 -1.25 -11.79 0 -42.81zm-82.22 183.03l2.51 36.61 7.53 -25.44 -7.53 -11.17 -2.51 0zm-85.99 55.84l0 14.89 0 -14.89zm-1141.68 49.01l0 30.41 5.03 -15.52 -5.03 -14.89zm1297.34 14.89l-4.4 8.69 14.44 19.23 8.79 51.5 6.9 -47.15 -25.73 -32.27zm-882.47 58.33l0.63 6.82 -0.63 -6.82 -1.88 -21.72 0 28.54 1.88 -6.82zm-3.76 157.59l1.88 10.55 -1.88 -10.55zm1012.38 8.68l-8.16 10.55 10.67 32.27 -2.51 -42.82zm-782.04 149.53l11.3 68.87 -11.3 -68.87zm35.78 81.28l1.25 24.2 6.28 -38.47 -7.53 14.27zm345.83 -22.96l-9.42 14.89 6.91 0 2.51 -14.89zm-455.67 31.65l-8.16 -55.22 2.51 16.75 5.65 38.47zm-38.91 166.9l3.14 11.16 0.62 1.86 20.72 79.42 -0.63 -13.65 -18.2 -65.77 -5.65 -13.02zm873.04 -106.72l1.26 8.06 2.51 0 -3.77 -8.06zm-247.91 89.34l7.53 11.17 -4.39 -11.17 -3.14 0zm-977.24 279.82l5.65 43.43 2.51 -45.29 -8.16 1.86zm32.01 24.2l8.16 27.92 -3.77 -27.92 -4.39 0zm1539.6 -245.7l11.93 145.19 0 3.72 1.88 25.44 14.44 28.54 -16.32 -57.7 -5.02 -70.73 -3.77 -34.13 -3.14 -40.33zm-1294.19 472.16l-3.14 16.75 5.65 11.17 -2.51 -27.92zm320.09 12.41l0.63 15.51 12.56 20.48 -13.19 -35.99zm316.34 -59.56l8.78 47.15 3.77 -10.55 -10.04 -36.6 -2.51 0zm189.54 -192.34l-5.02 -21.71 -3.76 2.48 8.78 19.23zm-1778.1 547.23l-43.31 -142.7 -42.68 -143.94 2.51 15.51 21.34 70.11 20.71 72.59 28.25 92.45 13.18 35.98 126.15 384.68 -55.23 -172.49 -18.2 -49.63 -16.32 -53.36 -36.4 -109.2zm2100.71 -343.72l6.28 9.92 -6.28 -9.92zm-6.28 -34.13l19.46 39.71 -19.46 -39.71zm-1609.27 511.87l70.93 201.02 -70.93 -201.02zm751.29 -58.94l-6.9 14.27 18.2 21.71 -11.3 -35.98zm-922 286.64l-32.01 -73.83 12.55 31.02 19.46 42.81zm799.61 -883.51l-4.39 -11.17 2.51 11.17 1.88 0zm962.17 577.01l8.16 21.72 1.88 -15.51 -10.04 -6.21zm-2192.34 849.39l13.8 25.44 2.51 1.86 -2.51 -1.86 -10.04 -25.44 -3.76 0zm10.66 86.86l6.91 15.51 3.14 0 -10.05 -15.51zm858.62 -303.4l8.78 15.51 -5.02 -15.51 -3.76 0zm638.93 -239.49l1.89 13.03 6.9 -1.86 -8.79 -11.17zm37.66 71.35l12.56 38.47 1.88 -13.65 -14.44 -24.82zm1057.58 -415.07l0.62 6.2 4.4 14.27 -4.4 -14.27 -0.62 -6.2zm-942.09 427.48l21.97 62.05 -5.03 -41.57 -16.94 -20.48zm-393.53 219.64l-4.4 32.88 5.65 14.27 -1.25 -47.15zm470.1 -50.88l7.53 11.17 -5.02 -13.65 -2.51 2.48zm478.89 -28.54l18.83 31.02 -5.02 -11.16 -11.93 -19.86 -1.88 0zm221.56 -55.22l6.9 22.34 2.51 -3.1 -9.41 -19.24zm-686.64 491.39l8.16 13.65 -3.77 -13.65 -4.39 0zm90.38 -45.91l15.69 22.96 -13.18 -22.96 -2.51 0zm251.05 -75.69l21.34 31.64 -10.04 -20.47 -11.3 -11.17zm333.91 -163.8l36.4 58.94 7.53 13.65 -43.93 -72.59zm-1063.85 730.88l18.2 20.48 -15.06 -24.82 -3.14 4.34zm525.96 -224.6l8.79 11.17 -6.91 -13.03 -1.88 1.86zm38.92 52.74l4.39 13.65 11.3 13.03 -8.79 -13.03 -6.9 -13.65zm365.91 -219.64l-1.26 15.51 13.81 21.1 -0.63 -13.03 -11.92 -23.58zm-10.67 21.1l2.51 15.51 13.81 20.47 -16.32 -35.98zm813.42 -454.79l3.14 10.55 3.77 -2.48 -6.91 -8.07zm-2553.24 1171.4l-10.04 -15.51 10.04 15.51zm704.84 98.65l18.83 27.3 1.88 -1.86 -20.71 -25.44zm1670.78 -899.02l18.2 45.29 5.02 6.83 -23.22 -52.12zm-773.88 614.24l-15.69 -21.72 -9.42 -12.41 15.69 25.44 9.42 8.69zm497.72 -318.29l6.27 6.2 -3.13 -8.68 -3.14 2.48zm-1440.44 1083.29l15.07 28.54 15.69 9.93 -30.76 -38.47zm1855.31 -1239.64l3.76 8.68 -0.62 -13.03 -3.14 4.35zm-218.42 220.26l0 14.89 51.47 66.38 -32.01 -42.81 -19.46 -38.46zm303.78 -75.08l9.41 17.37 13.81 18.62 -23.22 -35.99zm-608.81 421.9l-26.37 -31.02 12.56 22.34 13.81 8.68zm-1255.28 943.7l-7.54 -11.79 7.54 11.79zm1278.5 -1042.35l-13.18 -8.68 10.67 10.54 2.51 -1.86zm222.18 262.45l8.16 8.69 12.55 8.68 -20.71 -17.37zm416.13 -303.4l5.02 8.69 5.65 -4.34 -10.67 -4.35zm-254.2 260.59l-8.78 -8.69 -1.89 0 10.67 8.69zm602.54 -474.64l6.9 11.17 3.14 -4.34 -10.04 -6.83zm-918.24 872.34l64.65 70.11 -32.64 -41.57 -32.01 -28.54zm206.49 -72.59l40.17 21.1 -40.17 -21.1zm-80.33 196.68l11.92 6.83 -8.16 -8.69 -3.76 1.86zm-628.9 666.98l9.42 15.51 -9.42 -15.51zm26.36 0l47.08 35.98 4.39 0 33.89 30.41 -11.3 -8.69 -22.59 -21.72 -51.47 -35.98zm55.23 -13.03l11.93 13.03 11.3 6.82 14.43 8.69 -37.66 -28.54zm1414.08 -1409.03l30.12 35.37 17.58 9.93 -47.7 -45.3zm110.46 -80.03l24.48 21.09 18.83 8.69 -43.31 -29.78zm-228.46 317.66l-11.92 -4.34 8.78 8.69 3.14 -4.35zm-176.37 117.27l-3.13 -3.73 -3.77 -4.96 3.77 4.96 0.62 8.69 2.51 -4.96zm-1520.14 1268.18l-65.27 -55.84 -19.46 -4.34 84.73 60.18zm316.96 -523.65l-67.79 -62.05 -47.07 -40.32 114.86 102.37zm158.79 818.36l75.95 66.39 52.09 40.33 13.81 6.82 -141.85 -113.54zm321.35 -320.77l13.81 8.69 -11.92 -11.17 -1.89 2.48zm1266.58 -1466.1l23.22 25.43 17.58 11.17 -40.8 -36.6zm-1184.98 1492.16l11.92 10.55 2.51 -2.48 -14.43 -8.07zm718.02 -890.95l45.81 59.56 -45.81 -59.56zm-3.14 119.74l44.56 25.44 -18.2 -13.03 -26.36 -12.41zm-180.76 416.32l11.3 8.06 11.29 8.69 -9.41 -12.41 -13.18 -4.34zm317.58 -403.91l11.3 6.2 72.18 51.5 115.49 72.59 25.1 14.89 23.22 8.69 -48.32 -23.58 -62.14 -40.33 -21.97 -13.02 -31.38 -19.24 -83.48 -57.7zm473.87 -472.78l12.55 21.72 -1.88 -19.24 -10.67 -2.48zm-277.41 464.09l9.41 8.69 -8.79 -11.17 -0.62 2.48zm50.83 231.43l-44.56 -26.06 7.53 10.55 37.03 15.51zm26.36 3.72l19.46 19.24 10.67 4.34 3.14 -3.1 -33.27 -20.48zm43.94 -62.04l6.28 1.86 7.53 -1.86 -7.53 1.86 -6.28 -1.86zm-224.07 74.45l-32.64 -22.96 10.05 10.55 22.59 12.41zm595.63 -516.83l50.21 40.33 -40.17 -55.22 -10.04 14.89zm-128.66 295.33l-8.79 -6.82 -0.63 4.34 9.42 2.48zm-849.83 1513.26l44.56 22.96 -11.29 -11.17 -33.27 -11.79zm1259.68 -1759.57l15.69 9.92 20.71 11.17 9.41 4.34 -9.41 -4.34 -36.4 -21.09zm-337.68 649.6l-12.55 -4.34 12.55 4.34zm-710.48 1530.63l32.01 15.52 13.8 5.58 -45.81 -21.1zm766.97 -1372.42l33.27 21.72 16.32 -4.34 -49.59 -17.38zm345.2 -606.79l1.89 15.51 32.01 12.41 -33.9 -27.92zm-527.21 1118.04l-24.48 -11.17 24.48 13.03 46.44 34.12 -46.44 -34.12 0 -1.86zm57.74 -45.29l13.18 4.34 -12.55 -8.69 -0.63 4.35zm18.83 -9.93l25.1 5.58 15.7 8.69 64.64 17.37 69.67 -4.34 -57.11 -8.69 -12.56 13.03 -80.34 -26.06 -25.1 -5.58zm615.09 -1062.82l5.02 6.83 1.25 -4.97 -6.27 -1.86zm-205.87 572.67l33.89 17.37 -11.29 -8.68 -22.6 -8.69zm150.63 -286.65l9.42 6.83 -3.14 8.69 -1.26 0 8.16 17.37 18.83 9.93 -25.73 -27.3 3.14 -8.69 4.39 -6.83 -13.18 -3.72 -0.63 3.72zm-493.95 1028.08l-13.18 0 13.18 0zm-134.94 250.66l-15.69 -3.1 15.06 5.58 0.63 -2.48zm473.24 -508.77l13.18 6.83 35.15 8.07 15.69 4.34 -13.81 -6.83 -1.88 2.49 -48.33 -14.9zm372.82 -617.34l30.75 18.62 -5.02 -17.38 -25.73 -1.24zm-68.42 260.59l-8.78 -4.96 -0.63 0 9.41 4.96zm-336.41 1198.7l16.32 1.86 -16.32 -1.86zm381.6 -726.54l5.65 23.57 -5.65 -23.57zm-390.39 1164.57l-11.92 0 11.92 0 52.1 14.89 -52.1 -14.89zm702.96 -1935.78l33.26 16.75 30.76 10.55 -64.02 -27.3zm-316.33 1209.86l113.6 21.1 -82.22 -25.44 -31.38 4.34zm276.79 -709.79l23.22 8.69 38.91 0 -62.13 -8.69zm47.07 22.96l-16.95 8.69 36.41 4.34 -19.46 -13.03zm-360.89 696.76l-9.42 -8.69 -16.32 0 25.74 8.69zm146.24 626.03l48.33 4.96 -10.67 -23.58 -37.66 18.62zm101.68 -16.14l17.57 0 -15.69 -6.82 -1.88 6.82zm486.42 -877.3l173.85 23.57 -119.25 -21.09 -54.6 -2.48zm488.3 -621.69l22.6 0 -22.6 0zm-633.92 1825.35l-18.2 0 17.58 4.34 0.62 -4.34zm779.53 -2053.67l11.3 0 -11.3 -4.34 0 4.34zm94.15 87.48l23.22 2.48 0 -4.34 -23.22 1.86zm-61.51 1943.23l16.32 0 1.88 -4.96 33.27 -3.73 28.24 -2.48 -11.92 -4.34 -16.32 6.82 -33.27 3.73 -18.2 2.48 0 2.48zm129.29 -1304.17l12.56 1.86 -12.56 -8.69 0 6.83zm-12.55 727.16l17.58 -4.34 -17.58 4.34zm52.1 -71.35l13.18 2.48 -13.18 -3.72 0 1.24zm16.31 235.15l27.62 -8.07 -27.62 8.07zm113.61 -1224.76l-1.89 -14.89 3.14 0 13.18 -9.93 4.4 0 7.53 -4.34 -6.91 4.34 -5.02 0 -16.32 9.93 1.89 14.89zm42.05 -410.73l55.23 -1.86 -55.23 1.86zm13.81 305.88l9.41 4.34 0 -4.34 -9.41 0 -13.81 6.82 13.81 -6.82zm28.87 126.57l-45.82 -4.35 -1.25 4.35 37.65 1.86 9.42 -1.86zm134.94 451.06l20.71 -1.86 20.09 -2.49 -20.09 2.49 -20.71 1.86zm75.95 917.01l-45.82 0 45.82 0zm31.38 -1409.02l23.22 -5.59 6.9 -4.34 7.54 -4.34 -7.54 4.34 -5.02 0 0 4.34 -25.1 5.59zm64.02 492.01l26.36 4.34 23.85 0 18.83 -3.1 -18.83 3.1 -23.85 0 -26.36 -4.34zm12.55 -451.06l49.58 -2.49 -26.36 -11.16 -23.22 9.3 0 4.35zm148.12 1534.97l-46.44 1.86 31.38 -1.86 15.06 0zm106.07 -83.76l32.01 0 0 -1.86 -32.01 1.86zm-101.05 -1526.29l11.3 2.48 11.93 0 -23.23 -2.48zm146.87 156.35l74.06 -14.89 -60.88 10.55 -13.18 4.34zm104.19 142.71l12.55 0 0 -3.73 -12.55 3.73zm-13.18 -446.72l11.92 0 22.6 -6.21 10.67 -8.68 -45.19 14.89zm207.75 1156.5l30.75 -1.86 -0.62 -4.96 -30.13 6.82zm-141.85 -1087.63l13.18 -2.49 67.79 -19.23 4.39 -1.86 44.56 -4.34 -44.56 4.34 -85.36 23.58zm315.7 869.86l-84.1 23.57 84.1 -23.57zm-118.62 -718.48l50.84 -21.09 54.6 -8.69 50.22 -8.68 -104.82 17.37 -43.94 9.93 -6.9 11.16zm-37.03 -277.95l11.3 -3.73 0 -4.34 -11.3 8.07zm50.21 143.94l-12.55 9.93 13.18 -3.73 -0.63 -6.2zm104.19 -147.67l67.16 -23.57 11.29 -6.83 -11.29 4.34 -67.16 26.06zm340.18 1167.06l-28.24 8.06 30.12 -1.24 -1.88 -6.82zm-249.17 568.32l-50.21 8.69 50.21 -8.69zm376.58 -337.52l75.95 -21.71 14.43 -5.59 -90.38 27.3zm-298.76 -1340.16l48.33 -8.68 12.56 -6.83 -60.89 15.51zm479.52 1549.25l13.81 -4.34 -1.26 -5.59 -12.55 9.93zm-143.1 -559.64l13.18 -8.69 -13.81 4.35 0.63 4.34zm197.08 400.19l45.82 -11.17 -32.64 0 -13.18 11.17zm-455.67 -1697.54l12.55 -2.48 -1.88 -4.34 -10.67 6.82zm285.58 354.9l15.69 6.2 9.41 -6.2 -25.1 0zm60.25 -17.37l10.67 0 13.81 -3.73 -24.48 3.73zm76.57 137.11l-6.27 0 15.69 0 -1.88 -2.48 -7.54 2.48zm78.46 129.68l70.29 -31.65 -13.18 3.73 -57.11 27.92zm377.84 928.18l-33.27 8.06 18.83 0 14.44 -8.06zm-325.75 -1569.1l5.02 -4.35 3.77 0 -1.26 -4.34 -7.53 8.69zm268.63 570.81l12.56 -4.35 35.14 -19.23 22.6 -15.51 -22.6 13.65 0 1.86 -47.7 23.58zm111.1 94.3l41.42 -24.19 29.5 -12.41 -29.5 12.41 -8.16 4.34 -33.26 19.85zm-72.18 -299.05l10.04 -8.69 3.14 0 -3.14 0 -10.04 8.69zm27.61 -19.85l13.18 -17.38 15.07 -25.44 -15.07 2.49 -13.18 40.33zm-288.71 -668.84l18.83 -8.07 -0.63 -3.1 -18.2 11.17zm131.8 -27.92l18.83 -8.69 -10.67 2.48 -8.16 6.21zm274.91 521.17l14.43 3.1 -3.13 -8.68 -11.3 5.58zm571.78 1124.86l101.05 -53.98 -82.85 40.95 -18.2 13.03zm-343.32 -771.21l-9.41 5.59 3.13 4.34 6.28 -9.93zm-392.28 -746.39l17.58 -13.03 -22.6 2.48 5.02 10.55zm15.7 -42.81l33.26 -10.55 -4.39 -8.69 -28.87 19.24zm-147.5 -367.92l10.67 0 21.97 19.85 -21.97 -19.85 1.26 -2.49 -2.51 -3.72 -9.42 6.21zm599.4 1033.03l-47.08 27.3 10.67 -4.34 36.41 -22.96 23.22 -19.85 -23.22 19.85zm-440.61 -904.6l30.13 -14.89 -11.93 0 -18.2 14.89zm95.4 102.37l0.63 4.34 6.91 -31.64 -6.91 10.55 -0.63 16.75zm-56.48 -145.18l11.29 1.86 15.7 -20.48 -26.99 18.62zm456.92 749.49l-11.3 8.69 4.39 5.58 0 22.96 12.56 4.34 -0.63 -4.34 -11.93 0 0 -22.96 6.91 -14.27zm-294.36 -405.15l-18.83 13.03 13.8 0 5.03 -13.03zm893.76 1322.79l11.29 -6.21 12.56 -9.3 -12.56 6.82 0 2.48 -11.29 6.21zm-137.46 -352.41l14.44 -9.31 9.41 -11.79 -23.85 21.1zm130.55 132.77l37.66 -25.44 -16.95 1.24 -20.71 24.2zm-663.41 -1158.37l50.83 -34.12 7.54 -11.17 -59.63 42.81 1.26 2.48zm205.86 189.86l-11.3 8.06 12.56 -3.72 -1.26 -4.34zm25.73 93.69l-8.78 4.34 -0.63 4.34 13.18 -4.34 -3.77 -4.34zm313.82 508.76l-26.36 11.17 13.81 0 12.55 -11.17zm-680.36 -1262.6l9.42 -8.69 -3.77 -2.48 -5.65 11.17zm87.25 -4.35l23.22 -6.82 -10.04 -13.03 -6.28 8.69 -6.9 11.16zm1011.12 1709.95l10.05 -9.31 45.81 -31.64 20.09 -17.38 -13.18 11.17 -6.91 6.21 -7.53 4.34 -38.28 27.3 -10.05 9.31zm-280.55 -434.31l15.69 -4.35 8.79 -13.03 -24.48 17.38zm-316.33 -561.51l34.52 1.25 -9.42 -9.93 -25.1 8.68zm896.9 745.16l13.18 -5.59 11.29 -13.03 -24.47 18.62zm13.18 -495.74l9.41 -10.54 -9.41 10.54zm57.74 -109.2l80.34 -83.13 8.16 -13.03 -88.5 96.16zm-256.08 -341.24l2.51 0 48.33 -45.29 -50.84 45.29zm-468.85 -535.44l37.66 -29.16 -37.66 14.89 0 14.27zm377.22 310.22l13.18 -8.07 -2.51 -1.86 -10.67 9.93zm659.02 632.85l6.9 -9.93 -9.41 5.59 2.51 4.34zm-348.34 -427.48l11.92 -8.69 -13.81 6.83 1.89 1.86zm164.44 139.6l89.75 -101.14 38.92 -42.81 -38.92 42.81 -3.76 4.35 -30.13 29.78 -55.86 67.01zm-267.38 -387.78l10.05 -8.07 4.39 -14.89 -14.44 22.96zm303.78 639.68l-32.01 31.64 11.93 -9.93 20.08 -21.71zm48.96 57.08l-26.99 15.51 -8.16 10.55 35.15 -26.06zm180.13 -681.87l9.42 -10.55 -15.07 6.83 5.65 3.72zm399.18 351.17l10.67 -13.65 7.53 -9.93 -9.41 8.07 -8.79 15.51zm38.91 -47.15l10.05 -8.07 -1.89 -4.34 -8.16 12.41zm-174.48 -199.17l14.44 -18.61 77.82 -94.93 -74.69 90.59 -3.13 4.34 -14.44 18.61zm-162.56 -163.79l4.39 -15.51 21.34 -34.13 0 -1.86 26.37 -29.78 -26.37 29.78 -21.34 35.99 0 1.86 -4.39 13.65zm-353.99 -402.05l8.79 -8.69 -10.04 6.21 1.25 2.48zm-220.93 -258.72l30.13 -21.72 22.59 -25.44 -63.39 38.47 10.67 8.69zm-88.49 -214.06l5.02 -4.34 -5.02 4.34zm817.18 660.15l2.51 2.49 6.28 -6.21 2.51 -6.82 -11.3 10.54zm224.07 126.57l-18.2 21.1 11.3 8.69 9.41 -10.55 -2.51 -19.24zm192.69 -112.92l28.24 -34.12 -8.16 -4.96 -20.08 39.08zm-1006.74 -884.75l8.79 -11.17 -11.93 8.69 3.14 2.48zm162.56 -31.02l4.39 -10.55 -7.53 8.69 3.14 1.86zm795.85 511.25l10.67 -13.03 -3.77 0 -6.9 13.03zm-374.08 -452.93l7.54 -13.03 -3.77 0 -3.77 13.03zm-150 -184.27l11.3 -21.1 -8.79 -4.34 -2.51 25.44zm-166.95 -153.87l9.41 -8.07 -9.41 8.07zm645.21 276.1l59.63 -85 29.49 -60.19 26.37 -63.9 -35.15 70.11 -80.34 138.98zm-281.18 -288.51l3.76 0 -6.27 -13.03 1.25 -4.34 2.51 -9.93 -2.51 9.93 -1.25 2.48 2.51 14.89zm843.55 307.74l-0.63 4.34 -29.5 57.71 30.13 -62.05 55.23 -83.14 -26.99 35.99 -28.24 47.15zm-327.63 -183.65l33.26 -30.4 -33.26 30.4zm391.02 168.14l-10.05 13.65 -1.25 14.89 11.3 -28.54zm-840.41 -411.97l10.67 -10.55 -9.42 -2.48 -1.25 13.03zm864.26 233.28l8.16 -15.51 2.51 -12.41 -10.67 27.92zm206.49 -182.41l4.39 -14.27 -8.15 13.03 3.76 1.24zm63.39 -22.95l4.4 -15.52 -7.54 13.03 3.14 2.49zm-465.08 -675.05l4.39 -13.03 1.26 -19.85 10.04 -57.7 0.63 -1.86 0.63 -6.83 3.76 -20.47 -3.76 20.47 -1.26 8.69 -10.04 57.7 -5.65 32.88zm397.93 -126.57l3.76 -10.55 -3.76 -2.48 0 13.03zm-178.25 -248.17l1.25 -8.69 -5.02 8.69 3.77 0zm-59.63 -296.58l-1.26 -13.03 -2.51 13.03 3.77 0zm119.25 -624.16l0.63 -24.2 -3.14 11.17 2.51 13.03zm64.02 -35.37l9.41 28.54 -11.92 -83.76 2.51 55.22zm-11839.8 -2918.56l10.04 -32.89 -10.04 32.89zm-180.76 -165.04l9.41 -31.64 -9.41 31.64zm530.35 -931.91l20.72 -27.3 2.51 1.24 8.78 -9.92 -11.29 8.68 -20.72 27.3zm2597.81 -1716.14l18.83 1.86 -0.63 2.48 15.06 -9.31 -14.43 6.83 -18.83 -1.86zm8792.61 5268.18l-38.92 -475.88 -55.86 -310.22 -48.33 -218.4 -13.18 -57.08 -18.83 -63.9 -19.45 -62.67 -19.46 -68.25 -23.85 -58.32 -62.14 -185.51 3.77 0 -3.77 0 -2.51 -9.93 -9.41 -14.27 -1.88 41.57 25.73 100.51 25.1 112.92 19.46 89.97 21.34 93.68 18.83 81.28 -6.9 15.51 -3.77 95.55 6.9 49.64 -1.88 117.26 -24.48 143.94 -9.41 -34.12 -24.48 -88.1 -30.13 -130.3 -16.31 -70.73 -18.21 -72.59 -129.92 -459.13 -41.42 -105.47 -45.82 -102.37 -13.81 -34.13 -13.81 -37.23 -25.73 -70.11 -59 -127.81 -173.85 -333.8 -43.94 -63.9 -43.31 -49.02 -43.3 -72.59 -70.3 -85.62 -151.26 -199.16 -38.91 -55.22 -48.96 -65.77 -61.51 -64.52 -25.73 -32.27 -10.04 -6.2 2.51 0 -16.32 -19.24 -96.66 -111.68 -11.3 -8.06 -1.88 2.48 -55.86 -62.66 -76.57 -85.63 -77.83 -57.7 -67.78 -58.94 -30.76 -39.71 -29.5 -35.98 -16.31 -19.24 24.47 32.27 -65.9 -47.16 -73.43 -59.56 -21.34 -17.37 -26.36 -22.96 -65.28 -58.32 -17.57 -14.27 -392.9 -271.75 -9.42 -4.35 -52.09 -34.12 -49.59 -35.99 -86.61 -45.29 -80.34 -51.5 -43.31 -27.3 -42.68 -24.19 -65.9 -34.13 -131.8 -59.56 -33.9 -10.55 -95.4 -50.87 -45.81 -21.72 -54.61 -23.58 -0.63 3.73 -22.59 -9.93 -22.6 -6.83 -18.2 -13.03 -318.84 -115.4 -109.21 -15.51 -62.14 -16.13 -96.02 -25.44 -98.54 -26.06 -25.11 -2.48 29.5 30.4 -0.63 0 -379.72 -74.45 -47.07 -6.83 0 1.25 -54.61 -9.93 -53.97 -8.69 -61.51 -4.34 -65.28 -5.59 -65.27 -8.68 -62.77 -4.34 -422.4 -13.65 -364.66 22.33 -80.33 5.59 -51.47 2.48 -50.21 6.2 -92.89 15.51 -82.22 16.75 -82.23 14.9 -70.92 13.02 -64.65 14.27 -130.54 34.75 -75.95 21.72 -61.51 22.95 -67.78 19.86 -133.69 40.32 -330.77 126.58 -325.11 150.76 -420.52 252.52 -64.65 42.81 -20.71 11.17 -14.44 16.75 -107.32 103 65.27 0 -153.77 120.98 -169.46 153.87 -64.65 49.02 -52.72 58.32 -32.01 34.12 -31.38 44.06 3.76 3.1 49.59 -38.47 40.79 -34.74 8.79 -5.59 9.41 -2.48 20.72 -10.55 29.49 -16.75 3.77 1.24 -13.18 21.72 -20.71 27.3 -3.77 8.68 1.26 2.48 -40.8 32.27 -41.42 22.95 -177.63 117.27 -13.8 17.37 -25.11 30.4 -23.22 27.3 -43.94 55.84 -43.3 58.32 -20.72 29.16 -22.59 27.92 -43.94 44.68 -35.77 53.97 -27.62 49.02 -39.54 55.84 -25.1 35.99 -42.68 70.11 -54.61 89.96 -16.32 30.4 -93.52 175.59 -56.48 111.06 -25.11 51.49 -21.97 48.4 -130.55 325.11 -93.51 277.96 -79.71 322.01 -13.81 69.49 -3.14 27.3 -2.51 29.78 -6.91 62.66 -11.29 63.91 -11.3 63.91 -5.02 51.49 -10.04 47.16 -44.57 382.19 -51.46 404.53 -40.17 172.48 -1.88 29.78 -5.03 0 -42.05 98.65 -48.95 59.57 -59 36.6 -57.74 49.02 -11.93 55.84 11.93 82.52 18.2 71.35 6.9 36.6 5.02 37.23 -6.9 -18.61 -3.14 -12.41 0 8.06 3.14 4.35 6.9 18.61 4.4 0 97.91 323.25 119.25 315.19 50.21 101.13 50.84 107.95 35.77 65.77 26.37 64.53 191.43 344.34 88.49 140.84 185.78 261.21 25.11 34.13 254.82 324.49 61.51 68.87 66.53 55.22 51.47 49.01 35.15 29.78 33.89 31.65 62.13 69.48 38.92 42.82 43.3 38.46 45.19 35.37 44.57 34.74 33.89 21.1 35.15 22.95 63.39 52.12 50.21 37.85 92.26 62.04 94.78 68.87 50.84 75.08 -54.61 3.1 -18.83 -11.79 -6.9 -6.83 -1.26 1.87 8.16 4.96 18.83 11.79 -3.14 7.44 -8.16 12.41 -1.88 58.32 43.31 50.26 66.53 60.8 77.83 42.81 75.31 33.51 47.7 22.33 47.08 27.3 23.85 14.27 23.22 15.51 52.09 23.58 107.96 40.33 355.87 112.92 11.92 0 29.5 11.17 30.13 11.17 29.5 13.03 101.05 34.12 199.59 38.47 90.38 12.41 98.54 19.23 78.45 11.17 38.92 3.1 40.17 4.96 74.06 6.21 75.94 2.48 379.72 19.23 495.21 -41.57 32.01 -5.58 -1.88 -4.34 185.78 -34.13 81.59 -21.71 11.3 0 279.93 -70.73 20.08 -3.73 28.25 -11.16 61.51 -16.76 38.28 -10.54 40.17 0 37.66 -13.65 73.43 -27.3 26.99 -5.59 28.87 -8.68 21.34 0 96.66 -13.03 -55.23 17.37 -26.99 5.58 10.67 0 16.32 -5.58 55.23 -17.37 43.31 -15.51 43.3 -14.27 85.36 -36.61 109.84 -57.7 54.6 -25.44 48.96 -28.54 95.4 -49.01 143.73 -83.14 14.44 -13.03 420.52 -286.03 73.43 -38.46 57.74 -23.58 8.16 14.89 -1.25 9.93 8.16 -8.07 -6.91 -1.86 -8.16 -14.89 6.91 -4.34 42.05 1.86 35.77 -19.24 38.92 -23.57 53.97 -27.3 86.62 -30.4 28.24 -12.41 47.7 35.98 71.55 -15.51 18.21 -8.06 8.15 -8.69 59.63 -47.15 9.42 38.46 -22.6 40.95 -59.63 75.08 -61.5 68.86 -25.74 35.99 -69.04 68.25 -44.56 53.98 -119.88 115.4 -73.43 65.77 -92.89 95.55 -89.13 92.44 -21.34 11.17 6.91 31.64 42.05 68.25 112.97 -31.64 50.84 -34.75 48.96 -35.98 94.77 -78.8 32.64 -25.44 33.89 -28.54 75.32 -59.56 89.12 -92.45 52.72 -64.52 71.55 -72.59 7.54 -3.11 45.81 -71.35 59 -50.87 15.07 -17.38 20.71 -12.4 9.41 -6.83 6.91 -6.2 8.78 -8.69 112.98 -98.03 34.52 -34.12 34.52 -37.23 67.78 -61.42 15.7 -14.28 45.81 -41.56 75.32 -70.11 67.78 -89.35 58.38 -92.44 59.62 -89.97 75.32 -102.37 76.57 -89.97 176.37 -124.09 14.43 -5.58 67.16 -83.76 22.6 -26.06 22.59 -27.3 53.35 -66.38 75.32 -85.63 45.81 4.35 13.81 -8.69 18.2 8.69 11.93 21.09 83.48 37.23 32.63 16.75 -11.92 21.72 4.39 1.24 43.94 37.22 55.23 12.41 38.91 -12.41 5.02 3.73 8.16 -12.41 62.14 -38.47 33.89 42.81 1.26 29.78 13.18 59.56 -14.44 97.41 19.46 52.74 -3.14 44.05 -13.18 22.96 50.21 -41.57 57.74 -96.79 47.08 -98.03 27.61 -62.04 10.04 -47.78 90.38 -192.33 11.3 19.85 19.46 -94.31 -7.53 10.55 7.53 -37.85 1.25 10.55 8.79 -42.81 8.16 -47.15 15.69 -76.94 11.93 -35.99 15.06 -96.78 2.51 -78.18 38.91 -179.93 40.8 -83.76 9.42 -38.47 27.61 -138.35 8.79 -132.78 -2.51 -43.43 -10.67 0 -5.02 26.68 -1.89 0 3.77 -26.68 -5.65 0 3.14 -11.79 -3.77 -2.48 4.4 -26.06 5.02 -38.47 0 -39.71 6.27 -35.36 12.56 -93.07 10.04 -35.36 8.16 -75.7 5.65 -79.41 2.51 -73.22 -6.28 -70.11 2.51 -27.92 1.89 -38.46 7.53 -25.44 1.25 -38.47 11.3 -13.03 8.79 -55.84 9.41 -35.98 26.36 -25.44 3.77 -13.03 6.9 -12.41 59.63 -49.64 28.87 0 75.94 173.73 18.83 41.57 20.09 56.46 14.43 24.82 8.79 43.43 -3.14 40.33 28.25 166.9 1.88 85.62 12.55 55.22 17.58 47.15 11.29 55.84 9.42 -13.03 20.71 145.18 7.53 169.39 -3.14 51.49 -9.41 63.91 -10.67 128.43 -16.95 115.4 -26.99 122.85 -6.27 35.36 -10.04 34.13 -18.21 86.86 -23.22 49.64 -28.87 96.17 -7.53 42.81 3.14 0 0 14.89 3.76 1.86 57.12 -9.93 23.85 67.01 4.39 83.76 0 58.32 -6.9 14.89 16.32 -11.17 13.8 -40.33 3.14 -15.51 5.02 -14.27 4.4 -60.18 5.65 -9.93 3.76 -17.37 -4.39 -2.48 -1.89 0 10.67 -42.81 19.46 -57.08 35.78 -152.01 20.71 -27.92 -26.99 160.07 -2.51 45.3 -16.95 97.41 -33.89 117.88 4.39 51.5 -22.59 85.62 -0.63 16.75 -10.04 10.55 -23.22 103.61 2.51 16.13 -50.21 113.54 -21.34 83.76 -33.9 85 -9.41 11.17 -16.95 42.19 -86.61 195.44 -68.41 149.53 -49.59 106.71 -38.91 81.28 -34.52 72.59 -51.47 72.6 -58.37 91.82 -55.23 85.62 -52.72 76.94 -49.59 76.93 -28.87 53.36 -3.76 35.99 -291.23 335.04 -91.63 118.5 -127.41 134.64 -63.4 89.96 -99.79 112.92 -24.48 19.86 -73.43 70.11 -69.04 68.25 -67.16 66.38 -33.27 31.65 -33.89 32.88 -69.04 61.42 -69.67 63.91 -139.96 122.23 -94.77 81.27 -38.29 27.3 -43.93 17.38 -9.42 11.16 2.51 4.35 -13.81 8.68 0.63 1.24 -4.39 22.96 -25.74 17.37 -51.46 35.37 -192.69 138.36 -144.36 89.34 -165.06 89.97 -98.54 51.49 -59 36.61 -53.35 24.82 -84.11 39.08 -28.87 17.38 -21.96 29.78 -25.11 14.89 -23.85 23.58 -42.68 19.23 -15.69 8.06 -40.17 24.2 -30.13 9.93 -45.81 23.58 -6.28 2.48 -5.02 2.48 -86.62 40.33 -521.56 207.85 -108.59 34.12 -91 29.78 -89.76 34.13 -155.65 44.67 -100.42 25.44 -100.43 24.19 -128.03 31.65 -30.13 11.16 -48.33 3.11 30.13 -9.93 80.96 -23.58 13.81 -4.34 16.95 -3.72 28.24 -11.17 55.23 -19.85 70.3 -14.9 -18.2 -3.72 -15.69 1.24 -45.82 17.38 -94.15 17.99 -95.4 25.44 -76.57 11.78 0 3.11 -15.69 8.06 -77.83 17.38 -32.01 25.43 -84.1 0 -83.48 8.69 -84.73 8.69 -86.61 9.92 -97.29 15.51 -112.97 11.17 -135.57 10.55 -89.13 25.44 -64.02 4.34 -65.27 -6.2 -33.27 -8.69 -182.01 21.1 -44.57 -1.87 -114.23 -4.34 -50.21 -6.2 -35.77 0 17.57 1.86 -34.52 10.55 -31.38 -1.87 0 4.35 -15.69 -4.35 -33.9 -4.34 -28.87 0 -51.46 -6.2 -50.84 1.86 -65.9 4.34 -377.22 -29.78 -2.51 6.82 -278.04 -45.29 -17.57 -4.34 -50.84 -6.21 -81.6 -15.51 -79.71 -12.41 -150 -30.4 -102.94 -22.95 -92.89 -19.24 -64.02 -24.19 -117.36 -35.99 -60.89 -18.61 -62.13 -18 -45.82 -14.89 -59 -21.09 -59.62 -21.72 -119.88 -39.71 -82.22 -34.12 -82.22 -41.57 -80.34 -34.12 -38.92 -8.07 -45.19 -13.03 -104.81 -45.29 -4.4 4.96 -6.9 -2.48 -7.53 0 -47.7 -25.44 -158.8 -73.21 -81.59 -35.37 -77.2 -42.81 -60.88 -24.19 -122.39 -61.43 -130.55 -79.41 -60.25 -29.79 -56.49 -35.98 -80.96 -60.81 -79.09 -37.84 -85.36 -55.22 -221.55 -156.97 -468.85 -367.31 -54.61 -38.46 -130.54 -117.89 -121.14 -114.78 -119.88 -117.88 -111.09 -108.58 -261.1 -293.47 -337.04 -436.17 -124.9 -185.52 -60.26 -91.82 -60.88 -94.31 -71.55 -138.36 -67.15 -101.13 -48.96 -91.21 -44.56 -75.69 -70.93 -138.98 -65.9 -140.22 -25.73 -45.29 -38.92 -62.67 -33.89 -78.79 -64.64 -151.39 -65.28 -152.01 -26.99 -81.28 -34.52 -63.9 -69.04 -165.04 -48.33 -172.48 -50.21 -160.08 -43.31 -220.88 -25.73 -95.54 -23.22 -94.31 -26.36 -173.11 -14.44 -145.8 -22.59 -145.18 -4.4 -155.73 8.16 -126.58 0.63 -88.1 16.95 -70.11 -0.63 -136.5 33.89 -519.31 53.35 -583.83 15.69 -162.56 10.67 -147.05 5.65 -50.87 16.32 -119.75 19.46 -113.54 39.54 -232.66 33.89 -139.6 48.33 -145.19 50.21 -187.99 45.82 -151.39 26.99 -79.42 33.26 -83.14 31.38 -75.07 38.29 -85.62 35.15 -79.42 28.87 -27.3 5.65 -13.03 23.85 -68.25 20.71 -30.4 59.63 -112.3 30.12 -53.98 32.64 -53.35 65.9 -104.86 71.55 -108.58 72.18 -96.79 68.41 -81.27 55.24 -29.79 -3.77 40.33 41.42 -40.33 28.88 19.86 -13.18 52.74 8.15 -15.51 8.16 -14.27 13.18 -14.9 11.93 -12.4 111.72 -143.95 114.86 -170.62 72.8 -98.65 36.41 -31.64 70.92 -77.56 2.51 4.97 13.18 -15.52 -10.67 58.33 -23.22 48.39 -27.62 55.84 -70.29 119.75 -26.36 98.03 5.02 4.34 -30.13 79.42 -18.2 66.38 -60.88 136.5 -71.55 149.53 -32.64 64.52 -29.5 66.39 -47.7 121.61 -11.93 32.26 3.14 1.86 -5.65 15.51 -1.88 16.76 0.63 22.95 -26.99 147.05 30.75 -3.1 -6.27 14.27 -1.88 17.37 -30.13 89.96 -18.2 49.64 -13.81 25.44 -16.32 29.78 -36.4 35.98 2.51 0 33.89 -35.98 30.13 -55.22 -9.42 44.05 -6.27 14.89 -3.14 6.82 -4.4 8.07 4.4 -8.07 3.14 -6.82 -9.42 32.26 -3.14 14.27 41.43 0 37.03 -37.22 59 -146.43 68.41 -142.7 47.07 -85.62 22.6 -55.22 28.87 -53.36 54.6 -102.37 110.47 -197.92 55.23 -95.55 31.38 -55.22 203.36 -286.65 59.62 -53.35 18.21 -29.79 80.96 -96.16 79.71 -87.49 160.05 -147.66 18.2 -6.21 64.02 -58.32 58.37 -47.15 57.12 -38.47 63.39 -44.05 102.3 -49.64 171.98 -119.74 160.04 -149.53 82.23 -70.11 40.16 -38.47 40.8 -34.12 69.04 -58.32 113.6 -85.62 107.96 -83.14 73.43 -57.7 73.44 -55.84 154.4 -102.38 18.2 -4.34 26.36 -18.61 104.19 -69.49 58.99 -20.48 12.56 20.48 131.8 -50.26 69.04 -2.48 14.44 -4.34 31.38 46.53 -93.52 111.68 0.63 88.1 64.02 -38.47 25.1 -15.51 62.77 -40.33 11.92 -11.16 60.26 -35.99 163.81 -93.69 82.85 -47.15 82.22 -47.15c198.33,-105.48 401.06,-194.82 628.27,-284.79l296.24 -104.23 29.5 -13.03 512.16 -126.57 59.62 -9.93 110.47 -19.85 112.34 -16.75 112.98 -14.9 110.46 -9.3 64.65 -6.21 147.5 4.35 30.12 19.85 96.03 14.27 122.39 6.21 100.42 11.16 132.44 16.76 118.62 32.88 103.56 37.23 74.69 6.82 70.92 7.45 144.36 16.75 105.44 14.27 69.05 26.06 111.72 36.6 96.65 17.38 95.4 18.61 192.69 42.81 26.36 19.85 25.73 8.07 -1.88 8.69 15.06 1.86 69.67 21.09 40.8 19.24 63.39 39.08 136.2 35.99 141.22 38.47 1.88 -1.86 23.22 0c215.28,49.01 405.46,112.92 617.6,208.46l128.04 58.33 96.03 36.6 91.63 44.67 293.11 145.19 119.25 72.59 131.81 75.69 298.75 195.44 69.67 47.78 62.77 47.15 123.64 99.89 70.3 62.67 69.04 52.73 24.47 19.24 119.88 116.02 57.12 57.7 57.11 59.57 -1.25 4.34 119.25 140.84 25.11 68.87 8.16 14.89 15.69 26.06 61.5 95.55 85.36 96.78 16.95 25.44 112.35 142.71 39.54 81.27 61.51 89.97 0.63 15.51 15.69 20.47 8.78 13.65 3.77 -2.48 77.83 111.06 70.92 109.2 15.06 22.95 13.81 28.55 4.39 12.4 90.39 150.15 43.93 75.7 39.54 75.69 235.99 549.71 1.89 63.91 37.03 108.58 36.4 112.92 40.8 150.14 27.61 130.3 25.11 117.88 3.76 89.97 -26.98 -49.64 -38.92 -132.77 -39.54 -129.68 -12.55 -39.71 -34.52 -93.06 -35.15 -93.69 -53.98 -42.81 -10.04 20.47 7.53 109.2 18.2 68.25 155.03 541.65 13.81 57.08 11.92 55.84 24.48 106.72 15.07 53.97 33.26 170.63 13.81 83.14 13.18 85.62 9.41 187.99 -1.88 79.42 5.02 88.72 3.77 52.12 1.25 51.5 -3.13 89.96 -14.44 78.8 -10.04 14.89 -21.97 27.92 0 12.41 -30.75 -89.97z"/>
   <polygon class="fil3" points="16163.94,16908.86 16170.84,16900.17 16177.75,16872.87 16168.33,16883.42 "/>
   <path class="fil4" d="M11904.15 13110.5c-230.98,224.6 -452.53,442.38 -682.25,669.46 -310.05,-273.62 -687.27,-376.61 -1105.9,-313.94 -298.76,42.81 -547.93,185.51 -758.82,397.7 -443.74,433.07 -538.51,1124.24 -227.83,1667.13 325.12,568.33 947.73,828.91 1598.6,668.22 463.2,-112.92 837.9,-500.08 845.43,-880.41 -355.25,0 -709.86,0 -1063.85,0l-182.02 -175.59c0,-217.77 4.4,-437.41 -1.25,-658.29l111.72 -111.06c669.69,0 1338.75,0 2010.33,4.35l112.35 81.28c105.44,729.64 -1.89,1413.37 -504.63,1992.24 -467.59,538.54 -1085.19,748.25 -1782.49,729.02 -1133.52,-36.61 -2049.88,-818.98 -2261.39,-1907.24 -262.35,-1356.91 733.08,-2639.37 2125.19,-2747.95 679.73,-55.84 1265.32,140.84 1766.81,585.08z"/>
   <path class="fil5" d="M14581.66 14433.91c230.97,0 446.25,6.82 661.53,-4.35l164.44 165.04 0 303.4 -139.33 127.19c-219.68,-5.58 -442.49,-1.24 -685.39,-1.24 0,215.91 0,425.62 0,632.23l-193.94 186.75 -276.79 0 -126.15 -126.57c4.39,-225.22 0.62,-449.2 0.62,-692.41 -229.71,0 -449.39,-4.34 -670.31,3.72l-157.54 -153.87 0 -313.32 131.8 -126.57c224.07,2.48 449.39,0 696.05,0 0,-229.57 6.28,-442.38 -3.13,-653.95l166.95 -160.07 304.4 0 128.04 128.43c-3.76,220.88 -1.25,444.24 -1.25,685.59z"/>
  </g>
 </g>
</svg>
