<?xml version="1.0" encoding="UTF-8"?>
<!DOCTYPE svg PUBLIC "-//W3C//DTD SVG 1.1//EN" "http://www.w3.org/Graphics/SVG/1.1/DTD/svg11.dtd">
<!-- Creator: CorelDRAW -->
<svg xmlns="http://www.w3.org/2000/svg" xml:space="preserve" width="210mm" height="297mm" version="1.1" style="shape-rendering:geometricPrecision; text-rendering:geometricPrecision; image-rendering:optimizeQuality; fill-rule:evenodd; clip-rule:evenodd"
viewBox="0 0 21000 29700"
 xmlns:xlink="http://www.w3.org/1999/xlink"
 xmlns:xodm="http://www.corel.com/coreldraw/odm/2003">
 <defs>
  <style type="text/css">
   <![CDATA[
    .fil1 {fill:url(#id0)}
    .fil5 {fill:url(#id1)}
    .fil2 {fill:url(#id2)}
    .fil3 {fill:url(#id3)}
    .fil4 {fill:url(#id4)}
    .fil0 {fill:url(#id5)}
    .fil6 {fill:url(#id6)}
   ]]>
  </style>
  <linearGradient id="id0" gradientUnits="userSpaceOnUse" x1="16197.61" y1="15700.28" x2="16277.94" y2="15620.86">
   <stop offset="0" style="stop-opacity:1; stop-color:#E59939"/>
   <stop offset="0.25098" style="stop-opacity:1; stop-color:#F2CF6A"/>
   <stop offset="0.529412" style="stop-opacity:1; stop-color:#E6A33D"/>
   <stop offset="0.831373" style="stop-opacity:1; stop-color:#D98A39"/>
   <stop offset="1" style="stop-opacity:1; stop-color:#F2CF6A"/>
  </linearGradient>
  <linearGradient id="id1" gradientUnits="userSpaceOnUse" xlink:href="#id0" x1="13049.84" y1="13135.37" x2="13531.79" y2="12658.87">
  </linearGradient>
  <linearGradient id="id2" gradientUnits="userSpaceOnUse" xlink:href="#id0" x1="5772.17" y1="19329.86" x2="14993.35" y2="10213.08">
  </linearGradient>
  <linearGradient id="id3" gradientUnits="userSpaceOnUse" xlink:href="#id0" x1="15937.81" y1="16897.11" x2="15964.16" y2="16871.67">
  </linearGradient>
  <linearGradient id="id4" gradientUnits="userSpaceOnUse" xlink:href="#id0" x1="9432.03" y1="16710.98" x2="14120.43" y2="12069.45">
  </linearGradient>
  <linearGradient id="id5" gradientUnits="userSpaceOnUse" xlink:href="#id0" x1="11320.32" y1="21223.45" x2="11378.05" y2="21166.37">
  </linearGradient>
  <linearGradient id="id6" gradientUnits="userSpaceOnUse" xlink:href="#id0" x1="10758.66" y1="15401.22" x2="12810.74" y2="13371.76">
  </linearGradient>
 </defs>
 <g id="Camada_x0020_1">
  <metadata id="CorelCorpID_0Corel-Layer"/>
  <g id="_2908629659392">
   <polygon class="fil0" points="11296.47,21198.02 11378.05,21198.02 11395.62,21184.99 "/>
   <polygon class="fil1" points="16250.95,15664.29 16254.09,15597.9 16242.8,15610.31 16223.34,15668.63 16220.83,15724.47 "/>
   <path class="fil2" d="M16091.56 12887.19l-8.79 -21.09 4.39 23.57 4.4 -2.48zm55.85 -262.45l-6.28 -27.92 -1.88 0 8.16 27.92zm69.03 -190.47l-8.16 -42.81 4.39 47.15 3.77 -4.34zm-96.64 -47.16l-32.64 -59.56 -15.06 -21.71 15.06 21.71 32.64 59.56zm-119.24 34.13l-4.39 4.34 4.39 -4.34zm-77.81 49.63l4.39 -16.75 -17.57 -35.36 13.18 52.11zm190.14 -197.3l13.18 6.83 -19.45 -38.47 -12.55 -35.99 12.55 35.99 6.27 31.64 -6.27 4.97 6.27 -4.97zm55.86 -119.12l-8.16 -11.17 4.39 13.03 3.77 -1.86zm-427.36 147.04l0 -31.64 -6.28 -8.07 6.28 16.76 0 22.95zm30.12 -320.15l-4.39 -30.4 -14.44 -8.06 5.65 12.41 13.18 26.05zm-166.3 -55.84l-4.39 -15.51 -6.91 4.97 11.3 10.54zm-224.66 -390.87l-2.51 -15.51 -19.46 -21.1 21.97 36.61zm-162.54 -23.58l-21.96 -21.72 17.57 21.72 4.39 0zm259.18 -465.95l-8.79 -26.06 -3.76 2.48 12.55 23.58zm-278 -68.87l23.21 11.17 -23.21 -11.17 -33.26 -25.44 34.51 38.47 -1.25 -13.03zm-89.74 -12.41l-3.77 -17.37 -13.18 -4.35 16.95 21.72zm-341.39 -17.37l-30.12 -27.3 17.57 21.09 12.55 6.21zm203.33 -565.85l-45.19 -32.88 15.06 21.72 30.13 11.16zm-432.38 125.33l-25.73 -19.23 -4.4 -3.72 4.4 3.72 6.9 8.06 18.83 11.17zm-330.09 -22.95l-6.91 -11.17 -8.78 -5.59 15.69 16.76zm87.85 -346.21l-43.3 -38.47 43.3 38.47zm-73.42 -479.6l-30.12 -27.3 30.12 27.3zm-226.54 117.88l-6.91 -12.41 13.18 -24.19 -13.18 24.19 6.91 12.41zm-197.05 164.42l-52.09 -14.89 -30.12 -8.07 -21.34 -10.55 -13.18 -6.82 -45.18 -21.1 58.36 27.92 21.34 10.55 82.21 22.96zm176.96 -402.05l28.87 22.34 -2.51 14.27 2.51 -14.27 -2.51 -4.35 0 -2.48 -26.36 -15.51zm-480.07 488.29l-12.55 -6.82 12.55 6.82zm-172.58 -838.22l-27.61 -6.82 10.04 6.82 17.57 0zm-168.81 288.51l-55.85 -17.37 51.46 21.71 4.39 -4.34zm-436.77 -485.81l-135.55 -41.57 135.55 41.57zm-14.43 55.84l-20.08 -8.68 -4.4 4.96 24.48 3.72zm-84.72 94.93l0 -5.58 -13.18 -5.59 0 4.34 13.18 6.83zm-6.28 120.99l-84.71 -25.44 -23.22 -13.03 -33.26 -4.34 -109.82 -19.24 49.57 11.17 60.25 8.07 56.48 17.37 84.71 25.44zm-214.62 612.99l-62.12 -9.92 10.66 4.34 23.85 8.68 27.61 -3.1zm-226.54 -37.22l-81.58 -21.72 -78.45 -27.92 78.45 27.92 70.28 17.37 11.3 4.35zm-19.46 29.16l-13.17 0 13.17 0zm-13.17 -544.75l2.51 -8.69 -13.18 0 10.67 8.69zm64.63 -431.83l13.18 2.48 21.34 -2.48 38.91 6.83 -38.91 -6.83 -34.52 0zm-250.39 485.81l-21.96 -11.17 -30.12 4.34 -23.22 -1.86 -52.09 -6.82 -41.42 -1.87 -60.87 -4.34 -81.58 -4.34 -88.49 -8.07 -25.72 -7.44 -37.03 1.86 -26.36 -1.86 -25.73 -1.24 -49.57 1.24 -222.78 0 -194.54 11.17 -13.18 6.2 -36.4 8.69 -89.11 2.48 -38.91 8.68 -73.42 5.59 -77.82 11.17 -13.17 0 -12.56 3.72 -47.69 8.68 -192.03 32.27 -58.99 11.17 -60.24 9.92 -125.51 26.06 -86.6 25.44 -25.73 6.82 -77.82 29.79 -75.3 27.3 -2.51 0 -25.73 8.68 -21.97 4.34 -47.69 15.52 34.51 -8.69 35.15 -11.17 28.24 -8.68 60.24 -14.28 58.36 -19.85 380.3 -91.2 543.45 -79.42 81.58 -6.21 79.7 -6.82 160.03 -6.2 160.02 -3.73 162.53 0 40.8 5.59 24.47 6.82 62.13 4.34 51.46 0 77.81 6.21 38.91 4.34 13.18 2.48 0 -2.48 25.73 0 42.04 3.72 23.22 3.11zm-692.18 335.04l-8.79 -4.35 8.79 13.03 0 -8.68zm-129.9 -28.54l-51.46 -1.25 -34.52 3.73 85.98 -2.48zm-193.92 -91.21l-21.96 6.83 -25.73 3.1 21.34 -3.1 2.51 0 23.84 -6.83zm-469.4 68.25l-12.55 4.34 1.88 1.86 10.67 -6.2zm-456.23 70.11l-23.22 -1.86 21.34 10.55 -38.91 32.26 38.91 -32.26 15.06 -6.21 -13.18 -2.48zm-276.75 -266.79l24.48 -6.83 -37.65 6.83 13.17 0zm-229.05 -822.09l-56.48 8.07 41.42 0 15.06 -8.07zm77.81 385.92l-52.08 4.34 0 2.48 52.08 -6.82zm-134.29 -256.24l-16.94 4.34 16.94 2.48 0 -6.82zm138.69 -171.25l4.39 3.11 23.85 5.58 1.88 2.48 17.57 -4.34 -19.45 1.86 -23.85 -5.58 12.55 -4.35 -16.94 1.24zm90.36 212.19l0 0 30.75 -13.02 -30.75 13.02zm34.52 6.21l30.75 4.34 4.39 6.83 -4.39 -6.83 -30.75 -4.34zm119.86 290.37l14.43 -1.24 13.18 -8.69 -27.61 9.93zm57.74 -351.79l43.3 -11.17 -13.18 -4.35 -16.95 0 -13.17 15.52zm82.2 -56.47l30.13 -6.2 8.78 -8.69 -38.91 14.89zm103.55 -201.02l90.99 -10.55 -90.99 10.55zm155.63 404.53l82.21 -13.03 -51.46 2.48 -30.75 7.45 0 3.1zm17.57 -235.15l15.69 0 10.04 -1.86 -25.73 1.86zm203.33 583.84l25.73 -6.83 -12.55 1.86 -13.18 4.97zm4.39 -128.43l47.07 -4.97 -38.28 -6.2 -8.79 11.17zm-13.18 -106.72l38.91 1.86 56.48 -4.34 -95.39 2.48zm281.14 -379.09l30.13 -12.41 -30.13 12.41zm82.21 698.62l34.52 -1.86 -34.52 1.86zm82.21 -527.38l12.55 2.48 -12.55 -2.48zm-32 -147.04l30.12 4.34 27.61 6.21 -27.61 -6.21 -15.69 -4.34 -14.43 0zm144.33 373.5l15.69 1.87 0 -1.87 -15.69 0zm-69.03 -279.19l53.97 -8.69 58.36 1.86 -43.3 -1.86 -15.06 0 -53.97 8.69zm281.14 46.53l60.25 -13.65 -47.7 0 -12.55 13.65zm120.49 134.63l11.3 2.49 30.75 -11.17 -42.05 8.68zm69.66 207.85l6.9 3.73 1.26 -3.73 -8.16 0zm142.45 1.24l13.18 -1.24 -19.45 -11.17 6.27 12.41zm350.17 -324.49l26.36 8.07 -8.79 -3.72 -17.57 -4.35zm47.7 375.99l15.69 1.86 14.43 0 -30.12 -1.86zm-2460.62 329.45l-21.33 3.73 -8.79 6.2 -12.55 13.65 12.55 -13.65 30.12 -9.93zm-133.66 -327.59l25.73 -1.86 -55.85 1.86 30.12 0zm-185.76 -456.64l-104.17 25.43 -13.18 0 -16.94 10.55 -23.22 8.69 -15.69 6.82 15.69 -6.82 23.22 -8.69 30.12 -10.55 104.17 -25.43zm-34.51 223.98l-30.75 11.16 4.39 9.93 26.36 -21.09zm88.48 611.13l-19.45 14.89 12.55 -3.72 6.9 -11.17zm-153.75 -47.15l-8.78 3.1 -4.39 1.24 4.39 -1.24 11.29 0 -2.51 -3.1zm38.91 179.93l-38.91 8.68 4.4 9.93 34.51 -18.61zm-64.64 45.29l-43.3 27.3 13.18 -1.86 30.12 -25.44zm-330.71 -519.93l-15.06 6.82 2.51 1.86 12.55 -8.68zm157.51 370.4l-73.42 34.13 20.08 5.58 53.34 -39.71zm192.66 482.71l-11.3 3.72 11.3 0 0 -3.72zm-663.95 -1020.01l-12.55 8.68 12.55 -4.34 0 -4.34zm320.05 709.78l-17.57 25.44 11.3 0 4.39 4.35 -2.51 -4.35 -1.88 0 6.27 -25.44zm-269.84 -8.68l-15.69 -4.34 -8.79 11.16 15.69 -2.48 8.79 -4.34zm-144.97 459.13l-37.02 13.65 15.06 6.2 21.96 -19.85zm-313.77 -392.12l17.57 -8.69 -17.57 8.69 -45.81 27.3 13.18 -4.35 32.63 -22.95zm477.56 814.02l-8.15 8.06 -38.91 24.2 -26.36 20.47 73.42 -52.73zm-358.33 -369.79l55.86 -55.22 -13.18 5.59 -38.91 30.4 -3.77 19.23zm-246.62 -491.39l15.69 -8.68 5.64 -8.69 -21.33 17.37zm279.26 561.5l-20.08 21.72 -38.91 23.58 34.51 -16.76 4.4 -6.82 20.08 -21.72zm-219.02 -209.09l-30.12 25.44 13.18 -4.34 16.94 -21.1zm-390.96 -431.82l26.36 -19.24 -15.69 8.69 -10.67 10.55zm-45.81 -64.53l-16.94 4.34 -6.28 8.69 23.22 -13.03zm-75.31 13.03l-11.29 13.03 13.18 -8.69 -1.89 -4.34zm-75.93 96.79l-47.69 40.33 26.35 -17.38 21.34 -22.95zm-129.27 -122.23l10.66 -10.55 92.88 -70.73 -82.21 59.57 -10.67 11.16 -89.11 83.14 78.45 -72.59zm-5.02 327.59l-8.16 12.41 13.18 -11.16 -5.02 -1.25zm-77.82 -45.29l-51.46 55.22 13.18 -9.93 42.67 -41.57 -4.39 -3.72zm694.69 931.91l-20.08 12.41 4.4 4.34 15.68 -16.75zm101.04 153.87l-109.82 115.4 109.82 -115.4zm-933.79 -1180.08l25.73 -19.86 -25.73 17.37 0 2.49zm-168.81 413.21l-10.04 9.93 10.04 -9.93zm582.36 636.57l-11.29 8.69 11.29 -8.69zm-58.99 103l-10.66 3.1 -8.16 26.68 5.65 -6.83 13.17 -22.95zm-133.66 42.19l77.18 -64.53 -85.97 75.07 8.79 -10.54zm-763.1 -652.09l53.34 -51.49 -12.55 8.68 -40.79 42.81zm0 -125.95l14.43 -10.55 -4.39 -1.86 -10.04 12.41zm276.75 201.03l10.04 -11.17 -3.77 -1.24 -6.27 12.41zm-232.19 141.46l-12.56 18.61 -8.78 8.69 -30.12 34.12 -116.73 100.51 116.73 -100.51 25.73 -22.96 4.39 -11.16 8.78 -8.69 12.56 -18.61zm1115.77 1080.19l-55.85 62.66 12.55 -15.51 43.3 -47.15zm-890.49 -698l4.4 2.48 4.39 -15.51 -8.79 13.03zm-212.11 -142.7l-25.73 11.79 -8.78 13.65 34.51 -25.44zm129.91 159.45l23.84 -29.78 30.75 -51.5 -54.59 81.28zm566.67 480.84l-10.67 26.06 10.67 -26.06zm250.39 222.74l-16.94 38.47 -34.52 47.15 12.55 -15.51 21.97 -31.64 16.94 -38.47zm151.24 168.76l-4.39 9.93 8.78 -8.07 -4.39 -1.86zm-1320.36 -959.2l8.79 -5.58 10.04 -27.3 -18.83 32.88zm265.45 108.58l4.4 0 -4.4 0zm-672.1 -521.8l23.85 -21.09 -13.18 8.07 -10.67 13.02zm303.11 124.09l44.55 -74.45 4.4 -2.48 77.81 -91.83 -82.21 94.31 -44.55 74.45zm498.9 683.73l-21.34 19.23 12.55 -8.68 8.79 -10.55zm-490.74 -335.66l6.27 -14.89 -6.27 14.89 -6.91 13.65 -3.76 11.79 10.67 -25.44zm1325.37 1052.27l-17.57 22.96 -16.94 27.3 16.94 -27.3 17.57 -22.96zm-935.67 -592.52l-37.65 51.5 -10.04 12.4 47.69 -63.9zm-452.46 -205.37l13.18 -19.23 -13.18 19.23zm622.53 478.98l-10.04 4.35 -8.79 13.03 18.83 -17.38zm333.22 228.95l-6.27 6.2 1.88 2.48 4.39 -8.68zm-731.09 -602.45l13.18 -2.48 8.79 -27.3 -21.97 29.78zm-864.76 -334.42l-25.73 39.09 28.24 -23.58 -2.51 -15.51zm276.75 410.73l-47.69 124.71 39.53 -71.35 16.95 -50.88 -8.79 -2.48zm424.22 258.73l-19.45 21.71 10.67 -10.55 8.78 -11.16zm-255.41 -136.5l-8.78 11.17 -4.4 14.27 13.18 -25.44zm1292.75 782.38l-8.79 8.06 -14.43 38.47 23.22 -46.53zm-161.91 -37.23l-28.24 22.34 -25.73 22.95 0 2.48 -4.39 4.35 -8.79 12.41 -4.39 10.54 4.39 -10.54 8.79 -12.41 4.39 -6.83 16.95 -12.41 8.78 -10.54 28.24 -22.34zm-659.55 -271.13l4.39 -8.07 -58.36 53.36 1.88 13.03 52.09 -58.32zm341.38 327.59l-8.78 10.55 4.39 2.48 4.39 -13.03zm-650.13 -502.56l8.78 -4.34 -2.51 -4.34 -6.27 8.68zm667.71 341.87l21.33 -1.87 4.39 -25.43 -25.72 27.3zm-1305.93 -716.61l21.96 -41.57 -17.57 25.43 -4.39 16.14zm1066.2 829.53l-4.39 8.68 13.18 -3.72 -8.79 -4.96zm-261.68 -93.07l0 9.93 0 -9.93zm-406.66 -160.69l16.95 -22.96 -8.16 -5.58 -8.79 28.54zm-148.72 -107.34l-11.3 11.17 -4.39 42.81 15.69 -53.98zm-180.11 6.2l-4.39 15.51 8.78 -15.51 -4.39 0zm843.42 441.14l-30.75 65.77 30.75 -65.77zm389.08 273.61l0 13.03 4.4 -11.17 -4.4 -1.86zm272.36 123.47l-10.67 43.43 10.67 -43.43zm-1349.23 -451.06l-21.33 34.12 -1.89 0 -6.9 11.17 6.9 -11.17 1.89 0 15.68 -21.09 5.65 -13.03zm894.88 408.87l4.4 14.89 -4.4 -14.89zm-1142.76 -470.29l10.04 -8.69 0 -17.99 -10.04 26.68zm-569.18 -169.38l-12.56 13.02 12.56 -13.02zm1814.23 754.45l1.89 -10.54 -4.4 10.54 2.51 0 0 2.48 -6.9 32.27 6.9 -32.27 6.28 -11.16 -6.28 8.68zm-2038.9 -758.8l-8.78 15.51 -43.3 104.24 43.3 -104.24 8.78 -15.51zm1876.37 853.73l-13.18 32.88 13.18 -32.88zm-2248.5 -924.46l6.9 -16.13 -11.29 14.27 4.39 1.86zm1310.32 635.33l-21.97 65.77 8.79 -11.79 15.69 -38.46 -2.51 -15.52zm793.84 312.09l-6.9 6.82 8.79 17.37 -1.89 -24.19zm-535.92 -135.26l-3.14 15.51 3.14 -15.51zm522.75 216.54l-11.3 21.09 8.78 -12.41 2.52 -8.68zm-382.81 -74.46l-8.78 48.4 8.78 -22.96 0 -25.44zm531.53 171.24l-16.94 29.79 2.51 0 14.43 -29.79zm-1068.08 -289.12l-23.22 68.25 10.67 2.48 12.55 -70.73zm-436.77 -24.2l5.02 -31.64 -1.89 17.37 -3.13 14.27zm1591.46 490.15l-8.79 23.58 2.51 0 6.28 -23.58zm-203.33 -22.96l0 -21.71 -4.39 35.98 0 -8.68 4.39 -5.59zm-1214.93 -266.17l-4.39 28.54 4.39 14.9 0 -43.44zm190.15 112.3l-1.26 52.74 10.04 -52.74 -8.78 0zm1054.9 305.26l0 9.93 0 -9.93zm-2001.87 -470.29l4.39 -17.38 0 -13.03 -4.39 30.41zm190.77 45.29l-17.57 95.55 19.45 -59.57 -1.88 -35.98zm-538.43 -361.72l4.39 -15.51 1.88 -1.86 47.7 -183.65 8.15 -34.13 -16.94 53.98 -13.18 50.88 -27.61 114.78 -4.39 15.51zm719.79 -10.55l4.4 49.02 -4.4 -49.02zm613.74 268.65l30.13 -93.06 0 -15.51 -30.13 108.57zm692.19 669.46l-4.39 45.29 -4.4 1.87 -8.78 21.09 13.18 -22.96 8.78 -45.29 -4.39 0zm25.73 4.35l-1.89 12.4 1.89 47.16 8.78 -9.93 -8.78 -49.63zm-1206.15 -155.74l-13.18 42.81 8.79 -15.51 4.39 -27.3zm780.67 241.36l-6.9 11.16 8.78 14.27 -1.88 -25.43zm-1701.91 -262.45l-8.78 50.26 6.9 -17.38 1.88 -32.88zm1479.13 315.18l-10.67 39.09 23.22 -34.12 -12.55 -4.97zm776.28 112.3l-6.91 21.1 -15.06 67.63 -2.51 11.17 2.51 -11.17 15.06 -67.63 4.4 -11.17 2.51 -9.93zm-1010.35 -32.88l0 38.47 7.53 -22.96 -7.53 -15.51zm-1357.39 -202.26l4.4 -19.86 -4.4 19.86zm2216.5 268.03l-6.9 37.22 8.78 0 0 -49.01 -1.88 11.79zm-713.52 -117.27l-2.51 42.81 0 28.54 2.51 0 -2.51 -28.54 2.51 -42.81zm192.03 161.32l-4.4 27.3 13.18 -26.06 -8.78 -1.24zm94.76 11.79l-5.65 15.51 0 -1.86 -2.51 35.98 0 78.8 0 -78.8 2.51 -34.12 5.65 -15.51zm-1067.46 -85l0 -14.89 -4.39 -1.87 4.39 16.76zm1214.93 290.98l-4.39 14.27 0 11.17 4.39 -25.44zm-104.17 44.68l2.51 21.09 19.45 -21.09 -21.96 0zm441.16 186.13l0 42.81 -1.88 22.96 4.39 -11.17 -2.51 -11.79 0 -42.81zm-82.21 183.03l4.4 36.61 6.9 -25.44 -6.9 -11.17 -4.4 0zm-86.6 55.84l0 14.89 0 -14.89zm-1141.51 49.01l0 30.41 6.91 -15.52 -6.91 -14.89zm1297.14 14.89l-3.76 8.69 16.94 19.23 8.79 51.5 4.39 -47.15 -26.36 -32.27zm-881.7 58.33l2.51 6.82 -2.51 -6.82 0 -21.72 0 28.54 0 -6.82zm-1.88 157.59l1.88 10.55 -1.88 -10.55zm1011.6 8.68l-6.9 10.55 8.79 32.27 -1.89 -42.82zm-780.66 149.53l8.78 68.87 -8.78 -68.87zm34.51 81.28l0 24.2 8.79 -38.47 -8.79 14.27zm345.78 -22.96l-8.16 14.89 3.77 0 4.39 -14.89zm-455.6 31.65l-6.9 -55.22 0 16.75 6.9 38.47zm-38.91 166.89l1.88 11.17 2.51 1.86 18.83 79.42 0 -13.65 -16.94 -65.77 -6.28 -13.03zm873.55 -106.71l1.88 8.06 -1.88 -8.06zm-249.14 89.34l8.79 11.17 -4.4 -11.17 -4.39 0zm-977.09 279.82l6.9 43.43 1.89 -45.29 -8.79 1.86zm32.63 24.2l8.79 27.92 -4.39 -27.92 -4.4 0zm1539.38 -245.7l10.66 145.19 0 3.72 4.4 25.44 12.55 28.54 -16.95 -57.7 -4.39 -70.73 -4.39 -34.13 -1.88 -40.33zm-1295.26 472.16l-1.88 16.75 6.27 11.17 -4.39 -27.92zm320.05 12.41l2.51 15.51 10.67 20.47 -13.18 -35.98zm318.16 -59.56l8.79 47.15 1.25 -10.55 -8.15 -36.6 -1.89 0zm187.64 -192.34l-4.39 -21.72 -4.4 2.49 8.79 19.23zm-1777.21 547.23l-43.3 -142.7 -43.3 -143.94 4.39 15.51 21.34 70.11 20.08 72.59 27.61 92.44 13.18 35.99 125.51 384.67 -53.97 -172.48 -19.46 -49.63 -15.06 -53.36 -37.02 -109.2zm2101.65 -343.73l4.39 9.93 -4.39 -9.93zm-6.27 -34.12l18.82 39.71 -18.82 -39.71zm-1610.92 511.87l73.43 201.02 -73.43 -201.02zm752.43 -58.95l-6.27 14.27 18.82 21.72 -12.55 -35.99zm-921.24 286.65l-32 -73.83 10.67 31.02 21.33 42.81zm800.13 -883.51l-4.4 -11.17 0 11.17 4.4 0zm959.52 577.01l8.78 21.71 2.51 -15.51 -11.29 -6.2zm-2192.03 849.38l15.69 25.44 1.88 1.86 -1.88 -1.86 -11.29 -25.44 -4.4 0zm13.18 86.87l4.39 15.51 3.77 0 -8.16 -15.51zm855.98 -303.4l8.78 15.51 -4.39 -15.51 -4.39 0zm640.09 -239.49l2.51 13.03 5.65 -1.86 -8.16 -11.17zm38.91 71.35l12.55 38.47 0 -13.65 -12.55 -24.82zm1054.91 -415.08l2.51 6.21 4.39 14.27 -4.39 -14.27 -2.51 -6.21zm-940.07 427.49l21.34 62.04 -6.28 -41.57 -15.06 -20.47zm-393.47 219.64l-4.39 32.88 6.27 14.27 -1.88 -47.15zm468.78 -50.88l8.78 11.17 -4.39 -13.65 -4.39 2.48zm480.07 -28.54l16.95 31.02 -4.4 -11.17 -12.55 -19.85zm220.27 -55.22l6.9 22.34 1.89 -3.11 -8.79 -19.23zm-687.16 491.39l8.16 13.65 -4.4 -13.65 -3.76 0zm90.36 -45.91l17.58 22.95 -13.18 -22.95 -4.4 0zm251.02 -75.7l21.34 31.65 -8.79 -20.48 -12.55 -11.17zm335.11 -163.79l36.4 58.94 8.79 13.65 -45.19 -72.59zm-1063.06 730.88l18.82 20.47 -17.57 -24.82 -1.25 4.35zm524.63 -224.6l8.78 11.17 -6.27 -13.03 -2.51 1.86zm38.91 52.74l4.39 13.65 13.18 13.02 -8.79 -13.02 -8.78 -13.65zm367.74 -219.64l-1.88 15.51 14.43 21.09 -1.88 -13.02 -10.67 -23.58zm-13.18 21.09l4.39 15.51 13.18 20.48 -17.57 -35.99zm812.67 -454.78l4.4 10.55 4.39 -2.48 -8.79 -8.07zm-2550.98 1171.39l-8.78 -15.51 8.78 15.51zm704.74 98.66l17.57 27.29 4.39 -1.86 -21.96 -25.43zm1669.27 -899.03l20.09 45.3 5.64 6.82 -25.73 -52.12zm-773.76 614.24l-13.18 -21.71 -10.04 -12.41 14.43 25.44 8.79 8.68zm499.53 -318.28l6.27 6.2 -4.39 -8.69 -1.88 2.49zm-1442.73 1083.29l17.57 28.54 15.69 9.92 -33.26 -38.46zm1855.02 -1239.65l4.4 8.69 0 -13.03 -4.4 4.34zm-215.87 220.26l0 14.89 52.09 66.39 -34.52 -42.81 -17.57 -38.47zm302.48 -75.07l8.78 17.37 15.69 18.61 -24.47 -35.98zm-609.35 421.9l-26.36 -31.02 13.18 22.33 13.18 8.69zm-1253.84 943.69l-8.79 -11.79 8.79 11.79zm1279.57 -1042.34l-13.18 -8.69 8.78 10.55 4.4 -1.86zm220.27 262.44l8.78 8.69 13.18 8.69 -21.96 -17.38zm415.43 -303.39l6.91 8.68 6.27 -4.34 -13.18 -4.34zm-252.27 260.58l-8.79 -8.68 -2.51 0 11.3 8.68zm602.44 -474.63l6.91 11.16 1.88 -4.34 -8.79 -6.82zm-918.1 872.34l64.64 70.11 -33.26 -41.57 -31.38 -28.54zm204.58 -72.59l41.42 21.09 -41.42 -21.09zm-77.81 196.68l11.29 6.82 -8.78 -8.69 -2.51 1.87zm-631.32 666.97l11.3 15.51 -11.3 -15.51zm26.36 0l47.07 35.99 4.39 0 34.52 30.4 -10.04 -8.69 -24.48 -21.71 -51.46 -35.99zm55.85 -13.03l13.18 13.03 11.3 6.83 14.43 8.68 -38.91 -28.54zm1413.87 -1409.02l30.12 35.36 17.57 9.93 -47.69 -45.29zm112.33 -80.04l21.96 21.1 21.34 8.68 -43.3 -29.78zm-229.06 317.67l-13.18 -4.35 8.79 8.69 4.39 -4.34zm-176.97 117.26l-4.39 -3.72 -1.88 -4.97 1.88 4.97 2.51 8.68 1.88 -4.96zm-1519.91 1268.19l-64.64 -55.84 -20.08 -4.35 84.72 60.19zm317.53 -523.66l-69.03 -62.04 -47.69 -40.33 116.72 102.37zm158.15 818.37l75.3 66.38 52.09 40.33 13.18 6.83 -140.57 -113.54zm321.93 -320.77l13.18 8.68 -13.18 -11.17 0 2.49zm1267.02 -1466.11l21.33 25.44 17.57 11.17 -38.9 -36.61zm-1184.81 1492.17l11.29 10.54 1.26 -2.48 -12.55 -8.06zm717.91 -890.96l43.3 59.56 -43.3 -59.56zm-4.39 119.75l42.67 25.43 -16.94 -13.03 -25.73 -12.4zm-181.99 416.31l13.18 8.07 11.29 8.68 -11.29 -12.4 -13.18 -4.35zm320.05 -403.91l8.78 6.21 73.43 51.5 116.72 72.59 24.48 14.89 23.21 8.68 -47.69 -23.57 -64.64 -40.33 -21.96 -13.03 -30.12 -19.23 -82.21 -57.71zm471.29 -472.77l13.17 21.71 0 -19.23 -13.17 -2.48zm-276.75 464.09l8.78 8.68 -8.78 -11.16 0 2.48zm52.08 231.42l-45.18 -26.06 6.28 10.55 38.9 15.51zm25.73 3.73l20.09 19.23 10.04 4.34 4.39 -3.1 -34.52 -20.47zm43.3 -62.05l6.91 1.86 6.27 -1.86 -6.27 1.86 -6.91 -1.86zm-224.66 74.45l-30.12 -22.95 8.79 10.55 21.33 12.4zm596.8 -516.82l51.46 40.32 -42.67 -55.21 -8.79 14.89zm-129.9 295.33l-8.79 -6.83 0 4.34 8.79 2.49zm-847.19 1513.26l43.3 22.95 -10.67 -11.17 -32.63 -11.78zm1258.23 -1759.58l16.94 9.93 20.09 11.17 10.04 4.34 -10.04 -4.34 -37.03 -21.1zm-337.62 649.6l-13.18 -4.34 13.18 4.34zm-709.13 1530.64l30.12 15.51 13.18 5.58 -43.3 -21.09zm765.61 -1372.42l34.51 21.71 15.69 -4.34 -50.2 -17.37zm345.78 -606.8l0 15.52 34.51 12.4 -34.51 -27.92zm-527.77 1118.04l-25.73 -11.17 25.73 13.03 47.69 34.13 -47.69 -34.13 0 -1.86zm56.48 -45.29l13.18 4.34 -10.67 -8.68 -2.51 4.34zm21.34 -9.93l24.47 5.59 15.06 8.68 64.64 17.37 69.03 -4.34 -56.48 -8.68 -12.55 13.02 -79.7 -26.05 -24.47 -5.59zm614.37 -1062.82l4.39 6.83 0 -4.96 -4.39 -1.87zm-207.72 572.67l34.51 17.37 -10.04 -8.68 -24.47 -8.69zm151.24 -286.64l8.78 6.82 -1.88 8.69 -2.51 0 8.78 17.37 20.09 9.93 -26.36 -27.3 1.88 -8.69 4.39 -6.82 -13.17 -3.72 0 3.72zm-494.51 1028.07l-11.3 0 11.3 0zm-132.41 250.66l-16.95 -3.1 15.69 5.58 1.26 -2.48zm471.28 -508.76l13.18 6.82 34.52 8.07 16.94 4.34 -12.55 -6.82 -4.39 2.48 -47.7 -14.89zm372.14 -617.34l32.63 18.61 -6.9 -17.37 -25.73 -1.24zm-66.52 260.58l-8.79 -4.96 -2.51 0 11.3 4.96zm-335.74 1198.7l15.69 1.86 -15.69 -1.86zm380.3 -726.54l4.39 23.58 -4.39 -23.58zm-389.08 1164.57l-12.55 0 8.15 0 56.48 14.89 -52.08 -14.89zm700.97 -1935.78l34.51 16.75 30.12 10.55 -64.63 -27.3zm-316.29 1209.86l112.96 21.1 -82.83 -25.44 -30.13 4.34zm276.75 -709.78l24.48 8.68 36.39 0 -60.87 -8.68zm47.69 22.95l-17.57 8.69 37.66 4.34 -20.09 -13.03zm-360.21 696.76l-11.29 -8.69 -15.06 0 26.35 8.69zm144.34 626.03l50.2 4.96 -11.29 -23.58 -38.91 18.62zm103.54 -16.14l17.58 0 -17.58 -6.82 0 6.82zm484.47 -877.3l175.09 23.58 -119.24 -21.1 -55.85 -2.48zm488.23 -621.68l24.48 0 -24.48 0zm-631.31 1825.34l-18.83 0 17.57 4.34 1.26 -4.34zm778.16 -2053.67l11.29 0 -11.29 -4.34 0 4.34zm95.38 87.48l21.97 2.49 0 -4.35 -21.97 1.86zm-62.12 1943.23l14.43 0 4.39 -4.96 30.13 -3.73 30.75 -2.48 -13.18 -4.34 -17.57 6.82 -30.13 3.73 -18.82 2.48 0 2.48zm127.39 -1304.17l12.55 1.86 -12.55 -8.68 0 6.82zm-10.67 727.16l16.95 -4.34 -16.95 4.34zm52.09 -71.35l12.55 2.48 -12.55 -3.72 0 1.24zm14.43 235.15l30.12 -8.07 -30.12 8.07zm114.84 -1224.76l-2.51 -14.89 4.4 0 13.17 -9.93 4.4 0 8.15 -4.34 -8.15 4.34 -4.4 0 -17.57 9.93 2.51 14.89zm40.79 -410.73l56.48 -1.86 -56.48 1.86zm15.69 305.88l10.04 4.34 0 -4.34 -10.04 0 -15.69 6.82 15.69 -6.82zm27.61 126.57l-45.18 -4.34 -2.51 4.34 38.91 1.86 8.78 -1.86zm134.3 451.06l21.34 -1.86 21.33 -2.48 -21.33 2.48 -21.34 1.86zm77.81 917.01l-47.69 0 47.69 0zm30.13 -1409.02l23.84 -5.59 6.28 -4.34 8.78 -4.34 -8.78 4.34 -4.39 0 0 4.34 -25.73 5.59zm64.63 492.01l25.73 4.34 24.48 0 19.45 -3.1 -19.45 3.1 -24.48 0 -25.73 -4.34zm13.18 -451.06l47.7 -2.48 -26.36 -11.17 -21.34 9.31 0 4.34zm146.85 1534.97l-47.69 1.86 34.51 -1.86 13.18 0zm107.94 -83.76l30.75 0 0 -1.86 -30.75 1.86zm-103.55 -1526.29l13.18 2.49 12.55 0 -25.73 -2.49zm146.85 156.36l73.42 -14.89 -60.24 10.54 -13.18 4.35zm104.17 142.7l12.55 0 0 -3.72 -12.55 3.72zm-13.18 -446.72l13.18 0 21.34 -6.21 13.18 -8.68 -47.7 14.89zm207.72 1156.5l32.63 -1.86 -2.51 -4.96 -30.12 6.82zm-140.57 -1087.63l13.18 -2.48 66.52 -19.24 4.39 -1.86 45.81 -4.34 -45.81 4.34 -84.09 23.58zm316.28 869.86l-85.34 23.58 85.34 -23.58zm-119.86 -718.47l52.09 -21.1 54.59 -8.68 48.95 -8.69 -103.54 17.37 -43.3 9.93 -8.79 11.17zm-35.77 -277.96l10.04 -3.72 0 -4.35 -10.04 8.07zm48.95 143.94l-13.18 9.93 13.18 -3.72 0 -6.21zm103.55 -147.66l67.77 -23.58 1.88 0 8.16 -6.83 -8.16 4.35 -69.65 26.06zm342.01 1167.05l-30.75 8.06 30.75 -1.24 0 -6.82zm-251.02 568.32l-47.69 8.69 47.69 -8.69zm376.53 -337.52l77.19 -21.71 13.17 -5.59 -90.36 27.3zm-298.71 -1340.15l50.2 -8.69 10.04 -6.82 -60.24 15.51zm480.07 1549.24l13.18 -4.34 0 -5.59 -13.18 9.93zm-143.08 -559.64l13.18 -8.68 -13.18 4.34 0 4.34zm199.56 400.19l42.67 -11.17 -30.12 0 -12.55 11.17zm-458.74 -1697.53l13.18 -2.48 0 -4.35 -13.18 6.83zm285.54 354.89l17.57 6.2 8.15 -6.2 -25.72 0zm60.24 -17.37l13.18 0 13.18 -3.72 -26.36 3.72zm77.82 137.12l-5.65 0 14.43 0 0 -2.49 -8.78 2.49zm77.81 129.67l69.66 -31.64 -13.18 3.72 -56.48 27.92zm379.04 928.18l-32.63 8.07 16.94 0 15.69 -8.07zm-326.95 -1569.1l4.39 -4.34 4.39 0 0 -4.35 -8.78 8.69zm267.96 570.81l13.18 -4.34 34.51 -19.24 24.48 -15.51 -24.48 13.65 0 1.86 -47.69 23.58zm112.33 94.31l42.05 -24.2 27.61 -12.41 -27.61 12.41 -6.91 4.34 -35.14 19.86zm-73.42 -299.06l11.29 -8.68 1.89 0 -1.89 0 -11.29 8.68zm30.12 -19.85l13.18 -17.37 13.18 -25.44 -13.18 2.48 -13.18 40.33zm-289.3 -668.84l16.94 -8.06 0 -3.11 -16.94 11.17zm129.28 -27.92l21.96 -8.69 -13.18 2.49 -8.78 6.2zm276.74 521.17l13.18 3.1 -1.88 -8.68 -11.3 5.58zm571.07 1124.86l101.66 -53.97 -84.09 40.95 -17.57 13.02zm-341.38 -771.21l-10.67 5.59 1.88 4.34 8.79 -9.93zm-393.48 -746.39l16.95 -13.03 -21.34 2.49 4.39 10.54zm16.95 -42.81l30.12 -10.55 -4.39 -8.68 -25.73 19.23zm-148.73 -367.92l10.67 0 21.33 19.85 -21.33 -19.85 0 -6.2 -10.67 6.2zm598.68 1033.04l-47.69 27.3 13.17 -4.35 34.52 -22.95 23.85 -19.86 -23.85 19.86zm-441.17 -904.61l30.13 -14.89 -10.04 0 -20.09 14.89zm95.39 102.37l2.51 4.35 5.65 -31.65 -5.65 10.55 -2.51 16.75zm-56.48 -145.18l13.18 1.86 15.69 -20.47 -28.87 18.61zm458.11 749.5l-12.55 8.68 4.39 5.59 0 22.95 12.55 4.34 0 -4.34 -12.55 0 0 -22.95 8.16 -14.27zm-293.69 -405.15l-19.45 13.03 15.06 0 4.39 -13.03zm893 1322.78l10.67 -6.2 13.18 -9.31 -13.18 6.82 0 2.49 -10.67 6.2zm-136.18 -352.41l12.55 -9.31 8.79 -11.79 -21.34 21.1zm129.28 132.77l38.9 -25.44 -16.94 1.25 -21.96 24.19zm-663.32 -1158.36l49.57 -34.13 8.79 -11.17 -60.87 42.82 2.51 2.48zm205.21 189.85l-10.67 8.07 13.18 -3.72 -2.51 -4.35zm25.73 93.69l-8.16 4.34 0 4.35 12.55 -4.35 -4.39 -4.34zm315.65 508.76l-27.61 11.17 15.06 0 12.55 -11.17zm-682.77 -1262.6l11.3 -8.68 -3.14 -2.49 -8.16 11.17zm89.11 -4.34l23.22 -6.83 -10.67 -13.03 -6.9 8.69 -5.65 11.17zm1009.1 1709.94l12.55 -9.31 43.3 -31.64 21.96 -17.37 -13.18 11.16 -8.78 6.21 -5.65 4.34 -37.65 27.3 -12.55 9.31zm-278.63 -434.31l14.43 -4.34 8.79 -13.03 -23.22 17.37zm-318.17 -561.5l34.52 1.24 -8.79 -9.93 -25.73 8.69zm899.28 745.15l13.17 -5.58 8.79 -13.03 -21.96 18.61zm13.17 -495.73l8.79 -10.55 -8.79 10.55zm56.48 -109.2l81.58 -83.14 6.91 -13.03 -88.49 96.17zm-255.41 -341.25l2.51 0 49.58 -45.29 -52.09 45.29zm-468.78 -535.44l36.4 -29.16 -36.4 14.89 0 14.27zm377.79 310.22l13.18 -8.06 -4.4 -1.86 -8.78 9.92zm657.67 632.86l8.15 -9.93 -10.04 5.58 1.89 4.35zm-348.29 -427.49l10.67 -8.69 -13.18 6.83 2.51 1.86zm164.42 139.6l88.48 -101.13 38.91 -42.81 -38.91 42.81 -1.88 4.34 -30.13 29.78 -56.47 67.01zm-266.08 -387.78l8.78 -8.06 3.77 -14.89 -12.55 22.95zm302.47 639.68l-32 31.64 10.67 -9.93 21.33 -21.71zm47.7 57.08l-26.36 15.51 -8.16 10.55 34.52 -26.06zm181.36 -681.87l8.78 -10.54 -13.18 6.82 4.4 3.72zm397.86 351.17l13.18 -13.65 6.9 -9.92 -11.29 8.06 -8.79 15.51zm38.91 -47.15l11.3 -8.06 -2.51 -4.35 -8.79 12.41zm-172.58 -199.16l12.56 -18.61 77.81 -94.93 -73.42 90.58 -4.39 4.35 -12.56 18.61zm-164.41 -163.8l4.39 -15.51 21.34 -34.12 0 -1.86 25.73 -29.79 -25.73 29.79 -21.34 35.98 0 1.86 -4.39 13.65zm-352.06 -402.04l8.79 -8.69 -11.3 6.2 2.51 2.49zm-223.4 -258.73l30.75 -21.71 23.84 -25.44 -62.75 38.46 8.16 8.69zm-85.98 -214.05l3.77 -4.34 -3.77 4.34zm817.07 660.15l2.51 2.48 6.27 -6.2 2.51 -6.83 -11.29 10.55zm224.66 126.57l-18.83 21.09 10.05 8.69 8.78 -10.55 0 -19.23zm190.15 -112.92l30.75 -34.13 -8.79 -4.96 -21.96 39.09zm-1004.71 -884.75l8.79 -11.17 -11.3 8.69 2.51 2.48zm161.91 -31.02l4.39 -10.55 -8.78 8.68 4.39 1.87zm795.1 511.24l11.3 -13.03 -2.51 0 -8.79 13.03zm-373.39 -452.92l6.28 -13.03 -1.88 0 -4.4 13.03zm-149.35 -184.27l11.29 -21.1 -8.78 -4.34 -2.51 25.44zm-168.81 -153.87l11.29 -8.07 -11.29 8.07zm647 276.09l57.73 -85 30.75 -60.18 25.73 -63.91 -34.51 70.11 -79.7 138.98zm-281.14 -288.5l1.88 0 -4.39 -13.03 0 -4.35 4.39 -9.92 -4.39 9.92 0 2.49 2.51 14.89zm842.79 307.74l-1.88 4.34 -27.61 57.7 29.49 -62.04 53.97 -83.14 -25.73 35.98 -28.24 47.16zm-326.32 -183.65l32.63 -30.41 -32.63 30.41zm389.08 168.14l-8.79 13.65 -1.88 14.89 10.67 -28.54zm-839.03 -411.98l8.78 -10.55 -8.78 -2.48 0 13.03zm864.76 233.29l6.9 -15.51 1.88 -12.41 -8.78 27.92zm205.83 -182.41l4.4 -14.27 -8.79 13.03 4.39 1.24zm62.13 -22.96l4.39 -15.51 -8.78 13.03 4.39 2.48zm-464.39 -675.04l4.4 -13.03 1.88 -19.85 8.79 -57.7 0 -1.87 2.51 -6.82 1.88 -20.47 -1.88 20.47 -2.51 8.69 -8.79 57.7 -6.28 32.88zm397.87 -126.57l4.39 -10.55 -4.39 -2.48 0 13.03zm-180.11 -248.18l5.02 -8.68 -6.27 8.68 1.25 0zm-57.73 -296.57l-2.51 -13.03 0 13.03 2.51 0zm118.61 -624.16l0 -24.2 -1.89 11.17 1.89 13.03zm64.63 -35.37l8.79 28.54 -13.18 -83.76 4.39 55.22zm-11838.67 -2918.56l11.3 -32.88 -11.3 32.88zm-181.36 -165.04l11.29 -31.64 -11.29 31.64zm531.53 -931.9l21.96 -27.3 0 1.24 8.16 -9.93 -8.16 8.69 -21.96 27.3zm2598.67 -1716.15l17.57 1.87 0 2.48 12.55 -9.31 -12.55 6.83 -17.57 -1.87zm8790.68 5268.18l-38.91 -475.88 -56.48 -310.22 -47.06 -218.4 -13.18 -57.08 -21.34 -63.9 -17.57 -62.67 -21.96 -68.24 -21.34 -58.33 -62.13 -185.51 1.89 0 -1.89 0 -3.13 -9.93 -8.16 -14.27 -4.4 41.57 25.73 100.52 26.36 112.92 19.45 89.96 21.97 93.69 18.83 81.27 -8.79 15.52 -4.39 95.54 8.78 49.64 -1.88 117.26 -23.85 143.95 -8.78 -34.13 -25.73 -88.1 -30.12 -130.29 -17.58 -70.73 -16.94 -72.6 -129.9 -459.12 -40.79 -105.48 -45.81 -102.37 -13.18 -34.13 -14.44 -37.22 -26.35 -70.11 -58.36 -127.81 -173.21 -333.8 -44.55 -63.91 -43.3 -49.01 -43.3 -72.59 -72.17 -85.63 -151.24 -199.16 -38.91 -55.22 -47.69 -65.76 -60.25 -64.53 -26.35 -32.26 -10.04 -6.21 1.88 0 -17.57 -19.23 -95.39 -111.68 -12.55 -8.07 0 2.49 -56.48 -62.67 -77.82 -85.62 -77.81 -57.7 -66.52 -58.94 -30.12 -39.71 -28.87 -35.99 -16.95 -19.23 21.34 32.26 -64.64 -47.15 -73.42 -59.56 -21.96 -17.38 -25.73 -22.95 -64.64 -58.32 -17.57 -14.27 -393.47 -271.76 -8.16 -4.34 -52.09 -34.13 -49.57 -35.98 -86.61 -45.29 -80.32 -51.5 -43.3 -27.3 -43.3 -24.2 -64.64 -34.12 -133.67 -59.56 -32.63 -10.55 -94.76 -50.88 -45.81 -21.71 -56.48 -23.58 0 3.72 -21.34 -9.92 -21.96 -6.83 -18.83 -13.03 -318.16 -115.4 -109.82 -15.51 -63.39 -16.13 -94.76 -25.44 -99.78 -26.06 -25.73 -2.48 30.13 30.4 -380.3 -74.45 -47.69 -6.83 0 1.24 -52.09 -9.92 -55.85 -8.69 -60.87 -4.34 -64.64 -5.59 -64.64 -8.68 -65.26 -4.35 -421.08 -13.65 -365.86 22.34 -77.82 5.58 -51.46 2.48 -52.09 6.21 -90.99 15.51 -82.21 16.75 -82.21 14.89 -73.42 13.03 -64.64 14.27 -129.9 34.75 -75.3 21.71 -62.76 22.96 -65.26 19.85 -133.67 40.33 -333.23 126.57 -324.44 150.77 -419.2 252.52 -64.64 42.81 -21.96 11.17 -12.55 16.75 -108.57 102.99 65.26 0 -153.12 120.99 -171.32 153.87 -65.26 49.01 -51.46 58.33 -30.12 34.12 -32.01 44.05 1.88 3.1 51.46 -38.46 38.91 -34.75 8.79 -5.58 11.29 -2.48 18.83 -10.55 30.12 -16.75 4.39 1.24 -12.55 21.71 -21.96 27.3 -4.39 8.69 2.51 2.48 -41.42 32.26 -40.16 22.96 -177.6 117.26 -15.69 17.38 -23.22 30.4 -24.47 27.3 -43.3 55.84 -42.68 58.32 -21.96 29.16 -21.34 27.92 -43.3 44.67 -36.4 53.98 -28.86 49.01 -38.28 55.84 -26.36 35.99 -43.3 70.11 -51.46 89.96 -17.57 30.41 -95.39 175.58 -55.85 111.06 -26.36 51.5 -21.33 48.39 -129.91 325.11 -92.25 277.96 -80.32 322.01 -13.18 69.49 -4.39 27.3 -1.89 29.78 -6.9 62.67 -12.55 63.9 -8.79 63.91 -6.27 51.49 -11.3 47.16 -43.3 382.19 -51.46 404.53 -38.9 172.48 -4.4 29.78 -4.39 0 -40.79 98.65 -50.2 59.57 -57.74 36.6 -58.99 49.02 -13.18 55.84 13.18 82.51 17.57 71.36 8.16 36.6 4.39 37.23 -5.64 -18.61 -2.51 -12.41 0 8.06 2.51 4.35 5.64 18.61 4.4 0 99.78 323.25 116.72 315.18 51.46 101.14 52.09 107.95 34.51 65.77 26.36 64.53 190.15 344.34 90.99 140.84 185.75 261.21 23.85 34.12 255.41 324.49 62.13 68.87 64.64 55.22 52.08 49.02 34.52 29.78 34.51 31.64 60.88 69.49 38.9 42.81 43.3 38.47 47.7 35.36 42.67 34.75 35.14 21.09 34.52 22.96 64.64 52.12 47.69 37.84 94.76 62.05 93.5 68.87 49.58 75.07 -52.09 3.1 -21.33 -11.79 -4.4 -6.82 -1.88 1.86 6.28 4.96 21.33 11.79 -4.39 7.45 -8.16 12.41 0 58.32 42.68 50.25 65.26 60.81 77.82 42.81 75.93 33.5 47.69 22.34 44.56 27.3 26.36 14.27 21.33 15.51 52.09 23.58 107.94 40.32 357.07 112.92 10.67 0 30.12 11.17 30.12 11.17 30.75 13.03 99.16 34.12 201.44 38.47 88.48 12.41 99.15 19.23 77.82 11.17 38.91 3.1 38.91 4.97 77.81 6.2 73.43 2.48 380.92 19.24 495.13 -41.57 32.01 -5.59 -1.89 -4.34 186.38 -34.12 79.7 -21.72 12.55 0 281.15 -70.73 17.57 -3.72 30.12 -11.17 60.24 -16.75 38.91 -10.55 39.54 0 38.28 -13.65 73.42 -27.3 26.36 -5.58 30.12 -8.69 21.96 0 94.76 -13.03 -55.85 17.37 -26.36 5.59 11.3 0 15.06 -5.59 55.85 -17.37 43.3 -15.51 43.3 -14.27 86.61 -36.6 107.93 -57.71 56.48 -25.43 47.07 -28.54 95.39 -49.02 145.59 -83.14 14.43 -13.03 419.2 -286.02 73.43 -38.47 58.98 -23.58 6.28 14.89 0 9.93 8.79 -8.06 -8.79 -1.87 -6.28 -14.89 6.28 -4.34 43.3 1.86 34.52 -19.23 38.9 -23.58 53.97 -27.3 86.6 -30.4 28.24 -12.41 47.07 35.99 73.42 -15.51 17.57 -8.07 8.79 -8.69 58.99 -47.15 10.04 38.47 -23.22 40.95 -58.99 75.07 -62.13 68.87 -25.73 35.99 -69.65 68.24 -45.81 53.98 -118.61 115.4 -73.42 65.77 -93.51 95.55 -90.36 92.45 -19.46 11.16 6.28 31.65 43.3 68.24 112.33 -31.64 52.09 -34.74 47.69 -35.99 94.76 -78.79 33.26 -25.44 32 -28.54 77.82 -59.57 85.97 -92.44 54.6 -64.53 70.91 -72.59 8.79 -3.1 45.81 -71.35 57.73 -50.88 15.69 -17.37 18.83 -12.41 11.29 -6.82 6.28 -6.21 8.79 -8.68 112.33 -98.03 34.51 -34.13 34.52 -37.23 69.03 -61.42 15.69 -14.27 45.18 -41.57 75.93 -70.11 66.52 -89.34 60.87 -92.45 58.37 -89.96 75.3 -102.38 78.44 -89.96 175.09 -124.09 15.06 -5.58 64.64 -83.76 23.85 -26.06 23.84 -27.3 51.46 -66.39 76.56 -85.62 44.56 4.34 13.18 -8.68 20.08 8.68 10.04 21.1 84.72 37.23 32 16.75 -12.55 21.71 4.39 1.24 45.81 37.23 53.35 12.41 38.9 -12.41 6.91 3.72 6.27 -12.41 64.64 -38.46 32.63 42.81 1.89 29.78 13.17 59.56 -15.06 97.41 19.46 52.74 -4.4 44.05 -13.17 22.96 52.08 -41.57 55.85 -96.79 47.7 -98.03 28.86 -62.05 10.04 -47.77 91 -192.34 8.78 19.86 21.34 -94.31 -8.78 10.55 8.78 -37.85 0 10.55 8.79 -42.81 8.16 -47.16 17.57 -76.93 11.29 -35.99 15.06 -96.79 2.51 -78.17 38.91 -179.93 40.79 -83.76 8.16 -38.47 28.87 -138.36 8.78 -132.77 -3.13 -43.43 -10.05 0 -6.9 26.68 4.39 -26.68 -6.27 0 1.88 -11.79 -4.39 -2.48 4.39 -26.06 6.9 -38.47 0 -39.71 6.28 -35.36 12.55 -93.07 8.79 -35.36 8.78 -75.7 4.4 -79.41 3.76 -73.22 -5.65 -70.11 1.89 -27.92 2.51 -38.46 5.64 -25.44 3.14 -38.47 10.04 -13.03 8.79 -55.84 8.78 -35.98 28.24 -25.44 1.89 -13.03 8.15 -12.41 60.88 -49.64 25.72 0 78.45 173.73 16.94 41.57 21.34 56.46 13.18 24.82 8.78 43.43 -1.88 40.33 27.61 166.89 2.51 85.63 13.18 55.22 17.57 47.15 10.04 55.84 8.79 -13.03 21.34 145.18 8.78 169.38 -4.39 51.5 -8.16 63.91 -10.67 128.43 -17.57 115.4 -28.24 122.85 -4.39 35.36 -10.67 34.13 -19.45 86.86 -21.97 49.63 -30.12 96.17 -5.65 42.81 1.26 0 0 14.89 4.39 1.87 56.48 -9.93 25.73 67.01 4.39 83.76 0 58.32 -8.78 14.89 17.57 -11.17 12.55 -40.33 4.39 -15.51 4.39 -14.27 4.4 -60.18 6.9 -9.93 1.88 -17.37 -4.39 -2.48 8.78 -42.81 21.34 -57.09 34.52 -152 21.96 -27.92 -26.36 160.07 -4.39 45.29 -16.94 97.41 -34.52 117.89 4.39 51.49 -21.96 85.62 0 16.76 -8.79 10.54 -25.72 103.62 4.39 16.13 -52.09 113.54 -21.34 83.76 -32 85 -11.3 11.17 -17.57 42.19 -85.97 195.44 -67.15 149.52 -49.57 106.72 -38.91 81.28 -34.52 72.59 -52.08 72.59 -56.48 91.83 -55.86 85.62 -52.08 76.93 -52.09 76.94 -27.61 53.36 -2.51 35.98 -294.32 335.04 -90.37 118.51 -125.51 134.63 -65.26 89.97 -99.15 112.92 -25.73 19.85 -73.43 70.11 -69.03 68.25 -65.26 66.39 -34.52 31.64 -34.51 32.88 -69.03 61.43 -69.66 63.9 -138.06 122.23 -95.39 81.28 -38.9 27.3 -43.3 17.37 -8.16 11.17 0 4.34 -13.18 8.69 0 1.24 -4.39 22.95 -25.73 17.38 -49.58 35.36 -192.66 138.36 -144.33 89.34 -166.93 89.97 -97.27 51.49 -58.36 36.61 -53.97 24.82 -84.72 39.09 -27.61 17.37 -24.48 29.78 -23.22 14.89 -23.84 23.58 -43.3 19.23 -15.06 8.07 -41.42 24.19 -30.12 9.93 -43.31 23.58 -8.78 2.48 -3.77 2.48 -86.6 40.33 -520.86 207.85 -110.45 34.12 -90.99 29.78 -88.49 34.13 -155.63 44.67 -101.66 25.44 -99.78 24.19 -126.77 31.65 -30.12 11.16 -50.2 3.11 30.12 -9.93 82.21 -23.58 13.18 -4.34 16.94 -3.72 30.12 -11.17 54.6 -19.85 70.91 -14.9 -18.82 -3.72 -15.69 1.24 -47.7 17.38 -92.25 17.99 -95.38 25.44 -75.94 11.78 0 3.11 -17.57 8.06 -77.81 17.38 -30.13 25.43 -86.6 0 -82.21 8.69 -85.97 8.69 -86.6 9.92 -95.39 15.51 -112.33 11.17 -138.69 10.55 -85.97 25.44 -65.27 4.34 -64.63 -6.2 -34.52 -8.69 -181.99 21.09 -42.67 -1.86 -116.72 -4.34 -47.7 -6.2 -36.4 0 16.95 1.86 -34.52 10.54 -32.63 -1.86 0 4.35 -13.18 -4.35 -34.51 -4.34 -30.12 0 -52.09 -6.2 -48.95 1.86 -67.78 4.34 -375.9 -29.78 -1.88 6.82 -279.26 -45.29 -17.57 -4.34 -51.46 -6.21 -79.7 -15.51 -80.32 -12.41 -151.87 -30.4 -101.03 -22.95 -92.88 -19.24 -65.26 -24.19 -116.73 -35.99 -60.24 -18.61 -60.87 -18 -47.7 -14.89 -57.73 -21.09 -58.99 -21.72 -121.12 -39.71 -82.21 -34.12 -81.58 -41.57 -82.21 -34.12 -38.91 -8.07 -43.3 -13.03 -106.05 -45.29 -1.88 4.96 -8.79 -2.48 -8.79 0 -47.69 -25.44 -157.51 -73.21 -80.33 -35.37 -77.81 -42.81 -60.25 -24.19 -123 -61.43 -132.41 -79.41 -60.25 -29.78 -56.47 -35.99 -79.7 -60.8 -80.33 -37.85 -84.09 -55.22 -222.78 -156.97 -466.89 -367.3 -56.48 -38.47 -129.91 -117.89 -120.49 -114.78 -121.11 -117.88 -108.57 -108.58 -263.57 -293.47 -336.99 -436.17 -123 -185.51 -60.24 -91.83 -60.88 -94.3 -71.54 -138.36 -69.65 -101.13 -47.07 -91.21 -43.3 -75.69 -73.42 -138.98 -65.27 -140.22 -25.73 -45.29 -38.91 -62.67 -34.51 -78.8 -64.64 -151.38 -65.26 -152.01 -25.73 -81.28 -34.52 -63.91 -69.66 -165.03 -47.06 -172.49 -52.09 -160.07 -43.3 -220.88 -25.73 -95.55 -21.96 -94.3 -25.73 -173.11 -14.43 -145.8 -24.48 -145.18 -4.39 -155.74 8.78 -126.57 0 -88.1 16.95 -70.11 0 -136.5 34.51 -519.31 52.09 -583.83 17.57 -162.56 8.79 -147.04 8.15 -50.88 15.69 -119.74 18.83 -113.55 38.91 -232.66 34.51 -139.6 47.7 -145.18 52.08 -188 43.3 -151.39 28.24 -79.41 32.01 -83.14 33.26 -75.08 36.39 -85.62 37.03 -79.41 27.61 -27.3 6.91 -13.03 23.21 -68.25 20.09 -30.4 60.24 -112.3 30.12 -53.98 32.64 -53.36 64.63 -104.85 73.43 -108.58 71.54 -96.79 67.14 -81.28 55.86 -29.78 -4.4 40.33 43.3 -40.33 28.24 19.85 -12.55 52.74 5.65 -15.51 8.79 -14.27 13.17 -14.89 13.18 -12.41 112.33 -143.94 114.84 -170.62 70.92 -98.65 38.9 -31.65 69.04 -77.55 4.39 4.96 13.18 -15.51 -13.18 58.32 -21.34 48.4 -30.12 55.84 -69.66 119.74 -25.73 98.03 4.39 4.35 -30.12 79.41 -17.57 66.39 -60.24 136.5 -70.92 149.52 -33.26 64.53 -30.12 66.39 -47.69 121.6 -13.18 32.27 5.02 1.86 -5.02 15.51 -3.77 16.75 2.51 22.96 -28.24 147.04 29.5 -3.1 -3.77 14.27 -1.88 17.37 -30.12 89.97 -20.08 49.63 -13.18 25.44 -16.94 29.78 -34.52 35.99 2.51 0 32.01 -35.99 30.12 -55.22 -8.79 44.05 -4.39 14.89 -4.39 6.83 -3.77 8.06 3.77 -8.06 4.39 -6.83 -10.04 32.27 -2.51 14.27 38.91 0 38.9 -37.23 58.37 -146.42 66.52 -142.71 47.69 -85.62 24.47 -55.22 27.62 -53.35 55.85 -102.38 108.56 -197.92 55.86 -95.55 30.74 -55.22 202.7 -286.64 60.87 -53.36 17.58 -29.78 81.58 -96.17 80.95 -87.48 160.03 -147.67 18.82 -6.2 62.76 -58.32 58.36 -47.16 55.85 -38.46 64.64 -44.05 102.29 -49.64 170.69 -119.74 160.02 -149.53 82.21 -70.11 42.68 -38.47 39.53 -34.12 69.03 -58.32 112.33 -85.63 107.94 -83.13 73.42 -57.71 73.43 -55.84 155.63 -102.37 17.57 -4.34 25.73 -18.62 104.17 -69.48 60.25 -20.48 13.18 20.48 129.9 -50.26 69.03 -2.48 15.06 -4.35 32.63 46.54 -95.39 111.68 2.51 88.1 62.13 -38.47 26.36 -15.51 62.75 -40.33 10.67 -11.17 60.25 -35.98 164.41 -93.69 82.21 -47.15 82.21 -47.15c198.93,-105.48 402.26,-194.82 629.43,-284.79l295.57 -104.23 30.75 -13.03 510.2 -126.57 60.24 -9.93 112.34 -19.85 112.33 -16.75 112.95 -14.9 107.94 -9.3 64.64 -6.21 146.85 4.35 30.75 19.85 97.89 14.27 122.38 6.21 99.15 11.16 134.29 16.76 116.73 32.88 104.17 37.23 73.42 6.82 73.43 7.45 142.45 16.75 106.68 14.27 69.03 26.06 109.82 36.6 97.9 17.37 96.64 18.62 190.15 42.81 25.73 19.85 26.35 8.07 0 8.68 13.18 1.87 71.54 21.09 38.91 19.23 64.64 39.09 136.18 35.99 142.45 38.47 0 -1.87 24.47 0c213.37,49.02 403.52,112.92 615.63,208.47l129.27 58.32 95.39 36.61 90.99 44.67 293.7 145.19 121.11 72.59 129.9 75.69 298.09 195.44 69.66 47.77 64.63 47.16 123.63 99.89 70.91 62.66 69.03 52.74 21.97 19.24 121.11 116.02 55.86 57.7 58.99 59.56 -2.51 4.35 121.11 140.84 23.85 68.86 8.78 14.9 15.07 26.05 60.24 95.55 86.6 96.79 15.69 25.44 114.21 142.7 38.28 81.28 60.88 89.96 2.51 15.51 14.43 20.48 8.79 13.65 4.39 -2.48 77.81 111.06 69.66 109.19 16.95 22.96 13.17 28.54 4.4 12.41 90.36 150.15 43.3 75.69 38.91 75.69 237.84 549.72 0 63.9 38.91 108.58 34.52 112.92 43.3 150.15 26.35 130.29 25.73 117.88 4.4 89.97 -27.62 -49.64 -38.9 -132.77 -42.05 -129.67 -10.04 -39.71 -34.52 -93.07 -37.65 -93.69 -51.46 -42.81 -10.67 20.48 6.28 109.2 20.08 68.24 153.12 541.65 15.06 57.08 10.67 55.84 25.73 106.72 15.69 53.98 32.01 170.62 13.17 83.14 12.55 85.62 11.3 187.99 -2.51 79.42 4.39 88.72 4.4 52.12 2.51 51.5 -2.51 89.96 -17.58 78.8 -8.15 14.89 -21.97 27.92 0 12.41 -30.12 -89.97z"/>
   <polygon class="fil3" points="15944.08,16901.45 15950.99,16892.77 15957.26,16865.47 15948.48,16876.01 "/>
   <path class="fil4" d="M14093.45 14744.17c0,295.96 0,591.29 -21.34,885.38 -25.73,291.6 -112.33,557.77 -341.38,763.14 -168.81,143.94 -369.63,212.19 -584.25,241.35 -220.27,34.75 -444.93,34.75 -667.71,36.61 -465.01,2.48 -927.52,4.34 -1394.41,-1.86 -242.23,-2.48 -484.47,0 -726.7,-42.81 -488.86,-88.11 -791.34,-405.77 -851.58,-895.92 -25.73,-217.78 -30.12,-439.9 -34.52,-660.15 -1.88,-455.41 -4.39,-912.67 0,-1370.56 4.4,-240.73 2.51,-482.7 47.07,-724.06 86.6,-477.12 411.04,-778.03 899.9,-840.08 224.66,-27.92 447.44,-27.92 670.22,-31.64 231.57,-4.34 462.5,-3.1 695.95,-3.1 417.32,3.1 837.15,-8.07 1253.84,24.2 302.48,22.95 577.97,108.57 782.55,349.93 164.42,188.61 232.19,416.93 246.63,656.42 38.91,536.69 30.12,1075.85 25.73,1613.15zm488.86 -1636.1c-23.22,-316.43 -107.94,-615.48 -302.48,-879.17 -298.71,-398.94 -722.31,-572.67 -1212.42,-611.13 -448.07,-31.65 -893.63,-21.72 -1339.19,-22.96l-168.18 0c-397.86,0 -795.73,-6.83 -1189.2,38.47 -674.61,74.45 -1163.47,488.91 -1329.15,1126.1 -76.56,281.68 -76.56,568.32 -80.32,854.97 -4.39,448.58 -4.39,901.5 -1.88,1350.7 1.88,276.1 5.64,549.71 38.9,823.33 77.82,660.15 492.63,1138.51 1134.61,1309.75 285.53,72.59 574.83,72.59 864.76,75.08 458.11,6.2 916.84,6.2 1374.95,1.86 272.36,0 544.71,-1.86 817.07,-34.13 739.25,-85.62 1245.68,-560.26 1366.8,-1286.79 47.06,-271.14 47.06,-549.1 47.06,-827.05 0,-639.06 21.97,-1278.12 -21.33,-1919.03z"/>
   <polygon class="fil5" points="13293.95,13230.92 12950.06,12895.88 13289.56,12560.84 13630.95,12891.53 "/>
   <path class="fil6" d="M11775.92 15315.6c-514.59,-1.86 -931.28,-416.31 -931.28,-934.38 0,-512.49 421.08,-922.6 948.85,-922.6 510.19,0 927.51,418.8 927.51,927.56 0,514.97 -419.2,929.42 -945.08,929.42zm13.17 -2366.99c-804.51,0 -1457.16,639.68 -1457.16,1430.74 -1.88,797.89 647,1440.67 1450.89,1440.67 802,0 1450.26,-641.54 1450.26,-1433.84 0,-791.06 -645.75,-1434.46 -1443.99,-1437.57z"/>
  </g>
 </g>
</svg>
