<?xml version="1.0" encoding="UTF-8"?>
<!DOCTYPE svg PUBLIC "-//W3C//DTD SVG 1.1//EN" "http://www.w3.org/Graphics/SVG/1.1/DTD/svg11.dtd">
<!-- Creator: CorelDRAW -->
<svg xmlns="http://www.w3.org/2000/svg" xml:space="preserve" width="210mm" height="297mm" version="1.1" style="shape-rendering:geometricPrecision; text-rendering:geometricPrecision; image-rendering:optimizeQuality; fill-rule:evenodd; clip-rule:evenodd"
viewBox="0 0 21000 29700"
 xmlns:xlink="http://www.w3.org/1999/xlink"
 xmlns:xodm="http://www.corel.com/coreldraw/odm/2003">
 <defs>
  <style type="text/css">
   <![CDATA[
    .fil3 {fill:url(#id0)}
    .fil0 {fill:url(#id1)}
    .fil1 {fill:url(#id2)}
    .fil2 {fill:url(#id3)}
    .fil4 {fill:url(#id4)}
    .fil5 {fill:url(#id5)}
   ]]>
  </style>
  <linearGradient id="id0" gradientUnits="userSpaceOnUse" x1="16764.31" y1="17850.67" x2="16791.3" y2="17823.99">
   <stop offset="0" style="stop-opacity:1; stop-color:#E59939"/>
   <stop offset="0.25098" style="stop-opacity:1; stop-color:#F2CF6A"/>
   <stop offset="0.529412" style="stop-opacity:1; stop-color:#E6A33D"/>
   <stop offset="0.831373" style="stop-opacity:1; stop-color:#D98A39"/>
   <stop offset="1" style="stop-opacity:1; stop-color:#F2CF6A"/>
  </linearGradient>
  <linearGradient id="id1" gradientUnits="userSpaceOnUse" xlink:href="#id0" x1="12145.28" y1="22174.36" x2="12201.77" y2="22118.5">
  </linearGradient>
  <linearGradient id="id2" gradientUnits="userSpaceOnUse" xlink:href="#id0" x1="17026.05" y1="16655.41" x2="17107.01" y2="16575.35">
  </linearGradient>
  <linearGradient id="id3" gradientUnits="userSpaceOnUse" xlink:href="#id0" x1="6601.07" y1="20284.65" x2="15823.43" y2="11166.25">
  </linearGradient>
  <linearGradient id="id4" gradientUnits="userSpaceOnUse" xlink:href="#id0" x1="9849.89" y1="18081.54" x2="14710.57" y2="13335.23">
  </linearGradient>
  <linearGradient id="id5" gradientUnits="userSpaceOnUse" xlink:href="#id0" x1="12166.62" y1="15840.57" x2="13184.08" y2="14835.83">
  </linearGradient>
 </defs>
 <g id="Camada_x0020_1">
  <metadata id="CorelCorpID_0Corel-Layer"/>
  <g id="_2908623282032">
   <polygon class="fil0" points="12121.43,22150.78 12203.03,22150.78 12219.97,22140.85 "/>
   <polygon class="fil1" points="17077.51,16615.07 17081.91,16551.15 17068.73,16562.32 17051.78,16621.9 17046.76,16675.89 "/>
   <path class="fil2" d="M16919.97 13838.53l-11.3 -21.72 6.91 24.2 4.39 -2.48zm53.35 -262.51l-3.76 -28.55 -4.4 0 8.16 28.55zm69.67 -191.14l-8.78 -42.2 4.39 46.54 4.39 -4.34zm-95.4 -47.17l-32.01 -57.09 -15.7 -21.1 15.7 21.1 32.01 57.09zm-118.63 34.75l-6.91 4.35 6.91 -4.35zm-80.34 49.65l4.39 -15.51 -17.58 -36 13.19 51.51zm190.18 -196.73l13.18 8.69 -16.95 -41.58 -13.18 -34.13 13.18 34.13 3.77 32.89 -3.77 5.59 3.77 -5.59zm56.49 -117.91l-6.28 -13.03 1.89 15.51 4.39 -2.48zm-428.07 145.22l0 -31.65 -4.4 -8.69 4.4 17.38 0 22.96zm32.64 -320.85l-6.91 -29.79 -13.18 -8.69 5.02 15.52 15.07 22.96zm-166.96 -55.85l-4.4 -12.41 -4.39 2.48 8.79 9.93zm-224.71 -390.36l-4.39 -15.51 -16.95 -21.72 21.34 37.23zm-164.45 -24.2l-18.83 -18.62 14.44 18.62 4.39 0zm259.86 -463.58l-8.79 -25.45 -1.88 1.86 10.67 23.59zm-276.81 -70.75l23.86 11.17 -23.86 -11.17 -32.63 -25.45 32.63 38.48 0 -13.03zm-88.5 -13.03l-4.39 -14.28 -15.69 -6.82 20.08 21.1zm-343.96 -14.28l-30.76 -28.54 17.58 19.85 13.18 8.69zm202.74 -567.22l-42.68 -34.13 15.06 21.72 27.62 12.41zm-432.47 124.12l-23.22 -18.62 -4.4 -4.34 4.4 4.34 6.28 8.07 16.94 10.55zm-328.27 -22.96l-6.28 -8.69 -11.29 -8.69 17.57 17.38zm85.99 -346.3l-42.68 -39.09 42.68 39.09zm-73.44 -479.1l-30.12 -27.92 30.12 27.92zm-224.7 117.3l-6.28 -10.55 10.67 -25.45 -10.67 25.45 6.28 10.55zm-198.97 165.08l-51.47 -15.52 -30.76 -8.69 -21.34 -8.69 -10.67 -8.68 -45.82 -21.1 56.49 29.78 21.34 8.69 82.23 24.21zm177.63 -400.29l30.13 21.1 -1.89 13.03 1.89 -13.03 -4.4 -5.58 2.51 -3.11 -28.24 -12.41zm-480.17 485.31l-13.18 -6.83 13.18 6.83zm-173.24 -837.81l-25.73 -6.82 8.79 8.69 16.94 -1.87zm-168.21 288.58l-56.49 -14.89 54.6 18.61 1.89 -3.72zm-432.47 -483.44l-139.34 -44.69 139.34 44.69zm-17.57 53.99l-22.6 -6.83 -0.63 4.35 23.23 2.48zm-84.74 95.57l0.63 -4.34 -14.44 -8.69 0 4.34 13.81 8.69zm-6.9 122.26l-84.11 -27.93 -23.85 -13.03 -31.39 -4.35 -111.72 -18.61 48.33 9.93 63.39 8.68 55.24 17.38 84.11 27.93zm-215.29 611.28l-61.52 -11.17 10.05 4.35 24.48 8.69 26.99 -1.87zm-225.96 -38.47l-82.23 -21.1 -77.83 -28.55 77.83 28.55 70.3 18.61 11.93 2.49zm-20.09 30.41l-11.93 0 11.93 0zm-10.67 -545.51l0.63 -6.2 -13.18 0 12.55 6.2zm64.02 -431.93l14.44 3.72 20.71 -3.72 36.41 8.07 -36.41 -8.07 -35.15 0zm-251.07 485.3l-23.85 -8.06 -28.24 1.24 -24.48 -1.24 -51.47 -4.35 -40.17 -4.34 -60.89 -4.35 -82.22 -4.34 -89.13 -6.83 -26.36 -8.68 -35.15 4.34 -26.99 -4.34 -27.62 -1.87 -48.33 1.87 -170.1 0 -50.21 2.48 -195.84 8.69 -12.55 6.2 -38.29 11.17 -87.24 1.24 -40.17 6.83 -75.95 6.21 -75.32 13.03 -13.81 0 -11.93 2.48 -47.7 8.69 -192.69 34.13 -59.01 8.07 -59.62 10.55 -126.17 25.44 -87.24 26.07 -26.36 8.07 -75.95 28.54 -75.95 27.31 -3.14 0 -23.85 8.69 -23.22 6.83 -47.08 12.41 35.78 -8.07 34.52 -11.17 26.99 -8.69 60.26 -14.27 59.62 -17.38 381.63 -94.33 540.42 -76.33 82.23 -8.69 80.97 -6.83 158.8 -6.2 160.68 -2.49 161.94 0 41.43 4.35 23.22 6.82 64.02 4.35 27.62 0 24.48 1.24 77.83 7.45 37.03 1.24 13.81 2.48 1.26 -2.48 23.22 0 42.05 4.34 24.48 2.48zm-692.32 338.23l-8.16 -4.35 8.16 9.93 0 -5.58zm-129.3 -28.55l-50.21 -4.34 -35.78 6.82 85.99 -2.48zm-193.95 -94.33l-23.85 6.83 -25.73 4.34 23.85 -4.34 1.88 0 23.85 -6.83zm-470.75 71.37l-12.55 4.34 12.55 -4.34zm-457.57 68.26l-22.6 -2.48 21.97 11.17 -38.91 31.65 38.91 -31.65 15.69 -4.34 -15.06 -4.35zm-274.29 -264.99l22.59 -8.69 -35.77 8.69 13.18 0zm-231.61 -825.39l-55.24 10.55 41.43 0 13.81 -10.55zm80.34 386.63l-53.35 4.34 1.88 2.49 51.47 -6.83zm-136.83 -253.82l-14.44 1.86 15.69 1.86 -1.25 -3.72zm141.22 -171.29l5.65 0 21.34 6.21 3.14 2.48 15.06 -4.34 -18.2 1.86 -21.34 -6.21 10.04 -2.48 -15.69 2.48zm91.64 209.76l0 0 29.5 -13.03 -29.5 13.03zm33.9 8.69l30.12 3.73 1.89 4.34 -1.89 -4.34 -30.12 -3.73zm117.37 287.96l13.81 -1.86 15.06 -8.69 -28.87 10.55zm60.88 -352.5l39.55 -8.69 -11.93 -6.82 -14.43 0 -13.19 15.51zm80.35 -55.23l29.5 -4.35 10.04 -11.17 -39.54 15.52zm101.68 -199.21l91.01 -13.04 -91.01 13.04zm156.92 401.52l81.59 -12.41 -52.09 3.72 -29.5 6.83 0 1.86zm16.32 -232.72l16.32 0 12.55 -2.48 -28.87 2.48zm205.24 581.5l23.86 -6.83 -10.05 3.1 -13.81 3.73zm1.89 -127.85l50.21 -2.48 -40.17 -6.21 -10.04 8.69zm-11.3 -105.5l37.03 2.48 57.75 -4.34 -94.78 1.86zm282.45 -380.42l29.5 -9.93 -29.5 9.93zm79.09 701.27l38.91 -4.34 -38.91 4.34zm85.36 -529.99l10.67 2.48 -10.67 -2.48zm-33.89 -147.08l30.12 3.72 28.25 8.69 -28.25 -8.69 -13.18 -3.72 -16.94 0zm144.99 373.6l15.06 4.34 0 -4.34 -15.06 0zm-70.93 -279.89l55.86 -6.83 57.12 2.49 -40.8 -2.49 -16.32 0 -55.86 6.83zm281.82 47.17l60.26 -13.04 -44.56 1.86 -15.7 11.18zm122.4 134.04l10.67 4.35 30.13 -12.41 -40.8 8.06zm68.42 207.9l6.9 4.35 1.26 -4.35 -8.16 0zm141.85 1.86l15.06 -1.86 -20.08 -11.17 5.02 13.03zm353.38 -322.7l23.85 6.2 -9.41 -4.34 -14.44 -1.86zm47.07 374.21l13.81 2.49 14.44 0 -28.25 -2.49zm-2460.46 328.92l-24.48 4.34 -5.02 8.69 -13.19 11.17 13.19 -11.17 29.5 -13.03zm-134.33 -326.43l23.23 -2.49 -55.24 2.49 32.01 0zm-188.3 -456.14l-103.56 26.06 -13.18 0 -15.69 8.07 -24.48 8.69 -12.56 8.69 12.56 -8.69 24.48 -8.69 28.87 -8.07 103.56 -26.06zm-33.26 225.28l-30.76 8.06 5.02 10.55 25.74 -18.61zm88.5 608.8l-20.09 15.51 13.18 -4.34 6.91 -11.17zm-151.9 -47.17l-8.78 4.35 -4.4 2.48 4.4 -2.48 9.41 0 -0.63 -4.35zm38.92 182.46l-40.8 5.58 5.02 13.04 35.78 -18.62zm-65.91 42.2l-42.68 30.41 13.18 -2.48 29.5 -27.93zm-331.41 -519.44l-13.81 8.07 0.63 0 13.18 -8.07zm158.18 369.88l-72.81 34.75 18.2 5.58 54.61 -40.33zm192.06 483.44l-11.92 4.34 11.92 0 0 -4.34zm-665.33 -1017.78l-11.92 6.21 15.06 -4.34 -3.14 -1.87zm320.11 709.96l-14.43 25.45 9.41 0 4.4 4.34 -2.51 -4.34 -1.89 0 5.02 -25.45zm-268.64 -11.17l-13.18 -4.34 -11.93 11.17 16.32 -2.48 8.79 -4.35zm-146.25 461.73l-35.77 11.17 13.81 6.2 21.96 -17.37zm-312.58 -395.32l17.58 -6.83 -17.58 6.83 -46.44 27.3 15.69 -1.24 30.75 -26.06zm477.66 817.32l-9.41 5.59 -38.29 24.2 -26.99 21.1 74.69 -50.89zm-359.03 -372.36l55.24 -55.85 -10.04 8.69 -39.55 27.3 -5.65 19.86zm-244.79 -492.13l13.81 -6.2 6.28 -10.55 -20.09 16.75zm278.06 564.74l-19.46 21.72 -38.91 21.1 32.64 -15.51 6.27 -5.59 19.46 -21.72zm-217.17 -212.24l-33.27 26.06 13.18 -4.34 20.09 -21.72zm-392.92 -428.83l25.73 -21.72 -13.81 8.69 -11.92 13.03zm-45.2 -67.03l-15.69 4.35 -8.16 11.17 23.85 -15.52zm-75.95 15.52l-11.92 9.93 13.18 -5.59 -1.26 -4.34zm-75.32 93.71l-48.33 40.34 27.62 -17.38 20.71 -22.96zm-131.18 -119.78l11.93 -12.41 94.15 -71.37 -82.23 62.68 -11.92 8.69 -87.25 85.64 75.32 -73.23zm-1.88 325.2l-10.04 13.03 12.55 -11.17 -2.51 -1.86zm-77.83 -45.31l-52.73 55.86 11.3 -10.55 45.82 -40.96 -4.39 -4.35zm692.95 934.62l-19.46 10.55 3.76 4.34 15.7 -14.89zm101.68 151.42l-110.47 117.92 110.47 -117.92zm-933.98 -1179.75l24.48 -19.24 -26.99 17.38 2.51 1.86zm-167.58 412.7l-12.56 10.55 12.56 -10.55zm579.96 638.59l-9.41 7.45 9.41 -7.45zm-59.63 101.16l-9.41 4.34 -8.79 25.45 6.91 -3.73 11.29 -26.06zm-133.06 44.68l79.09 -65.78 -86.62 74.47 7.53 -8.69zm-762.62 -654.11l53.98 -51.51 -13.81 8.69 -40.17 42.82zm0 -125.98l13.81 -8.69 -2.51 -2.48 -11.3 11.17zm276.8 201.07l11.3 -8.68 -3.77 -2.49 -7.53 11.17zm-230.35 140.88l-15.69 21.72 -7.54 5.59 -32.01 34.75 -113.61 100.54 113.61 -100.54 26.99 -23.58 5.02 -11.17 7.54 -5.59 15.69 -21.72zm1113.48 1083.56l-56.49 60.2 15.7 -13.04 40.79 -47.16zm-890.03 -701.27l3.14 2.48 6.9 -14.9 -10.04 12.42zm-212.78 -140.88l-25.74 11.17 -9.41 14.28 35.15 -25.45zm129.3 158.25l25.1 -29.79 30.76 -49.02 -55.86 78.81zm568.67 482.83l-11.3 24.2 11.3 -24.2zm250.44 220.93l-16.32 38.47 -36.41 47.17 13.18 -15.52 23.23 -31.65 16.32 -38.47zm152.52 168.18l-3.76 13.03 5.64 -9.93 -1.88 -3.1zm-1322.5 -957.58l8.79 -6.21 10.04 -27.92 -18.83 34.13zm266.13 106.74l1.89 0 -1.89 0zm-672.86 -521.3l25.11 -21.72 -14.44 8.69 -10.67 13.03zm302.54 123.5l47.7 -73.85 1.25 -3.1 77.84 -91.23 -79.09 94.33 -47.7 73.85zm498.37 684.52l-18.83 19.86 11.92 -8.69 6.91 -11.17zm-489.59 -335.12l6.28 -15.52 -6.28 15.52 -7.53 14.27 -3.76 11.17 11.29 -25.44zm1325.02 1053.15l-16.95 21.72 -19.46 29.79 19.46 -29.79 16.95 -21.72zm-935.86 -593.91l-38.92 53.37 -8.16 10.55 47.08 -63.92zm-451.3 -205.42l13.81 -18.62 -13.81 18.62zm623.91 481.58l-12.55 4.35 -8.79 9.92 21.34 -14.27zm332.66 226.52l-7.53 6.2 2.51 2.49 5.02 -8.69zm-733.74 -601.36l15.69 -4.34 8.79 -27.31 -24.48 31.65zm-861.79 -335.12l-26.37 40.34 26.99 -22.96 -0.62 -17.38zm277.43 412.08l-50.22 124.11 38.92 -70.12 16.32 -51.51 -5.02 -2.48zm420.54 256.92l-18.21 21.1 10.05 -8.69 8.16 -12.41zm-252.96 -137.15l-11.29 11.17 -3.14 16.76 14.43 -27.93zm1293.63 782.57l-10.04 8.69 -15.69 38.48 25.73 -47.17zm-163.82 -34.13l-28.87 21.1 -23.85 24.2 0 1.86 -4.4 4.35 -10.04 11.17 -6.28 12.41 6.28 -12.41 10.04 -11.17 4.4 -6.21 15.69 -15.51 8.16 -8.69 28.87 -21.1zm-658.43 -271.2l1.89 -11.17 -57.12 55.85 0.63 11.17 54.6 -55.85zm342.09 325.19l-8.79 9.93 2.51 2.48 6.28 -12.41zm-652.15 -500.82l8.16 -6.21 -3.14 -4.34 -5.02 10.55zm669.09 340.09l20.09 -1.87 6.9 -25.44 -26.99 27.31zm-1308.69 -716.17l21.97 -40.96 -15.69 25.44 -6.28 15.52zm1067.67 829.73l-4.4 8.69 13.18 -4.34 -8.78 -4.35zm-260.49 -94.33l-2.51 13.04 2.51 -13.04zm-406.73 -158.25l15.7 -23.58 -6.28 -4.34 -9.42 27.92zm-150.64 -109.22l-9.41 11.17 -6.91 44.68 16.32 -55.85zm-177.63 8.69l-4.39 12.41 6.27 -12.41 -1.88 0zm841.71 440l-31.39 64.54 31.39 -64.54zm387.9 272.44l0 12.41 6.27 -8.07 -6.27 -4.34zm275.55 125.36l-12.56 40.96 12.56 -40.96zm-1352.01 -453.04l-21.97 36.62 -0.62 0 -8.16 8.69 8.16 -8.69 0.62 0 16.32 -23.58 5.65 -13.04zm898.2 408.98l1.25 14.27 -1.25 -14.27zm-1146.13 -470.41l11.3 -8.69 -1.25 -15.52 -10.05 24.21zm-569.92 -169.43l-9.42 12.42 9.42 -12.42zm1815.85 757.13l0.63 -13.03 -3.14 11.17 2.51 1.86 0 1.86 -5.02 30.41 5.02 -30.41 5.02 -12.41 -5.02 10.55zm-2038.67 -758.99l-8.79 13.03 -41.43 106.75 41.43 -106.75 8.79 -13.03zm1876.73 850.84l-11.93 35.99 11.93 -35.99zm-2248.94 -923.45l6.27 -16.75 -8.78 14.27 2.51 2.48zm1311.2 637.35l-23.85 63.92 11.3 -13.03 13.81 -38.48 -1.26 -12.41zm792.75 309.06l-6.28 8.69 6.91 15.51 -0.63 -24.2zm-536.66 -134.05l-0.63 14.89 0.63 -14.89zm523.48 218.45l-10.67 18.62 6.9 -13.03 3.77 -5.59zm-380.37 -75.71l-10.04 47.16 6.9 -21.1 3.14 -26.06zm528.5 169.42l-16.95 31.65 2.51 0 14.44 -31.65zm-1065.79 -286.09l-25.1 68.26 9.41 1.24 15.69 -69.5zm-437.48 -26.07l5.02 -29.79 -3.77 14.28 -1.25 15.51zm1592.4 492.13l-10.67 21.1 2.51 0 8.16 -21.1zm-206.51 -24.2l3.14 -9.93 0 -11.17 -6.9 34.13 2.51 -8.69 1.25 -4.34zm-1212.03 -266.86l-4.39 27.31 1.25 17.38 3.14 -44.69zm188.3 111.09l-1.88 55.85 9.41 -55.85 -7.53 0zm1054.49 307.81l0 8.69 2.51 -8.69 -2.51 0zm-2001.01 -470.41l4.39 -19.86 0 -9.92 -4.39 29.78zm189.55 44.69l-15.69 93.71 18.2 -59.58 -2.51 -34.13zm-537.91 -363.67l4.39 -14.28 0.63 -2.48 51.47 -184.31 5.02 -34.14 -15.69 55.86 -13.18 50.89 -28.25 114.18 -4.39 14.28zm718.05 -9.93l5.65 51.51 -5.65 -51.51zm616.38 269.34l31.38 -92.47 -0.63 -17.38 -30.75 109.85zm692.94 669l-7.53 45.3 -1.88 1.24 -11.3 21.72 13.18 -22.96 10.67 -43.44 -3.14 -1.86zm24.48 6.82l-1.88 9.93 1.88 47.17 7.54 -8.69 -7.54 -48.41zm-1205.75 -159.49l-15.69 43.44 10.04 -14.89 5.65 -28.55zm780.19 242.03l-5.65 11.17 8.79 14.9 -3.14 -26.07zm-1703.49 -260.65l-7.54 51.51 6.91 -19.24 0.63 -32.27zm1479.41 314.65l-9.41 38.47 25.11 -34.13 -15.7 -4.34zm777.69 112.94l-5.65 21.1 -16.32 67.03 0 9.93 0 -9.93 16.32 -67.03 3.76 -12.41 1.89 -8.69zm-1008.67 -34.13l-0.63 38.48 5.65 -22.96 -5.02 -15.52zm-1360.79 -202.93l6.91 -17.38 -6.91 17.38zm2218.19 269.33l-5.65 38.48 6.28 0 1.25 -49.65 -1.88 11.17zm-713.66 -117.91l-3.14 42.82 -0.63 27.31 3.77 0 -3.14 -27.31 3.14 -42.82zm191.44 160.74l-1.89 27.3 12.56 -25.44 -10.67 -1.86zm94.78 13.03l-5.03 14.27 0 -1.86 -3.76 35.99 0 81.3 0 -81.3 3.76 -34.13 5.03 -14.27zm-1068.3 -86.26l1.88 -14.9 -3.13 -2.48 1.25 17.38zm1217.68 292.92l-5.65 13.03 0 13.03 5.65 -26.06zm-107.33 42.82l4.39 21.72 20.09 -19.86 -24.48 -1.86zm445.02 185.55l0 45.31 -3.77 24.2 4.4 -13.03 -0.63 -11.17 0 -45.31zm-82.23 186.8l0.63 34.14 8.79 -25.45 -8.16 -8.69 -1.26 0zm-85.99 55.24l0 13.03 0 -13.03zm-1142.36 49.02l0 27.93 5.02 -14.27 -5.02 -13.66zm1297.4 13.66l-4.4 9.93 15.07 17.37 9.41 51.51 5.65 -45.3 -25.73 -33.51zm-882.51 58.95l1.26 4.97 -1.26 -4.97 -2.51 -20.48 0 25.45 2.51 -4.97zm-3.14 156.39l0.63 13.04 -0.63 -13.04zm1011.81 8.69l-5.65 11.17 8.16 31.65 -2.51 -42.82zm-780.2 149.56l9.42 68.27 -9.42 -68.27zm33.27 83.78l2.51 22.97 5.65 -40.34 -8.16 17.37zm345.85 -24.2l-8.79 13.03 6.9 0 1.89 -13.03zm-455.06 30.41l-7.54 -55.85 1.89 17.37 5.65 38.48zm-38.92 168.8l3.14 8.69 1.88 1.86 20.09 79.44 -1.89 -12.41 -18.2 -67.03 -5.02 -10.55zm873.72 -109.22l0.63 8.69 2.51 0 -3.14 -8.69zm-249.19 89.98l7.53 13.04 -4.39 -13.04 -3.14 0zm-977.28 280.51l6.9 41.58 1.26 -44.06 -8.16 2.48zm32.64 22.97l8.79 29.78 -4.4 -29.78 -4.39 0zm1539.67 -243.9l11.93 142.74 0 7.45 1.88 23.58 14.44 29.79 -16.32 -60.82 -6.28 -67.03 -2.51 -37.23 -3.14 -38.48zm-1294.25 472.27l-3.14 15.52 5.02 12.41 -1.88 -27.93zm320.11 11.17l0.63 16.76 12.55 21.72 -13.18 -38.48zm316.97 -57.09l8.16 45.92 3.77 -11.79 -9.42 -34.13 -2.51 0zm188.3 -194.87l-5.02 -21.72 -2.51 2.48 7.53 19.24zm-1777.56 546.75l-43.93 -142.74 -43.31 -143.36 3.13 14.9 21.97 70.74 20.72 72.61 28.24 93.71 13.18 34.14 127.42 386.63 -56.49 -172.53 -18.2 -49.02 -16.32 -55.24 -36.41 -109.84zm2100.19 -343.81l6.9 10.55 -6.9 -10.55zm-5.02 -32.27l18.2 38.47 -18.2 -38.47zm-1609.98 513.23l70.93 201.07 -70.93 -201.07zm750.7 -62.06l-5.65 17.38 18.2 20.48 -12.55 -37.86zm-920.8 288.58l-32.01 -72.61 11.93 27.92 20.08 44.69zm799.65 -884.97l-5.02 -8.69 2.51 8.69 2.51 0zm962.22 577.15l6.91 21.1 2.51 -12.41 -9.42 -8.69zm-2193.08 850.84l14.44 25.44 1.26 1.86 -1.26 -1.86 -11.3 -25.44 -3.14 0zm10.67 85.64l7.54 16.75 3.13 0 -10.67 -16.75zm858.03 -303.47l9.41 14.89 -6.27 -14.89 -3.14 0zm638.97 -239.55l2.51 15.51 6.27 -3.1 -8.78 -12.41zm38.29 70.75l13.18 40.33 1.88 -14.27 -15.06 -26.06zm1057.62 -415.8l1.26 6.82 4.39 15.52 -4.39 -15.52 -1.26 -6.82zm-941.51 428.83l21.35 61.44 -5.03 -40.34 -16.32 -21.1zm-393.54 219.69l-4.4 34.13 5.02 13.03 -0.62 -47.16zm469.49 -51.51l6.91 11.17 -4.4 -12.41 -2.51 1.24zm478.29 -27.31l20.08 31.65 -6.27 -12.41 -10.67 -19.24 -3.14 0zm222.19 -55.23l6.28 21.1 3.14 0 -9.42 -21.1zm-686.67 491.51l8.79 13.03 -4.4 -13.03 -4.39 0zm91.01 -47.78l13.81 24.2 -13.18 -24.2 -0.63 0zm251.7 -74.48l20.71 32.27 -11.3 -22.34 -9.41 -9.93zm332.66 -164.45l35.78 62.06 8.79 10.55 -44.57 -72.61zm-1063.9 730.44l17.58 24.2 -13.81 -26.07 -3.77 1.87zm525.36 -221.56l8.16 8.69 -5.65 -11.17 -2.51 2.48zm39.55 51.51l3.76 14.28 10.67 10.55 -7.53 -11.79 -6.9 -13.04zm365.3 -220.93l0 17.38 12.55 21.72 0 -14.9 -12.55 -24.2zm-10.04 21.72l1.88 17.38 15.06 19.24 -16.94 -36.62zm813.46 -454.89l3.14 10.55 3.14 -1.87 -6.28 -8.68zm-2552.74 1171.68l-10.04 -15.52 10.04 15.52zm703.62 98.05l19.46 27.31 1.26 -1.24 -20.72 -26.07zm1672.74 -896.14l16.95 42.83 5.65 8.68 -22.6 -51.51zm-776.42 611.29l-14.44 -21.1 -9.42 -13.03 15.07 26.06 8.79 8.07zm499.62 -317.74l5.02 8.68 -3.76 -11.17 -1.26 2.49zm-1441.13 1083.55l16.32 27.93 14.44 10.55 -30.76 -38.48zm1854.77 -1239.94l5.02 8.06 -1.89 -12.41 -3.13 4.35zm-218.43 220.31l0 17.37 52.09 63.92 -32.01 -40.95 -20.08 -40.34zm303.79 -75.1l10.04 19.86 14.44 16.76 -24.48 -36.62zm-608.21 421.39l-27.62 -29.79 13.81 22.96 13.81 6.83zm-1255.97 945.16l-6.91 -11.17 6.91 11.17zm1278.56 -1043.22l-11.92 -6.82 10.04 8.07 1.88 -1.25zm223.45 265l6.91 6.2 12.55 8.07 -19.46 -14.27zm414.89 -305.95l6.28 11.17 5.65 -5.59 -11.93 -5.58zm-253.58 260.65l-8.78 -6.21 -2.51 0 11.29 6.21zm601.94 -472.9l8.16 8.69 2.51 -3.72 -10.67 -4.97zm-917.65 870.7l64.65 70.74 -34.53 -42.82 -30.12 -27.92zm207.13 -72.61l39.54 21.1 -39.54 -21.1zm-80.34 196.1l11.92 6.83 -8.79 -8.07 -3.13 1.24zm-628.93 667.14l9.41 17.38 -9.41 -17.38zm25.73 0l47.71 37.24 3.76 1.24 33.9 29.79 -11.3 -9.93 -22.6 -19.86 -51.47 -38.48zm55.24 -11.17l11.3 11.17 11.92 6.21 13.81 11.17 -37.03 -28.55zm1414.14 -1408.13l29.5 31.65 18.2 11.18 -47.7 -42.83zm111.1 -83.16l23.85 21.1 18.83 10.55 -42.68 -31.65zm-229.73 318.37l-10.67 -4.34 8.16 8.68 2.51 -4.34zm-175.12 117.91l-3.77 -2.48 -3.13 -4.34 1.25 4.34 3.14 6.83 2.51 -4.35zm-1520.84 1267.26l-64.65 -55.24 -20.09 -3.1 84.74 58.34zm316.34 -523.16l-68.41 -62.68 -46.45 -40.34 114.86 103.02zm159.43 818.56l75.95 68.27 52.09 38.47 13.81 8.69 -141.85 -115.43zm320.74 -320.85l13.81 8.69 -11.3 -10.55 -2.51 1.86zm1267.27 -1467.08l22.59 26.06 16.95 11.17 -39.54 -37.23zm-1185.05 1492.53l12.56 13.03 1.88 -4.34 -14.44 -8.69zm718.06 -891.18l45.82 58.96 -45.82 -58.96zm-2.51 119.78l43.93 26.06 -18.2 -14.27 -25.73 -11.79zm-180.77 416.42l10.04 8.68 12.56 8.69 -9.42 -13.03 -13.18 -4.34zm317.6 -401.53l10.04 5.59 71.56 49.64 116.74 75.1 25.11 12.41 22.6 11.17 -47.71 -23.58 -62.14 -43.44 -21.34 -10.55 -33.26 -21.11 -81.6 -55.23zm472.01 -474.75l13.18 21.1 -1.26 -16.76 -11.92 -4.34zm-276.8 463.58l10.04 8.07 -7.53 -9.93 -2.51 1.86zm52.72 231.48l-45.82 -25.44 6.28 9.93 39.54 15.51zm25.11 6.21l20.08 16.76 9.42 6.82 4.39 -4.34 -33.89 -19.24zm43.31 -64.54l6.9 3.1 7.53 -3.1 -7.53 3.1 -6.9 -3.1zm-223.45 75.71l-32.64 -24.2 9.41 13.03 23.23 11.17zm595.03 -517.58l51.47 40.34 -42.69 -53.37 -8.78 13.03zm-126.79 294.17l-9.42 -6.21 -1.88 4.34 11.3 1.87zm-851.12 1514.25l43.93 23.58 -10.67 -10.55 -33.26 -13.03zm1260.36 -1760.01l14.43 13.03 21.97 8.69 9.42 4.35 -9.42 -4.35 -36.4 -21.72zm-339.57 650.38l-10.67 -4.34 10.67 4.34zm-709.9 1530.39l33.27 15.51 13.18 6.21 -46.45 -21.72zm767.02 -1372.14l33.26 23.59 16.95 -4.35 -50.21 -19.24zm345.22 -607.56l2.51 15.52 32.01 11.79 -34.52 -27.31zm-527.25 1120.18l-23.85 -12.42 23.85 14.28 47.71 32.89 -47.71 -32.89 0 -1.86zm59 -45.31l12.56 3.11 -11.93 -6.21 -0.63 3.1zm19.46 -11.79l24.48 8.69 14.44 6.21 64.65 19.23 70.3 -6.82 -57.75 -8.07 -12.55 14.89 -79.09 -25.44 -24.48 -8.69zm612.61 -1063.08l5.65 8.69 1.88 -4.34 -7.53 -4.35zm-204.62 574.67l33.26 15.52 -10.67 -8.69 -22.59 -6.83zm150.64 -287.95l10.04 6.2 -3.77 11.17 -1.25 -3.1 6.9 17.38 20.09 13.65 -25.74 -27.93 3.77 -11.17 3.77 -6.2 -12.56 -1.86 -1.25 1.86zm-495.23 1030.81l-12.56 -1.87 12.56 1.87zm-133.7 250.09l-15.06 -4.34 14.43 6.21 0.63 -1.87zm473.27 -511.37l11.92 6.83 35.78 10.55 15.69 1.24 -13.18 -3.1 -2.51 1.86 -47.7 -17.38zm373.46 -618.11l30.76 19.86 -5.65 -17.38 -25.11 -2.48zm-69.04 263.13l-8.16 -5.58 -1.26 1.86 9.42 3.72zm-336.44 1197.75l16.32 2.48 -16.32 -2.48zm381 -724.85l6.9 23.58 -6.9 -23.58zm-389.78 1163.61l-11.93 0 11.93 0 52.09 14.28 -50.21 -14.28 -1.88 0zm703.62 -1937.49l32.01 17.37 32.01 11.79 -64.02 -29.16zm-317.61 1210.16l114.87 21.72 -82.85 -26.69 -32.02 4.97zm276.81 -708.1l24.48 6.82 38.28 0 -62.76 -6.82zm46.44 24.2l-15.06 5.59 36.41 4.34 -21.35 -9.93zm-359.65 694.45l-11.3 -6.83 -14.44 0 25.74 6.83zm146.25 626.8l48.33 4.34 -11.3 -24.2 -37.03 19.86zm101.05 -15.52l17.58 0 -15.07 -8.69 -2.51 8.69zm487.07 -878.14l173.87 22.96 -118.63 -21.1 -55.24 -1.86zm488.96 -622.46l21.97 0 -21.97 0zm-635.2 1828.28l-16.95 0 16.95 1.24 0 -1.24zm779.56 -2055.41l11.93 0 -11.93 -4.35 0 4.35zm95.41 85.64l21.97 1.86 0 -3.1 -21.97 1.24zm-61.51 1943.7l16.32 0 1.25 -2.48 32.64 -5.59 28.25 -2.48 -11.93 -4.34 -16.32 6.82 -32.64 5.59 -17.57 2.48zm128.67 -1303.87l13.18 1.86 -13.18 -6.2 0 4.34zm-11.93 726.72l16.95 -4.97 -16.95 4.97zm51.47 -68.89l13.18 2.48 -13.18 -4.34 0 1.86zm16.32 233.35l28.87 -6.21 -28.87 6.21zm113.61 -1223.2l-2.51 -16.75 3.14 0 13.81 -8.69 3.76 -1.86 8.79 -4.97 -6.9 4.97 -6.28 0 0.63 1.86 -16.95 8.69 2.51 16.75zm42.05 -412.07l54.61 -2.48 -54.61 2.48zm14.44 305.33l8.16 4.35 0 -4.35 -8.16 0 -14.44 8.69 14.44 -8.69zm28.25 126.6l-45.82 -4.96 -0.63 4.96 36.4 3.11 10.05 -3.11zm134.94 453.04l20.72 -2.49 20.08 -1.86 -20.08 1.86 -20.72 2.49zm75.33 916.61l-45.2 0 45.2 0zm32.01 -1408.12l23.22 -8.69 6.28 -4.97 8.16 -3.1 -8.16 3.1 -5.02 0 0 4.97 -24.48 8.69zm64.65 491.51l26.36 1.86 41.42 0 -41.42 0 -26.36 -1.86zm10.67 -453.04l50.21 -2.48 -25.11 -10.55 -25.1 8.07 0 4.96zm148.75 1534.73l-45.82 4.97 32.02 -3.11 13.8 -1.86zm107.34 -83.78l30.75 0 0 -1.24 -30.75 1.24zm-101.06 -1526.04l10.04 3.72 13.19 0 -23.23 -3.72zm146.88 157.63l74.06 -16.75 -61.51 13.03 -12.55 3.72zm103.56 141.5l13.18 0 0 -4.35 -13.18 4.35zm-12.55 -444.35l11.92 0 22.6 -8.69 10.04 -8.69 -44.56 17.38zm207.76 1154.31l30.75 -1.86 -1.25 -4.35 -29.5 6.21zm-142.48 -1087.91l13.18 -2.48 68.41 -18.62 3.77 -3.1 44.56 -4.34 -44.56 4.34 -85.36 24.2zm315.71 869.46l-83.48 24.2 83.48 -24.2zm-119.25 -718.03l50.84 -18.62 55.86 -11.17 48.96 -6.2 -104.82 17.37 -42.06 8.07 -8.78 10.55zm-36.41 -278.03l10.67 -4.34 0 -1.86 -10.67 6.2zm50.22 143.98l-11.93 9.93 12.55 -4.34 -0.62 -5.59zm104.82 -148.32l65.27 -22.96 1.26 0 11.3 -4.35 -11.3 1.86 -66.53 25.45zm338.94 1167.34l-27.62 11.17 29.5 -4.97 -1.88 -6.2zm-249.19 568.46l-50.21 8.69 50.21 -8.69zm377.23 -335.74l75.32 -20.48 15.7 -8.69 -91.02 29.17zm-298.77 -1341.72l48.96 -8.69 11.3 -4.35 -60.26 13.04zm478.29 1549.62l15.06 -1.86 -0.63 -6.83 -14.43 8.69zm-141.23 -560.4l11.93 -8.69 -11.93 4.35 0 4.34zm197.09 402.15l45.82 -13.03 -31.38 0 -14.44 13.03zm-455.69 -1700.43l11.93 0 -1.89 -3.1 -10.04 3.1zm284.96 356.22l15.07 5.59 9.41 -5.59 -24.48 0zm59 -18l13.19 0 13.8 -3.72 -26.99 3.72zm77.21 136.53l-5.65 0 15.06 0 -1.25 -1.86 -8.16 1.86zm79.71 130.95l69.67 -31.65 -13.18 4.34 -56.49 27.31zm378.49 930.27l-34.52 6.21 16.94 0 17.58 -6.21zm-328.9 -1571.97l4.39 -3.72 4.4 0 0 -4.34 -8.79 8.06zm271.15 573.43l10.04 -6.82 37.66 -19.24 23.23 -14.27 -23.23 13.03 0 1.24 -47.7 26.06zm109.84 91.85l43.31 -23.58 28.25 -11.17 -28.25 11.17 -8.78 4.34 -34.53 19.24zm-70.92 -299.75l10.04 -8.68 4.39 0 -4.39 0 -10.04 8.68zm27.61 -19.23l12.56 -14.28 13.18 -25.44 -13.18 1.24 -12.56 38.48zm-289.98 -668.38l20.09 -8.69 -2.51 -2.48 -17.58 11.17zm132.44 -27.93l18.83 -8.69 -10.04 2.48 -8.79 6.21zm274.29 521.3l13.18 1.86 0 -8.69 -13.18 6.83zm570.55 1127l104.2 -53.37 -84.11 38.47 -20.09 14.9zm-341.45 -772.02l-8.79 6.83 2.51 1.86 6.28 -8.69zm-393.55 -748.44l17.58 -12.41 -21.97 2.48 4.39 9.93zm17.58 -40.34l32.64 -12.41 -4.4 -8.69 -28.24 21.1zm-147.51 -367.39l8.79 0 21.97 16.76 -21.97 -16.76 0 -6.83 -8.79 6.83zm596.92 1030.19l-45.19 29.17 10.67 -5.59 34.52 -21.72 0 -1.86 25.73 -18 -25.73 18zm-436.86 -904.83l28.87 -14.89 -11.3 0 -17.57 14.89zm93.52 103.02l1.89 4.34 4.39 -31.65 -4.39 9.93 -1.89 17.38zm-56.49 -145.84l10.67 3.1 16.95 -19.86 -27.62 16.76zm456.32 752.78l-10.67 6.83 4.39 4.34 0 22.96 10.67 4.35 0 -4.35 -10.67 0 0 -22.96 6.28 -11.17zm-294.38 -407.73l-16.95 14.27 12.56 0 4.39 -14.27zm895.06 1324.35l8.79 -8.07 13.18 -8.07 -13.18 6.21 0 1.86 -8.79 8.07zm-138.09 -354.36l12.56 -8.07 11.29 -11.17 -23.85 19.24zm129.93 134.67l38.92 -25.45 -17.58 2.49 -21.34 22.96zm-661.56 -1160.51l47.07 -32.27 8.79 -13.04 -57.75 42.82 1.89 2.49zm202.73 192.38l-8.78 6.21 13.18 -1.86 -4.4 -4.35zm26.36 91.85l-8.78 6.83 0 3.1 12.55 -3.1 -3.77 -6.83zm315.1 508.89l-25.74 11.17 13.18 0 12.56 -11.17zm-680.4 -1264.15l10.67 -6.21 -4.39 -4.34 -6.28 10.55zm88.5 -1.87l21.34 -8.68 -8.78 -12.42 -8.79 8.69 -3.77 12.41zm1011.81 1707.88l8.78 -5.58 45.82 -34.76 18.83 -14.89 -13.18 8.07 -5.65 6.82 -6.9 4.35 -38.92 30.41 -8.78 5.58zm-281.2 -433.17l13.18 -4.35 8.79 -10.55 -21.97 14.9zm-317.6 -560.4l32.01 2.48 -8.79 -13.65 -23.22 11.17zm897.57 745.33l12.55 -8.06 11.3 -11.8 -23.85 19.86zm12.55 -494.61l8.79 -13.65 -8.79 13.65zm56.49 -111.09l81.6 -84.4 8.79 -12.41 -90.39 96.81zm-255.46 -342.57l4.39 1.87 47.71 -44.69 -52.1 42.82zm-466.99 -534.33l34.52 -27.92 -34.52 12.41 0 15.51zm376.61 309.68l12.55 -8.69 -4.4 -2.48 -8.15 11.17zm657.17 633.01l8.16 -10.55 -8.16 8.68 0 1.87zm-345.85 -426.35l11.3 -9.93 -16.32 8.07 5.02 1.86zm163.82 137.15l91.01 -99.92 37.04 -40.34 -37.04 40.34 -4.39 4.35 -30.13 31.03 -56.49 64.54zm-268.01 -384.15l8.78 -11.17 4.4 -12.41 -13.18 23.58zm302.53 638.59l-30.12 32.89 11.29 -13.65 18.83 -19.24zm50.22 55.86l-28.25 15.51 -8.79 9.93 37.04 -25.44zm178.88 -681.42l9.42 -11.17 -13.18 6.83 3.76 4.34zm401.08 350.64l10.05 -13.03 8.78 -11.17 -10.67 8.68 -8.16 15.52zm36.41 -45.3l12.55 -10.55 -4.39 -4.97 -8.16 15.52zm-173.24 -199.22l15.69 -19.23 77.84 -95.58 -75.95 91.85 0 2.48 -17.58 20.48zm-161.94 -166.32l4.4 -15.51 21.97 -34.13 25.73 -31.65 -25.73 31.65 -21.97 34.13 0 3.1 -4.4 12.41zm-352.75 -400.28l8.79 -9.93 -13.18 8.69 4.39 1.24zm-224.7 -260.65l32.64 -21.1 23.22 -26.06 -64.65 41.58 8.79 5.58zm-86.62 -212.24l4.39 -5.59 -4.39 5.59zm817.22 659.69l4.4 1.86 4.39 -6.2 4.4 -4.35 -13.19 8.69zm224.71 125.36l-16.95 21.72 8.79 8.69 11.3 -11.17 -3.14 -19.24zm193.32 -111.09l27.62 -35.99 -8.79 -3.72 -18.83 39.71zm-1006.15 -886.83l8.79 -8.68 -13.19 6.2 4.4 2.48zm160.05 -27.92l4.4 -13.03 -4.4 11.17 0 1.86zm795.89 508.89l13.18 -13.04 -4.39 0 -8.79 13.04zm-372.21 -453.66l6.91 -9.93 -2.52 0 -4.39 9.93zm-151.27 -181.21l13.18 -21.1 -8.78 -4.35 -4.4 25.45zm-165.7 -156.39l10.04 -8.69 -10.04 8.69zm645.87 278.02l60.26 -87.5 26.36 -57.72 25.73 -66.4 -34.52 70.75 -77.83 140.87zm-281.2 -291.06l0 0 -4.39 -13.03 0 -3.72 4.39 -8.69 -4.39 8.69 0 2.48 4.39 14.27zm843.59 307.82l-1.88 4.34 -28.87 58.34 30.75 -62.68 54.61 -82.54 -28.87 35.37 -25.74 47.17zm-328.9 -183.7l34.53 -27.3 -34.53 27.3zm389.16 171.29l-8.79 10.55 0 14.89 8.79 -25.44zm-839.2 -415.18l11.3 -8.07 -11.3 -4.34 0 12.41zm864.93 233.34l8.79 -14.89 0 -13.03 -8.79 27.92zm207.76 -181.83l4.4 -13.03 -8.79 11.17 4.39 1.86zm60.89 -24.2l4.39 -11.8 -6.28 10.55 1.89 1.25zm-463.22 -675.21l4.39 -12.41 0 -16.76 8.79 -59.58 2.51 -3.1 1.88 -5.58 2.51 -22.35 -2.51 22.35 -4.39 8.68 -8.79 59.58 -4.39 29.17zm397.94 -122.88l4.39 -14.27 -4.39 -1.86 0 16.13zm-181.4 -248.24l4.4 -11.17 -4.4 11.17zm-56.49 -297.88l-1.88 -15.52 -1.88 15.52 3.76 0zm116.75 -624.32l4.39 -25.44 -4.39 11.17 0 14.27zm65.28 -36l8.16 27.31 -10.05 -82.54 1.89 55.23zm-11839.75 -2920.51l10.67 -29.79 -10.67 29.79zm-180.77 -165.08l9.42 -31.03 -9.42 31.03zm529.76 -929.65l21.96 -29.79 1.89 4.34 8.79 -13.03 -10.68 8.69 -21.96 29.79zm2599.81 -1719.05l16.94 1.86 -0.62 3.1 15.69 -8.68 -15.07 5.58 -16.94 -1.86zm8791.15 5270.09l-38.92 -477.24 -55.86 -309.67 -47.7 -215.35 -13.19 -60.82 -21.34 -61.44 -17.57 -63.92 -18.83 -66.4 -24.48 -59.58 -60.26 -183.7 2.51 0 -2.51 0 -4.39 -13.03 -8.79 -11.17 -1.88 38.48 23.85 101.16 25.74 112.94 21.34 92.47 21.96 91.23 16.95 83.78 -5.65 13.03 -4.39 95.57 6.28 49.65 0 117.29 -26.37 145.22 -8.78 -35.99 -25.74 -85.64 -30.13 -130.95 -15.06 -69.51 -19.46 -73.23 -129.93 -461.72 -38.91 -104.88 -47.7 -99.91 -13.19 -37.24 -12.55 -35.99 -26.36 -70.75 -60.26 -128.47 -172.61 -333.25 -43.93 -61.44 -42.69 -51.51 -43.3 -72.61 -70.93 -85.64 -151.27 -199.22 -37.66 -55.85 -52.1 -65.78 -60.25 -63.92 -25.74 -30.41 -8.79 -8.07 -15.06 -17.38 -97.29 -113.57 -10.67 -6.2 -2.51 1.86 -55.86 -63.92 -75.32 -83.16 -77.83 -59.58 -67.79 -60.2 -30.13 -36.61 -30.13 -38.48 -17.57 -18.62 26.36 31.03 -67.16 -44.06 -73.44 -62.68 -21.34 -16.75 -24.48 -21.72 -69.04 -59.58 -16.95 -13.03 -389.78 -271.2 -12.56 -6.83 -52.09 -34.13 -47.71 -34.14 -86.61 -44.68 -82.23 -50.89 -42.68 -28.55 -43.31 -22.96 -64.65 -36.61 -131.81 -60.2 -33.27 -9.93 -94.78 -51.51 -47.7 -19.86 -53.35 -22.96 -2.51 4.34 -21.97 -13.03 -21.34 -6.82 -17.58 -12.42 -320.11 -112.95 -108.58 -17.37 -62.77 -15.52 -96.66 -25.44 -97.92 -25.45 -24.48 -4.34 28.25 32.27 -0.63 0 -379.11 -75.09 -47.71 -8.69 0 2.48 -53.35 -11.17 -54.61 -5.58 -62.14 -6.83 -65.27 -6.2 -64.03 -8.69 -62.76 -2.49 -423.05 -14.27 -364.05 21.1 -80.97 6.21 -51.47 2.48 -51.47 8.69 -92.27 12.41 -80.97 17.38 -80.96 17.37 -72.19 9.93 -65.9 17.38 -129.93 32.27 -75.95 21.72 -61.51 25.44 -67.16 18.62 -134.32 38.48 -330.78 126.6 -324.51 153.91 -421.79 252.58 -64.65 40.34 -20.09 11.17 -14.44 16.76 -107.96 104.26 66.54 0 -154.41 122.25 -169.47 151.43 -65.28 49.65 -52.09 57.09 -32.02 36.62 -31.38 43.44 1.88 1.24 50.22 -38.48 42.68 -34.13 8.16 -6.21 9.41 -2.48 21.34 -8.69 29.51 -18.62 1.25 1.87 -10.04 21.1 -22.6 28.54 -4.39 8.69 2.51 3.73 -40.8 30.4 -41.43 25.45 -177 117.29 -13.81 15.52 -25.1 29.78 -24.48 29.79 -43.94 55.86 -43.31 55.23 -20.09 30.41 -22.59 27.31 -43.94 45.3 -35.15 52.75 -28.24 49.65 -40.17 57.09 -24.48 34.75 -42.06 70.75 -54.6 91.23 -17.58 28.55 -92.27 175 -57.11 111.09 -25.11 51.51 -21.34 51.51 -131.19 324.57 -92.89 275.55 -79.71 323.32 -15.7 70.13 -2.51 25.45 -1.88 30.41 -7.53 61.43 -10.67 63.93 -11.3 67.02 -5.02 49.03 -10.04 49.02 -45.2 380.43 -50.21 406.49 -40.8 171.28 -1.25 32.27 -6.28 0 -40.8 98.68 -49.59 57.09 -59 38.48 -57.74 49.65 -11.3 52.75 11.3 83.78 18.2 70.12 8.16 36 3.14 39.1 -6.28 -19.24 -3.14 -11.17 0 6.82 3.14 4.35 6.28 19.24 5.02 0 97.92 322.71 117.37 314.02 50.21 103.64 52.73 105.5 35.15 67.02 27.62 66.41 190.81 343.8 88.5 139.64 185.79 262.51 25.11 32.27 255.46 325.19 60.88 67.65 67.16 55.23 49.59 49.65 35.78 31.65 33.89 32.89 62.77 66.4 38.91 42.82 43.31 38.48 45.19 36 43.94 36.61 35.78 20.48 34.52 22.34 64.65 53.37 49.59 36.62 91.64 63.92 94.15 65.78 50.84 75.09 -53.98 6.21 -19.46 -14.27 -6.9 -6.83 -0.63 2.48 7.53 4.35 19.46 14.27 -5.02 4.34 -6.28 13.04 -1.88 59.57 43.31 49.65 65.27 59.58 79.09 43.44 75.32 34.13 47.08 21.1 46.44 27.31 23.23 15.51 25.73 16.14 50.84 24.2 108.59 38.48 355.26 115.43 11.93 0 29.5 8.69 30.75 10.55 28.25 12.41 101.68 36.62 200.23 35.99 89.75 15.52 97.92 16.75 79.72 13.03 38.91 2.49 39.54 4.34 75.32 6.21 73.44 2.48 381.63 18.62 494.6 -38.48 31.38 -8.69 -1.25 -4.34 186.42 -31.65 80.97 -23.59 10.67 0 279.94 -70.12 20.71 -4.35 27.62 -11.17 61.51 -15.51 38.29 -11.79 39.54 0 37.03 -13.04 74.7 -25.44 26.99 -8.69 28.87 -8.69 21.97 0 96.03 -10.55 -54.61 14.28 -27.61 8.68 11.29 0 16.32 -8.68 54.61 -14.28 43.31 -17.37 43.94 -14.9 84.73 -36.61 111.1 -55.86 53.35 -27.3 50.22 -27.93 94.77 -48.41 144.37 -84.4 13.18 -12.41 419.28 -286.71 74.07 -38.48 60.25 -22.96 6.91 14.27 -2.51 11.17 8.79 -8.07 -6.28 -3.1 -6.91 -14.27 4.4 -4.97 43.31 2.48 34.52 -17.37 38.91 -22.96 56.49 -28.55 86 -31.03 26.36 -11.17 47.07 34.13 74.07 -13.03 16.95 -9.93 8.78 -8.69 60.89 -47.16 8.16 40.33 -21.34 38.48 -60.89 74.47 -60.25 68.89 -26.37 35.99 -69.04 68.27 -44.57 53.99 -119.25 115.43 -73.44 67.65 -95.41 96.81 -86.61 89.98 -21.35 12.42 3.77 29.78 43.31 68.89 112.35 -32.89 52.1 -32.89 47.7 -34.76 94.78 -79.43 34.52 -27.31 33.27 -27.92 75.32 -60.2 89.13 -91.23 53.35 -62.68 69.67 -72.61 8.16 -6.21 47.7 -68.26 56.5 -51.51 16.94 -19.24 20.09 -13.03 10.04 -5.59 4.39 -7.44 8.79 -6.83 112.35 -97.43 37.66 -36.62 34.53 -34.13 66.53 -63.92 16.95 -14.9 43.31 -40.96 77.83 -70.12 67.79 -89.99 57.74 -90.61 60.89 -91.22 73.43 -102.4 77.83 -89.99 177.01 -124.12 13.18 -6.2 67.16 -80.68 23.85 -26.07 21.34 -29.78 52.1 -63.92 77.83 -88.75 43.31 4.34 15.06 -8.06 19.46 11.17 11.3 18.62 83.48 36.61 30.13 18.62 -8.16 19.86 2.51 1.86 45.19 35.99 53.98 13.66 38.91 -13.66 6.28 4.97 6.91 -11.17 62.13 -40.34 34.53 42.82 0 29.79 13.18 60.2 -13.18 98.05 17.57 53.37 -1.88 42.82 -12.56 23.58 48.96 -42.82 59 -93.71 44.57 -98.05 30.75 -64.54 8.16 -47.17 91.02 -192.38 11.29 19.24 18.83 -94.33 -8.15 11.17 8.15 -39.72 0 14.27 8.79 -45.3 8.79 -47.17 16.95 -76.95 13.18 -37.24 13.18 -93.08 4.39 -79.44 38.92 -182.46 38.91 -80.67 8.16 -40.34 30.76 -137.15 8.16 -134.05 -3.77 -40.96 -8.78 -1.86 -6.28 27.3 -2.51 0 4.39 -27.3 -4.39 0 0 -13.03 -1.88 -2.49 1.88 -25.44 8.79 -38.48 0 -38.48 4.39 -35.99 13.18 -94.95 8.16 -33.51 8.79 -76.96 6.9 -79.43 1.88 -72.61 -4.39 -70.13 0 -27.93 4.39 -38.47 6.91 -26.07 1.88 -35.99 8.16 -15.52 8.79 -55.23 13.18 -34.13 25.73 -26.07 2.52 -14.27 6.27 -11.17 60.26 -51.51 30.75 0 73.44 173.76 19.46 42.83 19.46 55.85 15.06 27.31 6.28 39.71 0 41.58 26.36 168.81 3.77 83.15 13.18 55.86 17.57 47.16 8.16 55.24 11.3 -13.04 19.46 147.08 8.16 169.43 -4.4 51.51 -8.16 61.44 -8.78 130.94 -17.58 113.57 -27.62 124.12 -6.9 33.51 -8.16 34.75 -19.46 87.51 -23.85 49.65 -27.62 95.57 -7.53 42.82 3.14 0 1.26 17.37 0 2.49 59 -13.04 23.22 68.27 4.39 83.16 0 58.34 -5.65 14.27 14.44 -9.93 17.58 -41.58 0 -12.41 3.76 -17.38 4.4 -57.09 8.78 -13.04 2.51 -15.51 -4.39 -2.48 -2.51 0 13.18 -41.58 16.95 -58.34 35.15 -153.91 21.34 -27.92 -25.74 163.21 -4.39 42.82 -17.58 99.92 -32.01 115.43 1.89 51.51 -21.34 88.12 0 14.28 -8.79 11.17 -23.23 102.4 1.26 19.24 -48.96 111.08 -20.08 85.64 -34.53 83.78 -10.67 12.42 -16.94 40.34 -86.62 194.86 -67.16 149.57 -52.1 108.6 -38.91 80.06 -34.53 73.85 -52.09 72.61 -56.49 89.98 -55.87 85.64 -52.09 76.96 -48.96 76.95 -28.87 53.99 -4.4 38.48 -291.24 333.26 -93.52 117.29 -125.53 134.05 -64.65 91.23 -99.8 115.43 -23.23 18.62 -73.43 68.26 -69.05 68.27 -67.79 68.88 -34.52 29.79 -32.01 31.65 -69.04 62.06 -67.79 64.54 -142.48 121.64 -94.78 83.78 -39.54 27.93 -42.69 14.27 -8.78 10.55 2.51 4.97 -15.69 8.68 4.39 3.73 -6.28 23.58 -25.73 15.52 -50.22 35.99 -194.57 136.53 -142.48 92.47 -166.34 87.5 -97.29 53.37 -60.88 34.76 -52.1 25.44 -86.61 40.34 -25.74 15.52 -23.22 29.78 -24.48 14.28 -25.74 22.96 -43.31 22.34 -13.18 6.21 -40.17 24.2 -30.75 11.79 -45.82 24.2 -5.65 1.87 -6.91 1.86 -86.62 38.47 -519.08 209.77 -109.84 32.27 -90.39 29.16 -90.38 36.62 -155.66 42.82 -100.43 28.55 -101.05 22.96 -127.42 32.27 -30.13 8.69 -48.96 4.34 30.76 -11.17 80.97 -22.96 14.43 -4.96 15.7 -1.87 28.87 -13.03 55.86 -18.62 69.67 -15.51 -18.2 -1.86 -16.32 1.86 -45.19 15.51 -94.15 16.14 -94.78 25.44 -77.83 15.52 0 2.48 -15.07 6.21 -78.45 19.24 -32.02 23.58 -82.85 0 -84.73 8.69 -84.11 11.17 -85.99 8.07 -98.55 16.75 -112.35 8.07 -135.58 11.17 -89.13 28.55 -65.27 3.72 -64.65 -8.07 -33.9 -8.69 -180.14 21.73 -45.82 -3.11 -113.61 -1.86 -50.21 -8.07 -35.78 0 17.58 4.35 -34.53 8.69 -31.38 -3.11 0 4.35 -14.44 -4.35 -35.77 -1.86 -29.5 0 -49.59 -8.07 -51.47 1.86 -65.9 6.21 -377.86 -32.27 -1.88 8.69 -278.06 -47.17 -17.58 -1.86 -50.84 -6.83 -80.97 -16.75 -80.97 -13.03 -149.38 -29.79 -102.94 -24.21 -92.27 -18.61 -64.02 -22.97 -118 -36.61 -61.51 -19.86 -61.52 -14.27 -45.82 -17.38 -58.37 -21.1 -59.63 -21.72 -121.14 -38.48 -82.22 -35.99 -82.23 -40.96 -79.71 -34.13 -39.54 -6.21 -45.2 -15.52 -104.82 -44.06 -3.14 5.59 -8.16 -1.24 -6.9 -2.49 -47.08 -26.06 -159.42 -70.75 -81.6 -37.85 -77.83 -43.45 -60.26 -22.96 -121.77 -62.06 -131.18 -76.95 -60.26 -32.27 -55.23 -36 -82.23 -57.71 -79.08 -41.58 -85.37 -54.61 -220.94 -154.53 -470.75 -367.39 -52.72 -40.96 -130.56 -116.68 -121.14 -114.19 -121.14 -119.77 -109.84 -108.6 -261.11 -291.68 -337.69 -437.52 -124.28 -183.7 -60.88 -91.85 -60.26 -96.81 -72.81 -138.39 -66.53 -100.54 -49.59 -89.98 -44.56 -76.96 -70.3 -138.39 -65.91 -141.5 -26.36 -45.3 -38.91 -61.44 -33.27 -76.95 -66.53 -153.91 -62.77 -152.05 -26.99 -81.29 -34.52 -61.44 -69.67 -166.94 -48.96 -173.77 -49.59 -160.11 -43.93 -217.83 -23.86 -96.81 -25.1 -95.58 -26.99 -171.9 -13.18 -147.08 -23.23 -145.22 -3.76 -153.91 8.16 -126.6 0.62 -89.37 17.58 -70.74 -1.88 -134.67 33.89 -519.44 54.61 -585.84 16.32 -160.74 9.41 -148.94 6.28 -52.13 16.32 -117.29 18.2 -115.43 39.54 -230.86 35.78 -141.5 46.45 -145.22 52.72 -185.55 43.94 -153.91 26.99 -79.44 33.89 -83.16 30.76 -72.61 38.29 -88.12 35.78 -78.2 27.61 -28.54 6.91 -9.93 21.97 -68.89 21.34 -32.27 60.25 -112.95 30.13 -51.51 33.27 -53.37 65.28 -107.36 70.92 -108.61 72.81 -96.19 68.42 -78.81 54.61 -29.79 -2.52 38.47 40.18 -38.47 29.5 16.75 -13.19 52.75 8.16 -14.27 8.79 -15.51 12.56 -12.42 12.55 -14.89 109.84 -143.36 116.75 -168.8 72.18 -98.05 35.78 -34.14 71.55 -76.95 3.14 3.72 13.81 -12.41 -11.3 55.86 -24.48 48.4 -26.99 55.23 -69.67 119.78 -27.62 98.67 5.65 4.35 -30.13 79.43 -18.83 65.79 -59.63 139.63 -72.18 149.56 -33.26 61.44 -29.5 67.03 -47.71 121.01 -11.3 32.89 2.52 1.25 -5.03 15.51 -1.88 18.62 1.26 21.72 -28.25 147.7 31.38 -4.34 -6.9 14.89 -1.26 19.24 -30.12 87.5 -16.95 49.65 -15.69 26.07 -15.69 31.03 -37.04 34.13 3.77 0 33.27 -34.13 31.38 -57.1 -10.67 44.68 -6.28 16.76 -3.76 4.34 -5.65 8.69 5.65 -8.69 3.76 -4.34 -9.41 29.79 -3.14 17.38 42.05 0 35.78 -40.34 59.63 -145.22 68.41 -143.36 47.71 -85.64 22.59 -53.37 28.25 -55.24 54.61 -103.01 110.47 -196.11 55.23 -96.82 30.76 -55.85 203.99 -283.61 59 -55.85 18.83 -29.79 80.34 -96.82 80.34 -86.88 160.06 -148.32 18.2 -4.35 64.03 -59.57 59 -47.17 57.11 -35.99 62.14 -47.17 102.94 -49.64 170.1 -119.78 161.94 -149.56 82.22 -70.13 40.8 -36.62 39.55 -35.99 70.29 -57.72 112.99 -83.15 108.58 -85.65 73.44 -58.33 74.07 -52.75 152.52 -105.5 18.2 -4.35 27.62 -16.75 103.56 -68.27 58.38 -23.58 12.55 23.58 132.44 -51.51 70.3 -1.86 12.55 -6.83 31.39 47.17 -93.53 113.57 1.89 85.64 64.02 -36.62 25.1 -17.37 62.14 -38.48 11.93 -12.41 60.88 -34.76 162.57 -95.57 83.48 -47.16 82.85 -47.17c197.09,-102.4 399.83,-194.86 627.67,-281.75l295.64 -106.74 29.5 -11.17 512.8 -125.98 59 -13.03 111.73 -19.24 112.35 -14.9 112.36 -16.75 110.47 -8.69 65.27 -4.34 147.51 4.34 29.5 16.76 96.03 14.89 121.77 6.83 101.68 12.41 132.44 17.37 118 31.66 103.57 36.61 74.69 8.69 72.81 4.34 141.85 18.62 106.71 13.03 69.04 25.45 111.1 38.47 96.66 15.52 95.41 18.62 191.43 43.44 27.62 21.1 25.74 6.83 -2.51 8.68 15.69 1.24 70.3 21.73 38.28 19.85 65.28 39.72 136.83 34.76 140.6 40.96 1.26 -4.35 25.1 0c214.04,50.89 404.85,112.95 616.38,209.14l127.41 57.72 95.41 36.61 94.78 47.17 289.98 145.22 121.14 70.12 129.3 76.96 301.28 194.86 69.05 47.17 62.14 47.16 125.53 99.92 69.04 62.68 69.05 52.75 21.97 21.72 121.14 113.57 58.37 59.58 58.37 57.71 -4.39 4.35 121.14 140.87 25.74 70.75 8.78 13.03 13.18 27.31 64.65 94.33 82.23 96.19 16.95 26.07 112.98 142.73 38.91 81.3 62.77 89.37 1.88 17.37 13.18 21.1 8.79 11.17 3.77 -2.48 78.46 111.09 71.55 111.08 14.44 24.21 13.18 25.44 4.39 13.03 91.01 149.57 42.68 78.81 39.55 75.1 237.26 549.22 0 62.06 39.54 111.71 37.03 111.08 40.17 149.57 26.37 132.81 25.73 115.43 4.39 89.36 -25.73 -49.65 -38.92 -129.7 -40.79 -130.95 -11.3 -40.33 -34.52 -93.71 -36.41 -94.33 -54.61 -40.96 -8.78 19.85 7.53 108.61 18.83 70.75 155.66 538.05 12.55 60.82 11.3 52.75 23.85 106.74 16.95 53.37 30.13 171.91 15.69 82.54 10.67 85.64 12.55 188.04 -3.76 80.06 6.9 91.22 1.26 49.03 4.39 52.13 -4.39 89.99 -16.95 80.68 -8.79 13.03 -21.34 27.3 0 13.04 -30.75 -89.99z"/>
   <polygon class="fil3" points="16770.58,17856.26 16778.74,17845.09 16783.14,17817.78 16774.98,17829.57 "/>
   <path class="fil4" d="M10596.19 17396.4l84.11 -24.2c249.18,-78.82 496.49,-157.63 743.79,-238.93l107.96 12.41c467.61,290.44 976.65,400.28 1522.73,337.6 493.97,-58.95 930.2,-251.34 1289.23,-587.7 618.26,-572.81 867.44,-1282.77 726.84,-2107.54 -108.58,-639.21 -493.35,-1202.09 -1040.05,-1544.04 -328.27,-207.28 -717.42,-337.6 -1140.47,-361.19 -500.88,-25.44 -967.87,96.2 -1384.64,372.36 -692.33,457.38 -1053.24,1106.52 -1068.3,1930.05 -8.79,472.27 131.81,909.17 406.1,1302.63l17.58 136.53 -178.89 519.44 -85.99 252.58zm-725.59 706.86l22.6 -67.65c151.9,-455.51 306.3,-911.03 462.59,-1362.2l-10.04 -108.61c-268.64,-461.72 -392.29,-961.92 -367.81,-1495.01 56.49,-1291.46 1003.01,-2377.5 2296.64,-2599.67 969.75,-166.94 1812.71,104.88 2506.29,794.98 454.43,451.79 709.27,1006.61 773.92,1635.27 65.27,590.8 -64.65,1165.47 -345.85,1653.26 -250.44,443.11 -627.04,812.36 -1095.91,1066.18 -369.7,199.21 -765.13,310.92 -1185.67,332.02 -512.81,28.55 -994.86,-74.47 -1446.78,-307.81l-116.12 -8.69c-475.77,152.66 -951.55,302.23 -1427.32,451.79l-66.54 16.14z"/>
   <path class="fil5" d="M11420.32 14582.62c3.14,-229.62 95.41,-412.69 257.97,-570.32l200.86 -72.61c203.36,-4.35 203.99,-4.35 282.45,183.69l184.54 437.52 -3.77 135.29 -163.82 212.87 -15.69 156.39c221.56,363.66 528.49,626.8 927.07,784.43l133.06 -29.17 200.86 -246.38 155.03 -48.4 569.3 268.09 48.96 122.26c-13.19,295.4 -148.76,440.62 -492.73,551.71l-505.27 -42.82c-625.79,-175.01 -1090.89,-559.78 -1452.43,-1079.22 -123.02,-173.76 -241.02,-346.29 -290.61,-554.19l-35.78 -209.14z"/>
  </g>
 </g>
</svg>
